{"glyphs":{" ":{"ha":283.0,"x_min":0,"x_max":283.0,"o":""},"!":{"ha":289.0,"x_min":0,"x_max":289.0,"o":"m 82.688 243.26 l 52.17 700 l 237.694 700 l 206.572 243.26 m 144.932 -7.586 q 103.224 -7.586 75.878 19.164 q 48.533 45.915 48.533 82.847 q 48.533 120.779 75.878 146.633 q 103.224 172.487 144.932 172.487 q 187.64 172.487 214.184 146.633 q 240.728 120.779 240.728 82.847 q 240.728 45.915 214.184 19.164 q 187.64 -7.586 144.932 -7.586"},"\"":{"ha":437.0,"x_min":0,"x_max":437.0,"o":"m 59.068 415.688 l 48.895 700 l 181.572 700 l 170.796 415.688 m 265.105 415.688 l 254.932 700 l 387.609 700 l 376.832 415.688"},"#":{"ha":720.0,"x_min":0,"x_max":720.0,"o":"m 130.878 0 l 217.878 700 l 330.209 700 l 243.209 0 m 20.241 159.929 l 20.241 268.898 l 666.45 268.898 l 666.45 159.929 m 390.482 0 l 476.878 700 l 589.209 700 l 502.813 0 m 53.637 431.102 l 53.637 540.071 l 699.243 540.071 l 699.847 431.102"},"$":{"ha":638.0,"x_min":0,"x_max":638.0,"o":"m 313.173 -11.776 q 229.397 -11.776 152.224 10.637 q 75.051 33.051 28.085 68.671 l 82.966 191.192 q 127.535 159.175 189.337 138.658 q 251.139 118.141 313.966 118.141 q 362.448 118.141 391.904 127.77 q 421.36 137.399 435.187 154.347 q 449.014 171.294 449.014 192.949 q 449.014 221 426.808 237.732 q 404.601 254.465 368.592 264.982 q 332.584 275.499 289.17 284.904 q 245.757 294.309 202.145 308.007 q 158.533 321.706 122.524 343.8 q 86.516 365.895 64.309 402.188 q 42.102 438.482 42.102 494.482 q 42.102 554.051 74.378 603.327 q 106.654 652.603 172.215 682.19 q 237.776 711.776 337.329 711.776 q 402.898 711.776 467.071 696.173 q 531.243 680.569 580.209 650.173 l 529.725 527.445 q 481.346 555.255 431.94 568.557 q 382.535 581.859 335.932 581.859 q 288.657 581.859 259.003 571.031 q 229.348 560.204 216.021 542.36 q 202.694 524.516 202.694 502.258 q 202.694 474.603 224.9 458.069 q 247.107 441.535 283.116 431.518 q 319.124 421.501 362.736 411.993 q 406.348 402.484 449.762 389.088 q 493.175 375.691 529.184 353.898 q 565.192 332.105 587.399 296.01 q 609.606 259.915 609.606 204.915 q 609.606 146.346 577.028 97.069 q 544.45 47.793 478.786 18.009 q 413.122 -11.776 313.173 -11.776 m 274.861 -120 l 274.861 820 l 374.83 820 l 374.83 -120"},"%":{"ha":877.0,"x_min":0,"x_max":877.0,"o":"m 139.827 0 l 617.827 700 l 737.348 700 l 259.348 0 m 200.793 322.414 q 150.207 322.414 110.922 345.819 q 71.637 369.224 49.551 412.62 q 27.465 456.017 27.465 515 q 27.465 573.983 49.551 617.181 q 71.637 660.38 110.922 683.983 q 150.207 707.586 200.793 707.586 q 251.983 707.586 290.966 683.983 q 329.949 660.38 352.035 617.483 q 374.122 574.586 374.122 515 q 374.122 456.017 352.035 412.62 q 329.949 369.224 290.966 345.819 q 251.983 322.414 200.793 322.414 m 200.793 403.864 q 234.085 403.864 253.921 431.415 q 273.757 458.966 273.757 515 q 273.757 571.034 253.921 598.585 q 234.085 626.136 200.793 626.136 q 168.501 626.136 148.166 598.283 q 127.83 570.431 127.83 515 q 127.83 459.569 148.166 431.717 q 168.501 403.864 200.793 403.864 m 676.382 -7.586 q 625.796 -7.586 586.511 15.819 q 547.226 39.224 525.14 82.62 q 503.054 126.017 503.054 185 q 503.054 243.983 525.14 287.181 q 547.226 330.38 586.511 353.983 q 625.796 377.586 676.382 377.586 q 727.572 377.586 766.555 353.983 q 805.538 330.38 827.624 287.181 q 849.711 243.983 849.711 185 q 849.711 126.017 827.624 82.62 q 805.538 39.224 766.555 15.819 q 727.572 -7.586 676.382 -7.586 m 676.382 73.864 q 709.071 73.864 729.208 101.717 q 749.346 129.569 749.346 185 q 749.346 240.431 729.208 268.283 q 709.071 296.136 676.382 296.136 q 644.09 296.136 623.755 268.585 q 603.419 241.034 603.419 185 q 603.419 128.966 623.755 101.415 q 644.09 73.864 676.382 73.864"},"&":{"ha":728.0,"x_min":0,"x_max":728.0,"o":"m 621.173 -11.793 l 214.068 366.085 q 179.465 397.706 158.37 425.904 q 137.275 454.102 127.482 481.292 q 117.688 508.482 117.688 536.878 q 117.688 588.051 144.663 626.931 q 171.637 665.81 220.897 687.397 q 270.156 708.983 335.898 708.983 q 396.847 708.983 441.606 689.595 q 486.365 670.207 511.443 634.129 q 536.521 598.051 536.521 548.275 q 536.521 504.499 514.736 467.912 q 492.952 431.326 446.374 399.326 q 399.796 367.326 325.209 334.102 q 274.348 310.654 244.521 289.224 q 214.694 267.793 201.883 245.768 q 189.073 223.742 189.073 196.915 q 189.073 171.864 204.4 152.132 q 219.728 132.399 247.675 121.382 q 275.623 110.365 313.881 110.365 q 375.122 110.365 425.94 138.865 q 476.759 167.365 512.466 223.477 q 548.173 279.589 562.983 360.623 l 688.47 321.708 q 667.28 219.915 613.116 145.044 q 558.952 70.173 479.804 29.198 q 400.657 -11.776 302.915 -11.776 q 226.156 -11.776 165.888 12.914 q 105.62 37.603 70.939 80.888 q 36.258 124.173 36.258 179.759 q 36.258 232.329 59.344 273.812 q 82.431 315.294 132.009 351.398 q 181.586 387.501 259.363 422.725 q 315.397 448.966 347.215 469.19 q 379.034 489.414 392.241 507.534 q 405.448 525.654 405.448 545.085 q 405.448 570.74 387.707 586.774 q 369.966 602.808 336.294 602.808 q 300.02 602.808 279.977 584.972 q 259.935 567.136 259.935 539.275 q 259.935 524.051 266.038 509.732 q 272.141 495.414 289.046 476.595 q 305.952 457.776 336.762 428.552 l 705.969 86.589"},"'":{"ha":230.0,"x_min":0,"x_max":230.0,"o":"m 59.068 415.688 l 48.895 700 l 181.572 700 l 170.796 415.688"},"(":{"ha":357.0,"x_min":0,"x_max":357.0,"o":"m 198.102 -194 q 137.723 -103.397 105.334 16.5 q 72.946 136.397 72.946 274 q 72.946 411.603 105.334 532.103 q 137.723 652.603 198.102 742 l 347.124 742 q 283.745 629.241 254.753 514.836 q 225.762 400.431 225.762 274 q 225.762 147.569 254.753 33.164 q 283.745 -81.241 347.124 -194"},")":{"ha":358.0,"x_min":0,"x_max":358.0,"o":"m 10.343 -194 q 74.723 -81.241 103.516 33.164 q 132.309 147.569 132.309 274 q 132.309 400.431 103.516 514.836 q 74.723 629.241 10.343 742 l 159.365 742 q 220.745 652.603 252.935 532.103 q 285.124 411.603 285.124 274 q 285.124 136.397 252.935 16.5 q 220.745 -103.397 159.365 -194"},"*":{"ha":434.0,"x_min":0,"x_max":434.0,"o":"m 169.603 346.74 l 171.397 485.601 l 185.38 477.411 l 61.329 403.394 l 13.241 485.224 l 146.068 557.448 l 146.068 531.292 l 13.241 603.516 l 61.329 685.949 l 185.38 611.329 l 171.397 603.139 l 169.603 742 l 263.779 742 l 261.986 603.139 l 248.003 611.329 l 372.054 685.949 l 420.538 603.516 l 288.314 531.292 l 288.314 557.448 l 420.538 485.224 l 372.054 403.394 l 248.003 477.411 l 261.986 485.601 l 263.779 346.74"},"+":{"ha":599.0,"x_min":0,"x_max":599.0,"o":"m 235.085 118.878 l 235.085 581.122 l 364.399 581.122 l 364.399 118.878 m 61.637 289.136 l 61.637 410.864 l 537.847 410.864 l 537.847 289.136"},",":{"ha":262.0,"x_min":0,"x_max":262.0,"o":"m 44.654 -153.966 l 110.552 86.003 l 132.691 -4.397 q 90.38 -4.397 62.732 20.957 q 35.085 46.312 35.085 89.83 q 35.085 133.745 62.931 160.099 q 90.776 186.453 132.088 186.453 q 174.003 186.453 201.245 159.797 q 228.487 133.141 228.487 89.83 q 228.487 77.45 226.289 64.769 q 224.09 52.088 218.504 34.717 q 212.918 17.346 200.952 -10.397 l 143.623 -153.966"},"-":{"ha":386.0,"x_min":0,"x_max":386.0,"o":"m 51.637 219.085 l 51.637 343.83 l 334.742 343.83 l 334.742 219.085"},".":{"ha":262.0,"x_min":0,"x_max":262.0,"o":"m 131.484 -7.586 q 90.569 -7.586 62.224 19.863 q 33.878 47.312 33.878 89.83 q 33.878 133.348 62.224 159.9 q 90.569 186.453 131.484 186.453 q 171.796 186.453 200.141 159.9 q 228.487 133.348 228.487 89.83 q 228.487 47.312 200.141 19.863 q 171.796 -7.586 131.484 -7.586"},"/":{"ha":392.0,"x_min":0,"x_max":392.0,"o":"m -33.363 -100 l 296.637 842 l 435.694 842 l 105.694 -100"},"0":{"ha":679.0,"x_min":0,"x_max":679.0,"o":"m 339.363 -11.776 q 253 -11.776 185.12 30.62 q 117.241 73.017 78.249 153.81 q 39.258 234.603 39.258 350 q 39.258 465.397 78.249 546.19 q 117.241 626.983 185.12 669.38 q 253 711.776 339.363 711.776 q 425.725 711.776 493.605 669.38 q 561.484 626.983 600.476 546.19 q 639.467 465.397 639.467 350 q 639.467 234.603 600.476 153.81 q 561.484 73.017 493.605 30.62 q 425.725 -11.776 339.363 -11.776 m 339.363 124.728 q 379.861 124.728 410.533 147.969 q 441.204 171.209 458.643 221.071 q 476.082 270.932 476.082 350 q 476.082 429.465 458.643 479.128 q 441.204 528.791 410.533 552.031 q 379.861 575.272 339.363 575.272 q 299.467 575.272 268.494 552.031 q 237.521 528.791 220.082 479.128 q 202.643 429.465 202.643 350 q 202.643 270.932 220.082 221.071 q 237.521 171.209 268.494 147.969 q 299.467 124.728 339.363 124.728"},"1":{"ha":392.0,"x_min":0,"x_max":392.0,"o":"m 146.723 0 l 146.723 640.326 l 216.949 569.669 l 6.81 569.669 l 6.81 700 l 309.107 700 l 309.107 0"},"2":{"ha":590.0,"x_min":0,"x_max":590.0,"o":"m 32.827 0 l 32.827 104.572 l 303.326 359.691 q 334.567 389.329 349.989 412.061 q 365.411 434.793 370.618 453.724 q 375.825 472.654 375.825 489.482 q 375.825 530.567 347.662 553.514 q 319.499 576.462 264.38 576.462 q 219.501 576.462 182.149 559.057 q 144.796 541.652 119.141 506.031 l 1.482 581.757 q 41.292 641.688 113.068 676.732 q 184.844 711.776 279.139 711.776 q 357.312 711.776 415.881 686.586 q 474.45 661.397 506.83 615.112 q 539.209 568.827 539.209 505.448 q 539.209 471.448 530.408 437.749 q 521.606 404.051 496.209 366.853 q 470.813 329.654 421.623 283.654 l 197.832 73.243 l 167.47 132.314 l 562.45 132.314 l 562.45 0"},"3":{"ha":592.0,"x_min":0,"x_max":592.0,"o":"m 265.776 -11.776 q 192.569 -11.776 120.983 7.844 q 49.397 27.465 -1.173 63.292 l 61.932 187.209 q 102.105 157.589 154.923 140.563 q 207.742 123.538 262 123.538 q 322.516 123.538 357.67 147.597 q 392.825 171.657 392.825 213.742 q 392.825 253.637 361.757 276.999 q 330.688 300.36 261.552 300.36 l 188.465 300.36 l 188.465 406.742 l 382.74 628.153 l 401.326 569.669 l 33.62 569.669 l 33.62 700 l 524.243 700 l 524.243 595.428 l 329.969 374.017 l 248.346 421.122 l 294.657 421.122 q 424.243 421.122 490.226 363.027 q 556.209 304.932 556.209 214.346 q 556.209 154.949 525.123 103.268 q 494.037 51.586 429.872 19.905 q 365.708 -11.776 265.776 -11.776"},"4":{"ha":689.0,"x_min":0,"x_max":689.0,"o":"m 30.844 147.153 l 30.844 255.518 l 361.031 700 l 531.226 700 l 208.419 255.518 l 129.192 279.467 l 680.243 279.467 l 680.243 147.153 m 408.326 0 l 408.326 147.153 l 412.912 279.467 l 412.912 410 l 566.124 410 l 566.124 0"},"5":{"ha":595.0,"x_min":0,"x_max":595.0,"o":"m 277.38 -11.776 q 204.173 -11.776 132.586 7.844 q 61 27.465 10.431 63.292 l 73.535 187.209 q 113.708 157.589 166.329 140.563 q 218.949 123.538 273.207 123.538 q 333.723 123.538 369.075 147.796 q 404.428 172.054 404.428 214.742 q 404.428 242.414 389.997 262.965 q 375.567 283.516 340.094 294.645 q 304.62 305.774 241.105 305.774 l 62.241 305.774 l 97.844 700 l 525.433 700 l 525.433 569.669 l 156.105 569.669 l 240.107 643.516 l 214.883 362.861 l 130.881 436.708 l 278.796 436.708 q 382.796 436.708 446.201 408.217 q 509.606 379.725 538.709 330.734 q 567.813 281.742 567.813 219.742 q 567.813 158.346 536.726 105.466 q 505.64 52.586 441.476 20.405 q 377.312 -11.776 277.38 -11.776"},"6":{"ha":637.0,"x_min":0,"x_max":637.0,"o":"m 352.329 -11.776 q 255.949 -11.776 185.578 27.931 q 115.207 67.637 77.232 144.741 q 39.258 221.844 39.258 334.637 q 39.258 455.827 84.637 539.914 q 130.017 624 210.578 667.888 q 291.139 711.776 396.484 711.776 q 451.847 711.776 503.011 699.69 q 554.175 687.603 590.555 664.017 l 530.898 544.876 q 501.708 565.065 468.7 572.565 q 435.691 580.065 399.674 580.065 q 309.365 580.065 256.004 524.894 q 202.643 469.723 202.643 362.173 q 202.643 344.156 203.548 322.113 q 204.453 300.071 208.677 277.83 l 164.331 319.847 q 182.521 358.674 212.84 385.191 q 243.158 411.708 284.684 425.113 q 326.209 438.518 376.416 438.518 q 444.037 438.518 498.235 411.622 q 552.433 384.725 584.726 335.932 q 617.02 287.139 617.02 220.552 q 617.02 149.776 581.735 97.491 q 546.45 45.207 486.476 16.715 q 426.501 -11.776 352.329 -11.776 m 342.966 108.986 q 377.241 108.986 403.697 121.709 q 430.153 134.433 444.885 157.976 q 459.618 181.518 459.618 213.173 q 459.618 261.258 427.248 289.507 q 394.878 317.757 340.552 317.757 q 305.071 317.757 278.209 304.231 q 251.348 290.706 235.814 267.163 q 220.28 243.62 220.28 212.569 q 220.28 183.329 234.909 159.786 q 249.538 136.243 277.003 122.615 q 304.467 108.986 342.966 108.986"},"7":{"ha":620.0,"x_min":0,"x_max":620.0,"o":"m 151.326 0 l 432.825 638.326 l 475.309 567.686 l 98.054 567.686 l 169.538 643.912 l 169.538 453.618 l 25.827 453.618 l 25.827 700 l 586.813 700 l 586.813 595.428 l 326.66 0"},"8":{"ha":660.0,"x_min":0,"x_max":660.0,"o":"m 329.346 -11.776 q 240.569 -11.776 174.595 14.517 q 108.62 40.81 71.939 89.198 q 35.258 137.586 35.258 203.173 q 35.258 268.156 71.431 313.44 q 107.603 358.725 173.776 382.518 q 239.949 406.312 329.346 406.312 q 418.742 406.312 485.217 382.518 q 551.691 358.725 588.166 313.139 q 624.64 267.552 624.64 203.173 q 624.64 137.586 587.657 89.198 q 550.674 40.81 484.398 14.517 q 418.122 -11.776 329.346 -11.776 m 329.346 107.399 q 389.895 107.399 425.575 134.442 q 461.255 161.484 461.255 208.156 q 461.255 254.827 425.575 281.568 q 389.895 308.309 329.346 308.309 q 268.796 308.309 233.719 281.568 q 198.643 254.827 198.643 208.156 q 198.643 161.484 233.719 134.442 q 268.796 107.399 329.346 107.399 m 329.346 418.898 q 379.895 418.898 409.472 442.139 q 439.048 465.38 439.048 505.448 q 439.048 547.119 408.567 569.86 q 378.085 592.601 329.346 592.601 q 280.606 592.601 250.728 569.86 q 220.849 547.119 220.849 505.448 q 220.849 465.38 250.124 442.139 q 279.399 418.898 329.346 418.898 m 329.346 323.688 q 247.949 323.688 187.578 345.982 q 127.207 368.275 93.732 410.663 q 60.258 453.051 60.258 512.431 q 60.258 574.017 94.241 618.405 q 128.224 662.793 189 687.285 q 249.776 711.776 329.346 711.776 q 409.518 711.776 470.294 687.285 q 531.071 662.793 565.355 618.405 q 599.64 574.017 599.64 512.431 q 599.64 453.051 566.166 410.663 q 532.691 368.275 471.915 345.982 q 411.139 323.688 329.346 323.688"},"9":{"ha":637.0,"x_min":0,"x_max":637.0,"o":"m 240.983 -11.776 q 185.62 -11.776 134.758 0.31 q 83.895 12.397 46.912 35.983 l 106.569 155.124 q 135.759 134.935 169.069 127.435 q 202.38 119.935 237.793 119.935 q 328.102 119.935 381.463 175.106 q 434.825 230.277 434.825 337.827 q 434.825 355.844 433.92 377.887 q 433.014 399.929 428.791 422.17 l 473.136 380.153 q 455.946 341.326 425.128 314.809 q 394.309 288.292 353.085 274.887 q 311.861 261.482 261.051 261.482 q 194.034 261.482 139.534 288.378 q 85.034 315.275 52.741 364.266 q 20.448 413.258 20.448 479.448 q 20.448 550.827 55.732 602.81 q 91.017 654.793 151.293 683.285 q 211.569 711.776 285.139 711.776 q 382.122 711.776 452.191 672.069 q 522.26 632.363 560.235 555.457 q 598.209 478.552 598.209 365.363 q 598.209 244.173 552.83 160.086 q 507.45 76 427.389 32.112 q 347.329 -11.776 240.983 -11.776 m 296.915 382.243 q 332.397 382.243 359.758 395.769 q 387.119 409.294 402.153 433.139 q 417.187 456.983 417.187 487.431 q 417.187 517.275 402.757 540.516 q 388.326 563.757 360.965 577.385 q 333.603 591.014 294.501 591.014 q 260.226 591.014 233.969 578.291 q 207.711 565.567 192.78 542.326 q 177.849 519.085 177.849 486.827 q 177.849 438.742 210.418 410.493 q 242.986 382.243 296.915 382.243"},":":{"ha":262.0,"x_min":0,"x_max":262.0,"o":"m 131.484 351.496 q 90.569 351.496 62.224 378.945 q 33.878 406.394 33.878 448.912 q 33.878 492.431 62.224 518.983 q 90.569 545.535 131.484 545.535 q 171.796 545.535 200.141 518.983 q 228.487 492.431 228.487 448.912 q 228.487 406.394 200.141 378.945 q 171.796 351.496 131.484 351.496 m 131.484 -7.586 q 90.569 -7.586 62.224 19.863 q 33.878 47.312 33.878 89.83 q 33.878 133.348 62.224 159.9 q 90.569 186.453 131.484 186.453 q 171.796 186.453 200.141 159.9 q 228.487 133.348 228.487 89.83 q 228.487 47.312 200.141 19.863 q 171.796 -7.586 131.484 -7.586"},";":{"ha":262.0,"x_min":0,"x_max":262.0,"o":"m 131.484 351.496 q 90.569 351.496 62.224 378.945 q 33.878 406.394 33.878 448.912 q 33.878 492.431 62.224 518.983 q 90.569 545.535 131.484 545.535 q 171.796 545.535 200.141 518.983 q 228.487 492.431 228.487 448.912 q 228.487 406.394 200.141 378.945 q 171.796 351.496 131.484 351.496 m 44.654 -153.966 l 110.552 86.003 l 132.691 -4.397 q 90.38 -4.397 62.732 20.957 q 35.085 46.312 35.085 89.83 q 35.085 133.745 62.931 160.099 q 90.776 186.453 132.088 186.453 q 174.003 186.453 201.245 159.797 q 228.487 133.141 228.487 89.83 q 228.487 77.45 226.289 64.769 q 224.09 52.088 218.504 34.717 q 212.918 17.346 200.952 -10.397 l 143.623 -153.966"},"<":{"ha":599.0,"x_min":0,"x_max":599.0,"o":"m 537.847 104.36 l 61.637 285.136 l 61.637 414.864 l 537.847 595.64 l 537.847 471.499 l 108.742 314.878 l 108.742 385.122 l 537.847 228.501"},"=":{"ha":599.0,"x_min":0,"x_max":599.0,"o":"m 61.637 413.102 l 61.637 534.83 l 537.847 534.83 l 537.847 413.102 m 61.637 165.17 l 61.637 286.898 l 537.847 286.898 l 537.847 165.17"},">":{"ha":599.0,"x_min":0,"x_max":599.0,"o":"m 61.637 104.36 l 61.637 228.501 l 491.346 385.122 l 491.346 314.878 l 61.637 471.499 l 61.637 595.64 l 537.847 414.864 l 537.847 285.136"},"?":{"ha":589.0,"x_min":0,"x_max":589.0,"o":"m 217.258 243.26 q 217.258 278.088 228.568 304.803 q 239.878 331.518 257.395 352.63 q 274.912 373.742 295.033 391.656 q 315.153 409.569 332.67 426.285 q 350.187 443 361.497 461.224 q 372.808 479.448 372.808 501.085 q 372.808 537.36 343.351 559.014 q 313.895 580.669 265.38 580.669 q 217.691 580.669 180.942 561.462 q 144.192 542.255 120.348 506.635 l -0.932 577.533 q 39.482 639.275 110.146 675.526 q 180.81 711.776 282.105 711.776 q 357.484 711.776 414.459 690.276 q 471.433 668.776 503.813 627.785 q 536.192 586.793 536.192 527.414 q 536.192 487.603 524.089 458 q 511.986 428.397 492.882 405.991 q 473.779 383.586 452.27 364.681 q 430.762 345.776 411.658 327.863 q 392.555 309.949 380.452 289.725 q 368.348 269.501 368.348 243.26 m 293.105 -7.586 q 251.397 -7.586 224.353 19.164 q 197.309 45.915 197.309 82.847 q 197.309 120.779 224.353 146.633 q 251.397 172.487 293.105 172.487 q 335.813 172.487 362.357 146.633 q 388.9 120.779 388.9 82.847 q 388.9 45.915 362.357 19.164 q 335.813 -7.586 293.105 -7.586"},"@":{"ha":1035.0,"x_min":0,"x_max":1035.0,"o":"m 519.38 -205.776 q 411.207 -205.776 322.922 -171.38 q 234.637 -136.983 171.146 -74.888 q 107.654 -12.793 73.456 71.103 q 39.258 155 39.258 253.603 q 39.258 351.81 73.456 435.009 q 107.654 518.207 171.646 580 q 235.637 641.793 324.922 676.086 q 414.207 710.38 523.38 710.38 q 628.363 710.38 715.052 677.785 q 801.742 645.19 864.639 586.293 q 927.535 527.397 961.734 447.69 q 995.932 367.983 995.932 274.363 q 995.932 185.397 970.268 122.207 q 944.603 59.017 898.646 25.914 q 852.688 -7.19 791.102 -7.19 q 722.98 -7.19 682.825 32.871 q 642.669 72.932 642.669 149.847 l 642.669 195.586 l 645.686 249.827 l 636.686 395.037 l 636.686 491.068 l 772.569 491.068 l 772.569 167.054 q 772.569 131.226 786.785 117.115 q 801 103.003 820.62 103.003 q 843.671 103.003 860.3 120.838 q 876.929 138.674 885.74 176.415 q 894.55 214.156 894.55 271.966 q 894.55 348.414 868.136 411.249 q 841.723 474.085 792.197 519.809 q 742.671 565.533 674.543 590.145 q 606.414 614.757 523.38 614.757 q 439.742 614.757 371.01 587.946 q 302.277 561.136 253.157 512.619 q 204.037 464.102 177.425 397.973 q 150.813 331.844 150.813 253.603 q 150.813 173.966 176.925 107.337 q 203.037 40.708 251.657 -7.809 q 300.277 -56.326 368.208 -82.938 q 436.139 -109.55 519.38 -109.55 q 566.966 -109.55 617.768 -99.05 q 668.569 -88.55 715.949 -65.55 l 747.691 -158.38 q 702.088 -180.983 640.312 -193.38 q 578.535 -205.776 519.38 -205.776 m 482.912 -7.19 q 418.654 -7.19 366.232 24.62 q 313.81 56.431 282.707 113.637 q 251.603 170.844 251.603 246.034 q 251.603 321.224 282.509 377.931 q 313.414 434.637 365.836 466.146 q 418.258 497.654 482.912 497.654 q 549.326 497.654 596.265 467.861 q 643.204 438.068 668.238 381.965 q 693.272 325.861 693.272 246.034 q 693.272 166.603 669.135 109.802 q 644.997 53 598.558 22.905 q 552.119 -7.19 482.912 -7.19 m 514.38 108.175 q 550.465 108.175 578.533 124.408 q 606.601 140.64 623.04 171.7 q 639.479 202.759 639.479 246.034 q 639.479 289.912 623.04 320.17 q 606.601 350.428 578.533 366.359 q 550.465 382.289 514.38 382.289 q 478.088 382.289 449.821 366.057 q 421.555 349.825 405.918 319.265 q 390.28 288.706 390.28 246.034 q 390.28 203.363 405.918 172.605 q 421.555 141.847 449.821 125.011 q 478.088 108.175 514.38 108.175"},"A":{"ha":766.0,"x_min":0,"x_max":766.0,"o":"m -9.346 0 l 302.688 700 l 462.883 700 l 775.521 0 l 606.343 0 l 349.569 617.567 l 413.813 617.567 l 157.039 0 m 147.312 149.757 l 189.813 272.691 l 550.431 272.691 l 593.535 149.757"},"B":{"ha":765.0,"x_min":0,"x_max":765.0,"o":"m 82.946 0 l 82.946 700 l 424.966 700 q 556.691 700 623.579 650.009 q 690.467 600.017 690.467 517.603 q 690.467 462.793 663.381 422.5 q 636.294 382.207 589.044 360.017 q 541.793 337.827 480.912 337.827 l 499.706 379.156 q 566.017 379.156 616.768 357.363 q 667.518 335.569 696.398 293.578 q 725.277 251.586 725.277 191.19 q 725.277 100.793 654.303 50.397 q 583.329 0 444.966 0 m 243.745 121.555 l 433.414 121.555 q 495.946 121.555 528.721 142.494 q 561.496 163.433 561.496 207.932 q 561.496 252.431 528.721 273.671 q 495.946 294.912 433.414 294.912 l 231.969 294.912 l 231.969 412.898 l 405.034 412.898 q 464.343 412.898 495.514 433.639 q 526.686 454.38 526.686 495.671 q 526.686 537.36 495.514 557.903 q 464.343 578.445 405.034 578.445 l 243.745 578.445"},"C":{"ha":724.0,"x_min":0,"x_max":724.0,"o":"m 418.397 -11.776 q 336.81 -11.776 267.422 14.724 q 198.034 41.224 147.043 89.922 q 96.051 138.62 67.654 204.715 q 39.258 270.81 39.258 350 q 39.258 429.19 67.654 495.285 q 96.051 561.38 147.344 610.078 q 198.637 658.776 268.026 685.276 q 337.414 711.776 419 711.776 q 509.932 711.776 583.7 680.302 q 657.467 648.827 707.054 588.068 l 603.309 491.876 q 567.482 532.686 523.344 553.582 q 479.207 574.479 426.776 574.479 q 377.708 574.479 336.847 558.255 q 295.986 542.031 266.038 512.092 q 236.09 482.153 219.565 440.904 q 203.039 399.654 203.039 350 q 203.039 300.346 219.565 259.096 q 236.09 217.847 266.038 187.908 q 295.986 157.969 336.847 141.745 q 377.708 125.521 426.776 125.521 q 479.207 125.521 523.344 146.418 q 567.482 167.314 603.309 208.728 l 707.054 112.535 q 657.467 52.173 583.7 20.198 q 509.932 -11.776 418.397 -11.776"},"D":{"ha":826.0,"x_min":0,"x_max":826.0,"o":"m 82.946 0 l 82.946 700 l 400.793 700 q 515.38 700 602.268 656.595 q 689.156 613.19 737.949 534.888 q 786.742 456.586 786.742 350 q 786.742 243.81 737.949 165.31 q 689.156 86.81 602.268 43.405 q 515.38 0 400.793 0 m 245.331 132.711 l 393.207 132.711 q 463.119 132.711 514.497 159.253 q 565.876 185.796 594.418 234.76 q 622.961 283.725 622.961 350 q 622.961 417.275 594.418 465.74 q 565.876 514.204 514.497 540.747 q 463.119 567.289 393.207 567.289 l 245.331 567.289"},"E":{"ha":671.0,"x_min":0,"x_max":671.0,"o":"m 82.946 0 l 82.946 700 l 611.518 700 l 611.518 569.669 l 243.745 569.669 l 243.745 130.331 l 625.122 130.331 l 625.122 0 m 231.969 292.326 l 231.969 418.277 l 569.312 418.277 l 569.312 292.326"},"F":{"ha":639.0,"x_min":0,"x_max":639.0,"o":"m 82.946 0 l 82.946 700 l 611.518 700 l 611.518 569.669 l 245.331 569.669 l 245.331 0 m 232.952 254.774 l 232.952 385.105 l 569.312 385.105 l 569.312 254.774"},"G":{"ha":771.0,"x_min":0,"x_max":771.0,"o":"m 420.603 -11.776 q 338.017 -11.776 268.327 14.724 q 198.637 41.224 147.344 89.922 q 96.051 138.62 67.654 204.715 q 39.258 270.81 39.258 350 q 39.258 429.19 67.654 495.285 q 96.051 561.38 147.844 610.078 q 199.637 658.776 269.724 685.276 q 339.81 711.776 423.793 711.776 q 516.932 711.776 591.493 681 q 666.054 650.224 716.64 591.258 l 613.309 495.065 q 574.878 535.479 530.043 554.979 q 485.207 574.479 431.569 574.479 q 381.105 574.479 339.045 558.255 q 296.986 542.031 266.538 512.092 q 236.09 482.153 219.565 441.102 q 203.039 400.051 203.039 350 q 203.039 301.346 219.565 260.096 q 236.09 218.847 266.538 188.606 q 296.986 158.365 338.347 141.943 q 379.708 125.521 429.776 125.521 q 478.224 125.521 523.465 141.133 q 568.706 156.745 612.309 193.969 l 703.881 77.224 q 646.518 33.62 571.156 10.922 q 495.793 -11.776 420.603 -11.776 m 703.881 77.224 l 556.204 98.173 l 556.204 361.156 l 703.881 361.156"},"H":{"ha":808.0,"x_min":0,"x_max":808.0,"o":"m 562.893 0 l 562.893 700 l 725.277 700 l 725.277 0 m 82.946 0 l 82.946 700 l 245.331 700 l 245.331 0 m 232.952 286.963 l 232.952 423.64 l 574.669 423.64 l 574.669 286.963"},"I":{"ha":328.0,"x_min":0,"x_max":328.0,"o":"m 82.946 0 l 82.946 700 l 245.331 700 l 245.331 0"},"J":{"ha":541.0,"x_min":0,"x_max":541.0,"o":"m 212.277 -11.776 q 141.139 -11.776 81.776 14.422 q 22.414 40.62 -16.156 90.414 l 74.037 197.572 q 102.64 159.952 134.769 140.641 q 166.898 121.331 204.346 121.331 q 303.275 121.331 303.275 237.294 l 303.275 569.669 l 57.431 569.669 l 57.431 700 l 464.47 700 l 464.47 246.467 q 464.47 116.346 400.124 52.285 q 335.779 -11.776 212.277 -11.776"},"K":{"ha":740.0,"x_min":0,"x_max":740.0,"o":"m 227.572 160.258 l 218.796 346.849 l 553.997 700 l 734.365 700 l 432.331 375.207 l 341.759 279.221 m 82.946 0 l 82.946 700 l 243.745 700 l 243.745 0 m 562.255 0 l 312.81 304.584 l 419.348 420.122 l 751.382 0"},"L":{"ha":604.0,"x_min":0,"x_max":604.0,"o":"m 82.946 0 l 82.946 700 l 245.331 700 l 245.331 132.314 l 595.725 132.314 l 595.725 0"},"M":{"ha":955.0,"x_min":0,"x_max":955.0,"o":"m 82.946 0 l 82.946 700 l 216.606 700 l 514.708 205.589 l 444.085 205.589 l 736.601 700 l 870.26 700 l 871.657 0 l 720.014 0 l 718.618 466.511 l 747.187 466.511 l 512.915 74.465 l 440.292 74.465 l 201.037 466.511 l 234.589 466.511 l 234.589 0"},"N":{"ha":808.0,"x_min":0,"x_max":808.0,"o":"m 82.946 0 l 82.946 700 l 216.606 700 l 629.929 195.558 l 565.272 195.558 l 565.272 700 l 725.277 700 l 725.277 0 l 591.618 0 l 178.294 504.442 l 242.952 504.442 l 242.952 0"},"O":{"ha":844.0,"x_min":0,"x_max":844.0,"o":"m 422.519 -11.776 q 339.866 -11.776 269.648 15.224 q 199.431 42.224 147.939 91.12 q 96.448 140.017 67.853 205.953 q 39.258 271.888 39.258 350.187 q 39.258 428.486 67.854 494.149 q 96.45 559.813 148.017 608.882 q 199.584 657.95 269.565 684.863 q 339.546 711.776 422.19 711.776 q 505.173 711.776 574.811 684.971 q 644.449 658.165 695.887 609.291 q 747.326 560.416 775.922 494.544 q 804.518 428.673 804.518 350.127 q 804.518 271.581 775.923 205.497 q 747.329 139.414 695.889 90.624 q 644.449 41.835 574.811 15.029 q 505.173 -11.776 422.519 -11.776 m 422.172 125.521 q 469.068 125.521 508.776 141.835 q 548.483 158.148 578.085 188.101 q 607.686 218.054 624.211 259.183 q 640.737 300.313 640.737 350.182 q 640.737 400.051 624.279 440.947 q 607.821 481.843 578.191 511.829 q 548.561 541.815 508.832 558.147 q 469.104 574.479 422.208 574.479 q 375.312 574.479 335.425 558.127 q 295.538 541.776 265.804 511.754 q 236.07 481.732 219.555 440.789 q 203.039 399.846 203.039 350.199 q 203.039 300.552 219.527 259.423 q 236.014 218.293 265.698 188.131 q 295.382 157.969 335.329 141.745 q 375.276 125.521 422.172 125.521"},"P":{"ha":732.0,"x_min":0,"x_max":732.0,"o":"m 82.946 0 l 82.946 700 l 385.552 700 q 479.932 700 548.113 669.509 q 616.294 639.017 653.183 581.931 q 690.071 524.844 690.071 446.258 q 690.071 368.275 653.183 311.387 q 616.294 254.499 548.113 223.809 q 479.932 193.119 385.552 193.119 l 172.915 193.119 l 245.331 265.759 l 245.331 0 m 245.331 248.207 l 172.915 325.037 l 377.19 325.037 q 451.533 325.037 488.911 356.993 q 526.289 388.949 526.289 446.258 q 526.289 504.17 488.911 536.126 q 451.533 568.082 377.19 568.082 l 172.915 568.082 l 245.331 644.912"},"Q":{"ha":844.0,"x_min":0,"x_max":844.0,"o":"m 422.321 -11.776 q 339.866 -11.776 269.648 15.224 q 199.431 42.224 147.939 91.12 q 96.448 140.017 67.853 205.964 q 39.258 271.911 39.258 350 q 39.258 428.486 67.853 494.234 q 96.448 559.983 148.016 608.967 q 199.584 657.95 269.594 684.863 q 339.603 711.776 422.19 711.776 q 505.173 711.776 574.811 684.971 q 644.449 658.165 695.889 609.376 q 747.329 560.586 775.923 494.629 q 804.518 428.673 804.518 349.94 q 804.518 271.603 775.923 205.509 q 747.329 139.414 695.889 90.624 q 644.449 41.835 574.811 15.029 q 505.173 -11.776 422.321 -11.776 m 651.19 -160.708 q 610.034 -160.708 573.465 -151.812 q 536.895 -142.915 501.317 -122.725 q 465.74 -102.535 427.567 -68.863 q 389.394 -35.19 343.635 14.569 l 514.02 57.674 q 541.037 20.674 563.769 -1.136 q 586.501 -22.946 608.432 -32.153 q 630.363 -41.36 654.359 -41.36 q 718.448 -41.36 767.671 11.484 l 840.105 -75.329 q 768.725 -160.708 651.19 -160.708 m 422.19 125.521 q 469.068 125.521 508.731 141.745 q 548.394 157.969 578.078 188.138 q 607.762 218.307 624.249 259.447 q 640.737 300.586 640.737 350 q 640.737 400.051 624.249 441.009 q 607.762 481.966 578.078 511.999 q 548.394 542.031 508.731 558.255 q 469.068 574.479 422.19 574.479 q 375.312 574.479 335.347 558.255 q 295.382 542.031 265.698 511.999 q 236.014 481.966 219.527 441.009 q 203.039 400.051 203.039 350 q 203.039 300.586 219.527 259.447 q 236.014 218.307 265.698 188.138 q 295.382 157.969 335.347 141.745 q 375.312 125.521 422.19 125.521"},"R":{"ha":735.0,"x_min":0,"x_max":735.0,"o":"m 82.946 0 l 82.946 700 l 381.586 700 q 528.105 700 609.088 632.319 q 690.071 564.637 690.071 446.258 q 690.071 368.275 653.183 311.887 q 616.294 255.499 548.113 225.404 q 479.932 195.309 385.552 195.309 l 172.915 195.309 l 245.331 265.759 l 245.331 0 m 528.496 0 l 352.876 254.397 l 526.243 254.397 l 703.26 0 m 245.331 248.207 l 172.915 324.433 l 377.19 324.433 q 451.533 324.433 488.911 356.691 q 526.289 388.949 526.289 446.258 q 526.289 504.17 488.911 536.126 q 451.533 568.082 377.19 568.082 l 172.915 568.082 l 245.331 644.912"},"S":{"ha":638.0,"x_min":0,"x_max":638.0,"o":"m 313.173 -11.776 q 229.397 -11.776 152.224 10.637 q 75.051 33.051 28.085 68.671 l 82.966 191.192 q 127.535 159.175 189.337 138.658 q 251.139 118.141 313.966 118.141 q 362.448 118.141 391.904 127.77 q 421.36 137.399 435.187 154.347 q 449.014 171.294 449.014 192.949 q 449.014 221 426.808 237.732 q 404.601 254.465 368.592 264.982 q 332.584 275.499 289.17 284.904 q 245.757 294.309 202.145 308.007 q 158.533 321.706 122.524 343.8 q 86.516 365.895 64.309 402.188 q 42.102 438.482 42.102 494.482 q 42.102 554.051 74.378 603.327 q 106.654 652.603 172.215 682.19 q 237.776 711.776 337.329 711.776 q 402.898 711.776 467.071 696.173 q 531.243 680.569 580.209 650.173 l 529.725 527.445 q 481.346 555.255 431.94 568.557 q 382.535 581.859 335.932 581.859 q 288.657 581.859 259.003 571.031 q 229.348 560.204 216.021 542.36 q 202.694 524.516 202.694 502.258 q 202.694 474.603 224.9 458.069 q 247.107 441.535 283.116 431.518 q 319.124 421.501 362.736 411.993 q 406.348 402.484 449.762 389.088 q 493.175 375.691 529.184 353.898 q 565.192 332.105 587.399 296.01 q 609.606 259.915 609.606 204.915 q 609.606 146.346 577.028 97.069 q 544.45 47.793 478.786 18.009 q 413.122 -11.776 313.173 -11.776"},"T":{"ha":618.0,"x_min":0,"x_max":618.0,"o":"m 227.706 0 l 227.706 567.686 l 4 567.686 l 4 700 l 613.796 700 l 613.796 567.686 l 390.09 567.686 l 390.09 0"},"U":{"ha":788.0,"x_min":0,"x_max":788.0,"o":"m 393.81 -11.776 q 244.878 -11.776 160.912 71 q 76.946 153.776 76.946 308.363 l 76.946 700 l 239.331 700 l 239.331 313.552 q 239.331 214.243 280.399 169.882 q 321.467 125.521 395.207 125.521 q 469.343 125.521 510.213 169.882 q 551.082 214.243 551.082 313.552 l 551.082 700 l 710.674 700 l 710.674 308.363 q 710.674 153.776 626.708 71 q 542.742 -11.776 393.81 -11.776"},"V":{"ha":746.0,"x_min":0,"x_max":746.0,"o":"m 293.292 0 l -9.346 700 l 166.212 700 l 429.538 80.037 l 326.81 80.037 l 594.723 700 l 755.521 700 l 453.487 0"},"W":{"ha":1163.0,"x_min":0,"x_max":1163.0,"o":"m 251.499 0 l 22.068 700 l 189.643 700 l 388.745 80.037 l 304.759 80.037 l 513.051 700 l 663.073 700 l 862.589 80.037 l 781.793 80.037 l 986.482 700 l 1141.09 700 l 911.66 0 l 738.309 0 l 560.932 544.34 l 607.209 544.34 l 425.453 0"},"X":{"ha":714.0,"x_min":0,"x_max":714.0,"o":"m 3.465 0 l 304 415.484 l 303.603 296.946 l 16.085 700 l 199.626 700 l 398.555 419.484 l 321.759 418.484 l 518.499 700 l 694.056 700 l 407.745 304.136 l 407.745 419.864 l 710.866 0 l 524.136 0 l 317.966 296.74 l 391.969 297.136 l 189.195 0"},"Y":{"ha":676.0,"x_min":0,"x_max":676.0,"o":"m 256.912 0 l 256.912 285.881 l 294.017 187.723 l -14.329 700 l 158.039 700 l 393.555 307.243 l 295.017 307.243 l 531.929 700 l 690.538 700 l 382.986 187.723 l 419.297 285.881 l 419.297 0"},"Z":{"ha":671.0,"x_min":0,"x_max":671.0,"o":"m 38.034 0 l 38.034 104.572 l 471.479 626.757 l 490.825 567.686 l 46.224 567.686 l 46.224 700 l 635.467 700 l 635.467 595.428 l 202.626 73.243 l 182.677 132.314 l 649.657 132.314 l 649.657 0"},"[":{"ha":368.0,"x_min":0,"x_max":368.0,"o":"m 82.946 -194 l 82.946 742 l 353.538 742 l 353.538 620.272 l 238.952 620.272 l 238.952 -72.272 l 353.538 -72.272 l 353.538 -194"},"\\":{"ha":392.0,"x_min":0,"x_max":392.0,"o":"m 286.637 -100 l -43.363 842 l 95.694 842 l 425.694 -100"},"]":{"ha":368.0,"x_min":0,"x_max":368.0,"o":"m 14.827 -194 l 14.827 -72.272 l 129.414 -72.272 l 129.414 620.272 l 14.827 620.272 l 14.827 742 l 285.419 742 l 285.419 -194"},"^":{"ha":600.0,"x_min":0,"x_max":600.0,"o":"m 57.119 140.81 l 237.895 559.19 l 362.796 559.19 l 542.969 140.81 l 423.051 140.81 l 266.431 518.258 l 333.657 518.258 l 177.037 140.81"},"_":{"ha":500.0,"x_min":0,"x_max":500.0,"o":"m 0 -89.83 l 0 0 l 500 0 l 500 -89.83"},"`":{"ha":600.0,"x_min":0,"x_max":600.0,"o":"m 269.482 607 l 88.17 751.312 l 256.105 751.312 l 390.518 607"},"a":{"ha":617.0,"x_min":0,"x_max":617.0,"o":"m 401.516 0 l 401.516 104.844 l 392.153 128.431 l 392.153 316.051 q 392.153 366.309 361.619 393.946 q 331.085 421.584 267.637 421.584 q 225.207 421.584 183.586 408.274 q 141.966 394.963 112.552 371.946 l 56.844 480.518 q 101.224 512.329 163.095 528.932 q 224.966 545.535 288.966 545.535 q 412.467 545.535 480.313 487.664 q 548.158 429.793 548.158 307.275 l 548.158 0 m 238.068 -7.586 q 175.292 -7.586 130.292 13.603 q 85.292 34.793 61.387 71.785 q 37.482 108.776 37.482 155.173 q 37.482 202.742 60.861 238.837 q 84.241 274.932 135.215 295.44 q 186.19 315.949 268.173 315.949 l 410.533 315.949 l 410.533 225.051 l 285.467 225.051 q 230.158 225.051 209.736 207.215 q 189.314 189.38 189.314 161.552 q 189.314 132.294 212.563 114.666 q 235.813 97.037 276.501 97.037 q 315.793 97.037 347.06 115.269 q 378.326 133.501 392.153 170.156 l 415.723 97.725 q 399.102 46.38 354.085 19.397 q 309.068 -7.586 238.068 -7.586"},"b":{"ha":690.0,"x_min":0,"x_max":690.0,"o":"m 389.657 -7.586 q 319.484 -7.586 268.355 22.112 q 217.226 51.81 190.089 113.302 q 162.952 174.793 162.952 269.173 q 162.952 363.759 191.287 424.751 q 219.623 485.742 270.95 515.639 q 322.277 545.535 389.657 545.535 q 465.881 545.535 526.484 511.535 q 587.088 477.535 622.484 415.544 q 657.881 353.552 657.881 269.173 q 657.881 184.793 622.484 122.802 q 587.088 60.81 526.484 26.612 q 465.881 -7.586 389.657 -7.586 m 72.326 0 l 72.326 742 l 228.331 742 l 228.331 429.348 l 218.331 269.776 l 220.952 110.204 l 220.952 0 m 362.81 120.141 q 401.688 120.141 432.55 137.874 q 463.411 155.606 481.747 189.459 q 500.082 223.312 500.082 269.173 q 500.082 316.034 481.747 349.188 q 463.411 382.343 432.55 400.075 q 401.688 417.808 362.81 417.808 q 323.932 417.808 293.071 400.075 q 262.209 382.343 243.874 349.188 q 225.538 316.034 225.538 269.173 q 225.538 223.312 243.874 189.459 q 262.209 155.606 293.071 137.874 q 323.932 120.141 362.81 120.141"},"c":{"ha":591.0,"x_min":0,"x_max":591.0,"o":"m 331.932 -7.586 q 245.173 -7.586 177.302 27.81 q 109.431 63.207 70.948 125.897 q 32.465 188.586 32.465 269.173 q 32.465 350.363 70.948 412.552 q 109.431 474.742 177.302 510.139 q 245.173 545.535 331.932 545.535 q 416.847 545.535 480.003 510.38 q 543.158 475.224 572.572 409.482 l 452.482 343.997 q 430.654 381.997 399.215 399.903 q 367.776 417.808 330.932 417.808 q 291.45 417.808 259.391 400.075 q 227.331 382.343 208.797 349.188 q 190.263 316.034 190.263 269.173 q 190.263 222.312 208.797 188.959 q 227.331 155.606 259.391 137.874 q 291.45 120.141 330.932 120.141 q 367.776 120.141 399.215 137.745 q 430.654 155.348 452.482 193.952 l 572.572 128.467 q 543.158 63.329 480.003 27.871 q 416.847 -7.586 331.932 -7.586"},"d":{"ha":692.0,"x_min":0,"x_max":692.0,"o":"m 302.671 -7.586 q 227.448 -7.586 166.344 26.612 q 105.241 60.81 69.844 122.802 q 34.448 184.793 34.448 269.173 q 34.448 353.552 69.844 415.544 q 105.241 477.535 166.344 511.535 q 227.448 545.535 302.671 545.535 q 371.051 545.535 421.878 515.639 q 472.706 485.742 501.041 424.751 q 529.377 363.759 529.377 269.173 q 529.377 174.793 502.24 113.302 q 475.102 51.81 424.473 22.112 q 373.844 -7.586 302.671 -7.586 m 329.518 120.141 q 368.397 120.141 399.258 137.874 q 430.119 155.606 448.455 189.459 q 466.791 223.312 466.791 269.173 q 466.791 316.034 448.455 349.188 q 430.119 382.343 399.258 400.075 q 368.397 417.808 329.518 417.808 q 290.64 417.808 259.779 400.075 q 228.918 382.343 210.582 349.188 q 192.246 316.034 192.246 269.173 q 192.246 223.312 210.582 189.459 q 228.918 155.606 259.779 137.874 q 290.64 120.141 329.518 120.141 m 471.377 0 l 471.377 110.204 l 473.997 269.776 l 463.997 429.348 l 463.997 742 l 620.003 742 l 620.003 0"},"e":{"ha":631.0,"x_min":0,"x_max":631.0,"o":"m 338.725 -7.586 q 246.569 -7.586 177.5 28.207 q 108.431 64 70.448 126.69 q 32.465 189.38 32.465 269.173 q 32.465 349.759 69.646 412.251 q 106.827 474.742 171.897 510.139 q 236.966 545.535 318.932 545.535 q 398.122 545.535 461.493 512.027 q 524.864 478.518 561.838 416.122 q 598.813 353.725 598.813 266.759 q 598.813 257.776 598.115 246.293 q 597.416 234.81 596.416 225.224 l 159.124 225.224 l 159.124 316.122 l 513.827 316.122 l 453.567 288.932 q 454.17 330.586 436.938 361.836 q 419.706 393.085 389.749 410.714 q 359.793 428.343 319.725 428.343 q 279.657 428.343 249.201 410.714 q 218.745 393.085 202.012 361.534 q 185.28 329.983 185.28 287.122 l 185.28 262.776 q 185.28 218.725 204.711 185.579 q 224.141 152.433 259.796 134.503 q 295.45 116.572 343.312 116.572 q 386.139 116.572 418.483 129.589 q 450.827 142.606 478.431 169.243 l 561.433 79.207 q 523.847 36.81 468.062 14.612 q 412.277 -7.586 338.725 -7.586"},"f":{"ha":387.0,"x_min":0,"x_max":387.0,"o":"m 91.292 0 l 91.292 550.17 q 91.292 641.085 145.137 695.336 q 198.983 749.586 299.088 749.586 q 332.674 749.586 364.347 742.785 q 396.02 735.983 418.003 721.38 l 377.277 608.428 q 364.467 617.048 348.149 622.255 q 331.83 627.462 314.209 627.462 q 279.952 627.462 261.331 607.937 q 242.711 588.411 242.711 548.774 l 242.711 498.637 l 247.297 431.584 l 247.297 0 m 7.844 406.306 l 7.844 526.051 l 381.02 526.051 l 381.02 406.306"},"g":{"ha":700.0,"x_min":0,"x_max":700.0,"o":"m 324.983 -201.586 q 248.81 -201.586 178.414 -183.078 q 108.017 -164.569 60.637 -128.156 l 122.759 -15.791 q 157.173 -43.808 209.388 -60.42 q 261.603 -77.031 313.448 -77.031 q 396.119 -77.031 433.662 -39.989 q 471.204 -2.946 471.204 70.156 l 471.204 150.55 l 481.204 286.156 l 478.584 422.365 l 478.584 537.949 l 627.209 537.949 l 627.209 89.691 q 627.209 -59.654 548.864 -130.62 q 470.518 -201.586 324.983 -201.586 m 300.895 25.776 q 226.465 25.776 165.56 58.276 q 104.654 90.776 68.56 149.173 q 32.465 207.569 32.465 286.156 q 32.465 364.742 68.56 423.139 q 104.654 481.535 165.56 513.535 q 226.465 545.535 300.895 545.535 q 369.482 545.535 421.016 518.139 q 472.55 490.742 501.791 433.147 q 531.031 375.552 531.031 286.156 q 531.031 196.759 501.791 139.164 q 472.55 81.569 421.016 53.673 q 369.482 25.776 300.895 25.776 m 331.932 153.504 q 373.414 153.504 405.275 170.236 q 437.136 186.969 455.17 216.925 q 473.204 246.881 473.204 286.156 q 473.204 325.827 455.17 355.585 q 437.136 385.343 405.275 401.575 q 373.414 417.808 331.932 417.808 q 291.45 417.808 259.089 401.575 q 226.728 385.343 208.495 355.585 q 190.263 325.827 190.263 286.156 q 190.263 246.881 208.495 216.925 q 226.728 186.969 259.089 170.236 q 291.45 153.504 331.932 153.504"},"h":{"ha":691.0,"x_min":0,"x_max":691.0,"o":"m 72.326 0 l 72.326 742 l 228.331 742 l 228.331 388.81 l 193.037 433.603 q 222.02 488.363 275.916 516.949 q 329.813 545.535 398.623 545.535 q 462.83 545.535 513.226 520.337 q 563.623 495.139 592.821 442.647 q 622.02 390.156 622.02 307.776 l 622.02 0 l 466.014 0 l 466.014 284.465 q 466.014 349.343 437.455 380.196 q 408.895 411.048 357.38 411.048 q 319.898 411.048 290.442 395.42 q 260.986 379.791 244.658 347.946 q 228.331 316.102 228.331 266.051 l 228.331 0"},"i":{"ha":301.0,"x_min":0,"x_max":301.0,"o":"m 72.326 0 l 72.326 537.949 l 228.331 537.949 l 228.331 0 m 150.329 612.723 q 107.034 612.723 79.99 637.878 q 52.946 663.034 52.946 699.966 q 52.946 736.898 79.99 762.054 q 107.034 787.209 150.329 787.209 q 193.623 787.209 220.667 763.45 q 247.711 739.691 247.711 702.759 q 247.711 664.034 220.969 638.378 q 194.226 612.723 150.329 612.723"},"j":{"ha":307.0,"x_min":0,"x_max":307.0,"o":"m 32.329 -201.586 q -4.051 -201.586 -37.232 -194.285 q -70.414 -186.983 -93.397 -172.173 l -51.465 -59.221 q -24.448 -78.255 14.62 -78.255 q 44.275 -78.255 61.395 -58.73 q 78.516 -39.204 78.516 0.433 l 78.516 537.949 l 234.521 537.949 l 234.521 1.45 q 234.521 -91.878 181.779 -146.732 q 129.037 -201.586 32.329 -201.586 m 156.518 612.723 q 113.224 612.723 86.18 637.878 q 59.136 663.034 59.136 699.966 q 59.136 736.898 86.18 762.054 q 113.224 787.209 156.518 787.209 q 199.813 787.209 226.857 763.45 q 253.9 739.691 253.9 702.759 q 253.9 664.034 227.158 638.378 q 200.416 612.723 156.518 612.723"},"k":{"ha":655.0,"x_min":0,"x_max":655.0,"o":"m 200.986 109.912 l 204.779 300.487 l 455.929 537.949 l 642.073 537.949 l 400.521 292.844 l 320.105 226.584 m 72.326 0 l 72.326 742 l 228.331 742 l 228.331 0 m 472.757 0 l 291.38 225.601 l 388.745 347.122 l 661.883 0"},"l":{"ha":301.0,"x_min":0,"x_max":301.0,"o":"m 72.326 0 l 72.326 742 l 228.331 742 l 228.331 0"},"m":{"ha":1049.0,"x_min":0,"x_max":1049.0,"o":"m 72.326 0 l 72.326 537.949 l 220.952 537.949 l 220.952 391.207 l 192.64 434 q 220.623 488.759 272.321 517.147 q 324.02 545.535 389.83 545.535 q 463.64 545.535 519.14 508.337 q 574.64 471.139 593.037 393.759 l 537.915 408.983 q 564.898 471.552 624.208 508.544 q 683.518 545.535 761.329 545.535 q 825.139 545.535 874.639 520.337 q 924.139 495.139 952.337 442.647 q 980.535 390.156 980.535 307.776 l 980.535 0 l 824.53 0 l 824.53 284.465 q 824.53 349.343 797.574 380.196 q 770.618 411.048 722.499 411.048 q 688.017 411.048 661.156 395.618 q 634.294 380.187 619.364 349.334 q 604.433 318.482 604.433 270.017 l 604.433 0 l 448.428 0 l 448.428 284.465 q 448.428 349.343 421.868 380.196 q 395.309 411.048 346.397 411.048 q 311.915 411.048 285.054 395.618 q 258.192 380.187 243.262 349.334 q 228.331 318.482 228.331 270.017 l 228.331 0"},"n":{"ha":691.0,"x_min":0,"x_max":691.0,"o":"m 72.326 0 l 72.326 537.949 l 220.952 537.949 l 220.952 388.81 l 193.037 433.603 q 222.02 488.363 275.916 516.949 q 329.813 545.535 398.623 545.535 q 462.83 545.535 513.226 520.337 q 563.623 495.139 592.821 442.647 q 622.02 390.156 622.02 307.776 l 622.02 0 l 466.014 0 l 466.014 284.465 q 466.014 349.343 437.455 380.196 q 408.895 411.048 357.38 411.048 q 319.898 411.048 290.442 395.42 q 260.986 379.791 244.658 347.946 q 228.331 316.102 228.331 266.051 l 228.331 0"},"o":{"ha":655.0,"x_min":0,"x_max":655.0,"o":"m 327.535 -7.586 q 242.04 -7.586 175.537 28.009 q 109.034 63.603 70.749 126.208 q 32.465 188.813 32.465 269.275 q 32.465 350.363 70.862 412.579 q 109.26 474.795 175.518 510.165 q 241.776 545.535 327.535 545.535 q 413.294 545.535 480.086 510.204 q 546.878 474.873 584.742 412.725 q 622.606 350.577 622.606 269.268 q 622.606 188.586 584.821 126.095 q 547.037 63.603 480.02 28.009 q 413.003 -7.586 327.535 -7.586 m 327.535 120.141 q 367.017 120.141 397.878 137.874 q 428.74 155.606 446.774 189.459 q 464.808 223.312 464.808 269.249 q 464.808 316.034 446.774 349.188 q 428.74 382.343 397.878 400.075 q 367.017 417.808 327.837 417.808 q 288.657 417.808 257.796 400.075 q 226.935 382.343 208.599 349.188 q 190.263 316.034 190.263 269.249 q 190.263 223.312 208.599 189.459 q 226.935 155.606 257.753 137.874 q 288.572 120.141 327.535 120.141"},"p":{"ha":690.0,"x_min":0,"x_max":690.0,"o":"m 389.657 -7.586 q 322.277 -7.586 270.95 22.31 q 219.623 52.207 191.287 113.5 q 162.952 174.793 162.952 268.776 q 162.952 364.156 190.089 425.147 q 217.226 486.139 268.355 515.837 q 319.484 545.535 389.657 545.535 q 465.881 545.535 526.484 511.337 q 587.088 477.139 622.484 415.147 q 657.881 353.156 657.881 268.776 q 657.881 184.397 622.484 122.405 q 587.088 60.414 526.484 26.414 q 465.881 -7.586 389.657 -7.586 m 72.326 -194 l 72.326 537.949 l 220.952 537.949 l 220.952 427.745 l 218.331 268.173 l 228.331 108.601 l 228.331 -194 m 362.81 120.141 q 401.688 120.141 432.55 137.874 q 463.411 155.606 481.747 189.26 q 500.082 222.915 500.082 268.776 q 500.082 315.637 481.747 348.99 q 463.411 382.343 432.55 400.075 q 401.688 417.808 362.81 417.808 q 323.932 417.808 293.071 400.075 q 262.209 382.343 243.874 348.99 q 225.538 315.637 225.538 268.776 q 225.538 222.915 243.874 189.26 q 262.209 155.606 293.071 137.874 q 323.932 120.141 362.81 120.141"},"q":{"ha":690.0,"x_min":0,"x_max":690.0,"o":"m 300.688 -7.586 q 225.465 -7.586 164.361 26.414 q 103.258 60.414 67.861 122.405 q 32.465 184.397 32.465 268.776 q 32.465 353.156 67.861 415.147 q 103.258 477.139 164.361 511.337 q 225.465 545.535 300.688 545.535 q 371.861 545.535 422.49 515.837 q 473.119 486.139 500.257 425.147 q 527.394 364.156 527.394 268.776 q 527.394 174.793 499.058 113.5 q 470.723 52.207 419.895 22.31 q 369.068 -7.586 300.688 -7.586 m 327.535 120.141 q 366.414 120.141 397.275 137.874 q 428.136 155.606 446.472 189.26 q 464.808 222.915 464.808 268.776 q 464.808 315.637 446.472 348.99 q 428.136 382.343 397.275 400.075 q 366.414 417.808 327.535 417.808 q 288.657 417.808 257.796 400.075 q 226.935 382.343 208.599 348.99 q 190.263 315.637 190.263 268.776 q 190.263 222.915 208.599 189.26 q 226.935 155.606 257.796 137.874 q 288.657 120.141 327.535 120.141 m 462.014 -194 l 462.014 108.601 l 472.014 268.173 l 469.394 427.745 l 469.394 537.949 l 618.02 537.949 l 618.02 -194"},"r":{"ha":431.0,"x_min":0,"x_max":431.0,"o":"m 72.326 0 l 72.326 537.949 l 220.952 537.949 l 220.952 385.62 l 200.433 429.603 q 224.226 486.966 277.115 516.251 q 330.003 545.535 406.399 545.535 l 406.399 401.652 q 396.226 403.048 388.045 403.747 q 379.864 404.445 371.484 404.445 q 306.606 404.445 267.469 367.687 q 228.331 330.929 228.331 253.861 l 228.331 0"},"s":{"ha":531.0,"x_min":0,"x_max":531.0,"o":"m 252.535 -7.586 q 184.346 -7.586 120.871 8.922 q 57.397 25.431 19.62 50.034 l 71.966 161.623 q 108.552 138.623 159.147 124.416 q 209.742 110.209 259.346 110.209 q 313.017 110.209 335.663 123.243 q 358.309 136.277 358.309 159.139 q 358.309 177.776 340.706 187.5 q 323.102 197.224 294.197 202.336 q 265.292 207.448 230.585 212.249 q 195.878 217.051 160.973 225.749 q 126.068 234.448 97.163 251.241 q 68.258 268.034 50.654 297.026 q 33.051 326.017 33.051 372.414 q 33.051 423.207 62.741 462.19 q 92.431 501.173 147.991 523.354 q 203.552 545.535 281.674 545.535 q 337.45 545.535 394.132 533.63 q 450.813 521.725 488.986 499.329 l 436.64 387.74 q 397.657 410.74 358.364 419.24 q 319.071 427.74 282.26 427.74 q 229.606 427.74 205.658 413.706 q 181.711 399.671 181.711 378.207 q 181.711 358.363 199.314 348.139 q 216.918 337.915 245.823 332.2 q 274.728 326.484 309.435 321.683 q 344.141 316.881 378.848 307.984 q 413.555 299.088 442.46 282.596 q 471.365 266.105 488.969 237.415 q 506.572 208.725 506.572 162.932 q 506.572 113.329 476.779 74.751 q 446.986 36.173 390.321 14.293 q 333.657 -7.586 252.535 -7.586"},"t":{"ha":435.0,"x_min":0,"x_max":435.0,"o":"m 292.277 -7.586 q 196.776 -7.586 144.034 40.578 q 91.292 88.742 91.292 184.847 l 91.292 657.329 l 247.297 657.329 l 247.297 187.45 q 247.297 153.399 265.021 134.572 q 282.745 115.745 313.606 115.745 q 351.054 115.745 377.277 135.572 l 418.606 25.637 q 395.02 8.827 361.537 0.62 q 328.054 -7.586 292.277 -7.586 m 7.844 418.204 l 7.844 537.949 l 381.02 537.949 l 381.02 418.204"},"u":{"ha":687.0,"x_min":0,"x_max":687.0,"o":"m 299.119 -7.586 q 231.706 -7.586 179.507 18.009 q 127.309 43.603 97.912 97.388 q 68.516 151.173 68.516 234.139 l 68.516 537.949 l 224.521 537.949 l 224.521 257.45 q 224.521 189.796 253.175 158.348 q 281.83 126.9 333.535 126.9 q 369.827 126.9 397.887 142.529 q 425.946 158.158 442.075 190.503 q 458.204 222.847 458.204 271.898 l 458.204 537.949 l 614.209 537.949 l 614.209 0 l 465.584 0 l 465.584 148.346 l 493.499 104.742 q 465.706 49.19 413.412 20.802 q 361.119 -7.586 299.119 -7.586"},"v":{"ha":598.0,"x_min":0,"x_max":598.0,"o":"m 218.275 0 l -7.759 537.949 l 153.039 537.949 l 341.158 75.243 l 260.966 75.243 l 456.465 537.949 l 605.9 537.949 l 379.263 0"},"w":{"ha":937.0,"x_min":0,"x_max":937.0,"o":"m 194.861 0 l 0.637 537.949 l 148.263 537.949 l 309.158 75.243 l 238.742 75.243 l 406.637 537.949 l 538.9 537.949 l 701.606 75.243 l 632.38 75.243 l 798.275 537.949 l 935.935 537.949 l 741.107 0 l 590.499 0 l 447.139 397.255 l 492.623 397.255 l 345.47 0"},"x":{"ha":595.0,"x_min":0,"x_max":595.0,"o":"m 3.671 0 l 245.38 315.674 l 242.397 229.723 l 11.482 537.949 l 186.229 537.949 l 331.969 337.037 l 266.329 334.864 l 416.827 537.949 l 583.229 537.949 l 350.711 232.878 l 351.314 317.45 l 591.246 0 l 413.706 0 l 260.949 213.516 l 326.382 204.74 l 174.453 0"},"y":{"ha":598.0,"x_min":0,"x_max":598.0,"o":"m 139.83 -201.586 q 98.45 -201.586 57.381 -188.69 q 16.312 -175.793 -10.482 -152.586 l 47.02 -41.635 q 65.226 -57.652 88.537 -66.859 q 111.847 -76.065 135.467 -76.065 q 167.881 -76.065 187.501 -60.548 q 207.122 -45.031 222.552 -9.17 l 250.983 56.674 l 263.363 73.847 l 456.465 537.949 l 605.9 537.949 l 363.402 -33.326 q 337.022 -98.068 303.556 -134.939 q 270.09 -171.81 229.435 -186.698 q 188.779 -201.586 139.83 -201.586 m 232.051 -20.776 l -7.759 537.949 l 153.039 537.949 l 339.365 87.813"},"z":{"ha":543.0,"x_min":0,"x_max":543.0,"o":"m 35.431 0 l 35.431 94.399 l 352.98 469.688 l 380.326 418.204 l 42.224 418.204 l 42.224 537.949 l 506.003 537.949 l 506.003 443.55 l 188.453 68.26 l 159.9 119.745 l 515.192 119.745 l 515.192 0"},"{":{"ha":391.0,"x_min":0,"x_max":391.0,"o":"m 318.399 -194 q 224.725 -194 177.086 -147.654 q 129.448 -101.309 129.448 -15.394 l 129.448 165.516 q 129.448 190.326 117.448 201.429 q 105.448 212.533 85.241 212.533 l 51.637 212.533 l 51.637 335.467 l 85.241 335.467 q 105.448 335.467 117.448 347.071 q 129.448 358.674 129.448 382.484 l 129.448 563.394 q 129.448 649.912 177.086 695.956 q 224.725 742 318.399 742 l 376.107 742 l 376.107 620.272 l 358.263 620.272 q 322.056 620.272 303.755 601.065 q 285.453 581.859 285.453 546.445 l 285.453 385.674 q 285.453 341.535 273.375 316.768 q 261.297 292 235.848 280.81 q 210.399 269.62 170.277 265.017 l 170.277 282.983 q 210.399 278.983 235.848 267.491 q 261.297 256 273.375 231.232 q 285.453 206.465 285.453 162.326 l 285.453 1.555 q 285.453 -33.859 303.755 -53.065 q 322.056 -72.272 358.263 -72.272 l 376.107 -72.272 l 376.107 -194"},"|":{"ha":309.0,"x_min":0,"x_max":309.0,"o":"m 82.946 -194 l 82.946 742 l 225.589 742 l 225.589 -194"},"}":{"ha":391.0,"x_min":0,"x_max":391.0,"o":"m 14.827 -194 l 14.827 -72.272 l 32.671 -72.272 q 69.482 -72.272 87.783 -53.065 q 106.085 -33.859 106.085 1.555 l 106.085 162.326 q 106.085 206.465 118.361 231.232 q 130.637 256 155.888 267.491 q 181.139 278.983 220.657 282.983 l 220.657 265.017 q 181.139 269.62 155.888 280.81 q 130.637 292 118.361 316.768 q 106.085 341.535 106.085 385.674 l 106.085 546.445 q 106.085 581.859 87.783 601.065 q 69.482 620.272 32.671 620.272 l 14.827 620.272 l 14.827 742 l 72.535 742 q 166.813 742 214.452 695.956 q 262.09 649.912 262.09 563.394 l 262.09 382.484 q 262.09 358.674 274.09 347.071 q 286.09 335.467 305.694 335.467 l 339.297 335.467 l 339.297 212.533 l 305.694 212.533 q 286.09 212.533 274.09 201.429 q 262.09 190.326 262.09 165.516 l 262.09 -15.394 q 262.09 -101.309 214.452 -147.654 q 166.813 -194 72.535 -194"},"~":{"ha":599.0,"x_min":0,"x_max":599.0,"o":"m 399.949 250.688 q 364.742 250.688 337.837 263.999 q 310.932 277.309 289.027 294.223 q 267.122 311.136 248.113 324.446 q 229.105 337.757 209.088 337.757 q 181.657 337.757 165.442 317.033 q 149.226 296.309 147.226 260.275 l 49.654 260.275 q 51.654 354.62 93.422 402.863 q 135.19 451.105 199.535 451.105 q 234.742 451.105 261.846 437.794 q 288.949 424.484 310.656 407.571 q 332.363 390.657 351.371 377.347 q 370.38 364.037 390.397 364.037 q 418.431 364.037 434.844 385.062 q 451.258 406.088 452.258 442.122 l 549.83 442.122 q 548.226 347.776 506.562 299.232 q 464.898 250.688 399.949 250.688"}," ":{"ha":283.0,"x_min":0,"x_max":283.0,"o":""},"¡":{"ha":289.0,"x_min":0,"x_max":289.0,"o":"m 52.17 -154 l 82.688 294.688 l 206.572 294.688 l 237.694 -154 m 144.932 365.462 q 103.224 365.462 75.878 391.316 q 48.533 417.17 48.533 454.499 q 48.533 492.431 75.878 518.983 q 103.224 545.535 144.932 545.535 q 187.64 545.535 214.184 518.983 q 240.728 492.431 240.728 454.499 q 240.728 417.17 214.184 391.316 q 187.64 365.462 144.932 365.462"},"¢":{"ha":591.0,"x_min":0,"x_max":591.0,"o":"m 331.932 -7.586 q 245.173 -7.586 177.302 27.81 q 109.431 63.207 70.948 125.897 q 32.465 188.586 32.465 269.173 q 32.465 350.363 70.948 412.552 q 109.431 474.742 177.302 510.139 q 245.173 545.535 331.932 545.535 q 416.847 545.535 480.003 510.38 q 543.158 475.224 572.572 409.482 l 452.482 343.997 q 430.654 381.997 399.215 399.903 q 367.776 417.808 330.932 417.808 q 291.45 417.808 259.391 400.075 q 227.331 382.343 208.797 349.188 q 190.263 316.034 190.263 269.173 q 190.263 222.312 208.797 188.959 q 227.331 155.606 259.391 137.874 q 291.45 120.141 330.932 120.141 q 367.776 120.141 399.215 137.745 q 430.654 155.348 452.482 193.952 l 572.572 128.467 q 543.158 63.329 480.003 27.871 q 416.847 -7.586 331.932 -7.586 m 273.258 -120 l 273.258 657.949 l 372.623 657.949 l 372.623 -120"},"£":{"ha":668.0,"x_min":0,"x_max":668.0,"o":"m 130.258 16.983 l 130.258 425.343 q 130.258 514.671 168.637 578.836 q 207.017 643 279.776 677.388 q 352.535 711.776 455.277 711.776 q 516.674 711.776 566.752 700.276 q 616.83 688.776 656.037 665.759 l 606.742 537.842 q 574.725 558.065 536.088 566.272 q 497.45 574.479 456.572 574.479 q 376.9 574.479 334.772 537.635 q 292.643 500.791 292.643 427.929 l 292.643 16.983 m 30 0 l 30 130.331 l 636.467 130.331 l 636.467 0 m 30 301.499 l 30 398.501 l 532.813 398.501 l 532.813 301.499"},"¤":{"ha":700.0,"x_min":0,"x_max":700.0,"o":"m 349.672 61.759 q 295.793 61.759 247.785 82.061 q 199.776 102.363 163.768 137.768 q 127.759 173.173 107.156 220.245 q 86.552 267.317 86.552 320.566 q 86.552 374.793 107.156 421.698 q 127.759 468.603 163.768 504.31 q 199.776 540.017 247.785 560.319 q 295.793 580.62 349.659 580.62 q 404.486 580.62 452.236 560.374 q 499.986 540.128 536.217 504.366 q 572.448 468.603 592.853 421.698 q 613.258 374.793 613.258 320.566 q 613.258 267.317 592.654 220.245 q 572.051 173.173 536.043 137.768 q 500.034 102.363 452.273 82.061 q 404.511 61.759 349.672 61.759 m 112.226 -7.966 l 25.241 82.64 l 136.465 193.864 l 224.054 103.258 m 136.465 441.136 l 25.241 552.36 l 112.226 642.966 l 224.054 531.742 m 586.774 -7.966 l 474.946 103.258 l 562.535 193.864 l 674.363 82.64 m 349.547 185.47 q 388.499 185.47 420.377 203.814 q 452.255 222.158 471.703 252.805 q 491.151 283.451 491.151 320.498 q 491.151 358.275 471.766 389.274 q 452.381 420.273 420.435 438.79 q 388.489 457.306 349.478 457.306 q 311.312 457.306 279.455 438.792 q 247.599 420.278 228.629 389.283 q 209.66 358.287 209.66 320.53 q 209.66 283.501 228.653 252.912 q 247.647 222.323 279.543 203.896 q 311.44 185.47 349.547 185.47 m 562.535 441.136 l 474.946 531.742 l 586.774 642.966 l 674.363 552.36"},"¥":{"ha":736.0,"x_min":0,"x_max":736.0,"o":"m 286.912 0 l 286.912 305.793 l 324.017 204.014 l -14.329 700 l 158.626 700 l 424.141 313.312 l 322.017 313.312 l 588.929 700 l 750.538 700 l 412.986 204.014 l 449.297 305.793 l 449.297 0 m 99.759 90.17 l 99.759 173.207 l 636.45 173.207 l 636.45 90.17 m 99.759 228.17 l 99.759 311.207 l 636.45 311.207 l 636.45 228.17"},"¦":{"ha":309.0,"x_min":0,"x_max":309.0,"o":"m 82.946 392 l 82.946 742 l 225.589 742 l 225.589 392 m 82.946 -194 l 82.946 156 l 225.589 156 l 225.589 -194"},"§":{"ha":522.0,"x_min":0,"x_max":522.0,"o":"m 243.122 -107.586 q 202.535 -107.586 160.251 -99.983 q 117.966 -92.38 81.586 -79.173 q 45.207 -65.966 21.431 -48.759 l 66.535 61.02 q 101.312 36.813 150.406 21.399 q 199.501 5.986 244.742 5.986 q 288.62 5.986 312.283 22.02 q 335.946 38.054 335.946 64.932 q 335.946 87.569 319.041 100.095 q 302.136 112.62 275.128 120.336 q 248.119 128.051 215.111 134.758 q 182.102 141.465 148.99 151.266 q 115.878 161.068 88.87 178.068 q 61.861 195.068 44.956 223.568 q 28.051 252.068 28.051 295.671 q 28.051 352.465 59.948 393.439 q 91.844 434.414 147.983 454.19 l 232.657 379.946 q 202.003 372.946 182.658 353.619 q 163.314 334.292 163.314 306.827 q 163.314 283.586 180.219 270.259 q 197.124 256.932 224.633 248.717 q 252.141 240.501 285.452 233.596 q 318.762 226.691 351.77 216.691 q 384.779 206.691 412.287 189.294 q 439.796 171.898 456.701 143.105 q 473.606 114.312 473.606 69.915 q 473.606 18.932 446.209 -21.344 q 418.813 -61.62 367.235 -84.603 q 315.657 -107.586 243.122 -107.586 m 373.484 146.207 l 287.603 220.45 q 318.861 227.847 338.507 247.277 q 358.153 266.708 358.153 294.173 q 358.153 317.414 341.248 330.741 q 324.343 344.068 296.834 351.982 q 269.326 359.895 236.516 367.102 q 203.706 374.309 170.697 384.309 q 137.688 394.309 110.18 411.404 q 82.671 428.499 65.766 456.792 q 48.861 485.085 48.861 529.482 q 48.861 581.465 77.654 621.543 q 106.448 661.62 163.017 684.603 q 219.586 707.586 301.708 707.586 q 331.915 707.586 369.2 702.483 q 406.484 697.38 442.157 686.776 q 477.83 676.173 501.606 660.173 l 456.501 550.997 q 418.122 574.601 376.923 584.308 q 335.725 594.014 292.915 594.014 q 237.243 594.014 211.882 578.179 q 186.521 562.343 186.521 535.068 q 186.521 514.827 202.926 502.5 q 219.331 490.173 246.84 482.759 q 274.348 475.346 307.158 468.139 q 339.969 460.932 372.779 450.432 q 405.589 439.932 433.097 421.535 q 460.606 403.139 477.011 373.44 q 493.416 343.742 493.416 298.346 q 493.416 247.742 461.718 206.863 q 430.02 165.983 373.484 146.207"},"¨":{"ha":600.0,"x_min":0,"x_max":600.0,"o":"m 401.346 612.275 q 372.397 612.275 352.129 631.146 q 331.861 650.017 331.861 680.966 q 331.861 711.915 352.129 730.984 q 372.397 750.054 401.346 750.054 q 430.294 750.054 450.562 730.984 q 470.83 711.915 470.83 680.966 q 470.83 650.017 450.562 631.146 q 430.294 612.275 401.346 612.275 m 198.654 612.275 q 169.706 612.275 149.438 631.146 q 129.17 650.017 129.17 680.966 q 129.17 711.915 149.438 730.984 q 169.706 750.054 198.654 750.054 q 227.603 750.054 247.871 730.984 q 268.139 711.915 268.139 680.966 q 268.139 650.017 247.871 631.146 q 227.603 612.275 198.654 612.275"},"©":{"ha":785.0,"x_min":0,"x_max":785.0,"o":"m 391.258 -3 q 316.258 -3 252.258 24 q 188.258 51 140.258 99.5 q 92.258 148 65.758 212 q 39.258 276 39.258 350 q 39.258 424 66.258 488 q 93.258 552 141.258 600.5 q 189.258 649 253.758 676 q 318.258 703 393.258 703 q 468.258 703 532.758 676.5 q 597.258 650 644.758 602 q 692.258 554 718.758 490.5 q 745.258 427 745.258 352 q 745.258 277 718.258 212.5 q 691.258 148 642.758 99.5 q 594.258 51 530.258 24 q 466.258 -3 391.258 -3 m 391.009 62.071 q 452.136 62.071 504.136 84.381 q 556.136 106.691 594.862 145.91 q 633.588 185.129 655.094 238.076 q 676.601 291.023 676.601 352 q 676.601 413.224 655.489 465.448 q 634.377 517.671 596.455 556.188 q 558.533 594.706 506.809 616.317 q 455.085 637.929 393.37 637.929 q 331.655 637.929 279.215 616.119 q 226.776 594.309 188.534 554.881 q 150.292 515.453 129.103 463.14 q 107.915 410.827 107.915 350.102 q 107.915 289.376 129.027 236.852 q 150.139 184.329 188.285 145.012 q 226.431 105.695 278.431 83.883 q 330.431 62.071 391.009 62.071 m 404.241 147.776 q 342.483 147.776 294.267 173.578 q 246.051 199.38 218.654 244.96 q 191.258 290.54 191.258 350 q 191.258 409.46 218.654 455.04 q 246.051 500.62 294.267 526.422 q 342.483 552.224 404.241 552.224 q 464 552.224 508.785 526.749 q 553.569 501.275 574.586 457.326 l 485.204 403.791 q 470.377 428.808 449.533 439.92 q 428.688 451.031 403.241 451.031 q 376.686 451.031 355.37 438.799 q 334.054 426.567 321.123 404.016 q 308.192 381.465 308.192 350 q 308.192 318.535 321.123 295.984 q 334.054 273.433 355.37 261.201 q 376.686 248.969 403.241 248.969 q 428.688 248.969 449.533 260.08 q 470.377 271.192 485.204 296.209 l 574.586 243.881 q 553.569 199.725 508.785 173.751 q 464 147.776 404.241 147.776"},"ª":{"ha":412.0,"x_min":0,"x_max":412.0,"o":"m 260.895 424.224 l 260.895 486.051 l 252.912 499.241 l 252.912 610.654 q 252.912 641.706 234.094 656.723 q 215.275 671.74 175.654 671.74 q 149.62 671.74 122.603 663.731 q 95.586 655.723 76.776 641.309 l 40.241 708.966 q 68.62 728.173 110.009 738.88 q 151.397 749.586 190.793 749.586 q 272.535 749.586 316.596 714.603 q 360.657 679.62 360.657 605.671 l 360.657 424.224 m 155.654 419.431 q 92.258 419.431 60.06 447.922 q 27.861 476.414 27.861 517.207 q 27.861 560.983 63.137 586.888 q 98.414 612.793 174.983 612.793 l 265.102 612.793 l 265.102 556.258 l 191.139 556.258 q 158.674 556.258 144.149 547.241 q 129.623 538.224 129.623 521.397 q 129.623 504.156 144.157 494.94 q 158.691 485.725 183.552 485.725 q 208.62 485.725 226.456 495.242 q 244.292 504.759 252.912 523.38 l 267.688 477.156 q 258.482 450.81 229.87 435.12 q 201.258 419.431 155.654 419.431"},"«":{"ha":568.0,"x_min":0,"x_max":568.0,"o":"m 177.482 74 l 36.465 269.173 l 177.482 464.949 l 317.141 464.949 l 179.918 269.173 l 317.141 74 m 403.26 74 l 262.243 269.173 l 403.26 464.949 l 542.92 464.949 l 405.696 269.173 l 542.92 74"},"¬":{"ha":599.0,"x_min":0,"x_max":599.0,"o":"m 408.533 114.912 l 408.533 289.74 l 61.637 289.74 l 61.637 411.467 l 537.847 411.467 l 537.847 114.912"},"®":{"ha":785.0,"x_min":0,"x_max":785.0,"o":"m 391.258 -3 q 316.258 -3 252.258 24 q 188.258 51 140.258 99.5 q 92.258 148 65.758 212 q 39.258 276 39.258 350 q 39.258 424 66.258 488 q 93.258 552 141.258 600.5 q 189.258 649 253.758 676 q 318.258 703 393.258 703 q 468.258 703 532.758 676.5 q 597.258 650 644.758 602 q 692.258 554 718.758 490.5 q 745.258 427 745.258 352 q 745.258 277 718.258 212.5 q 691.258 148 642.758 99.5 q 594.258 51 530.258 24 q 466.258 -3 391.258 -3 m 484.825 155.966 l 388.601 304 l 492.966 304 l 589.19 155.966 m 390.852 62.071 q 452.136 62.071 504.136 84.381 q 556.136 106.691 594.887 145.883 q 633.638 185.075 655.119 238.049 q 676.601 291.023 676.601 351.84 q 676.601 413.224 655.489 465.448 q 634.377 517.671 596.455 556.188 q 558.533 594.706 506.809 616.317 q 455.085 637.929 393.37 637.929 q 331.655 637.929 279.313 616.13 q 226.972 594.331 188.632 554.892 q 150.292 515.453 129.103 463.162 q 107.915 410.87 107.915 350.123 q 107.915 289.376 129.027 236.852 q 150.139 184.329 188.285 145.012 q 226.431 105.695 278.431 83.883 q 330.431 62.071 390.852 62.071 m 238.929 155.966 l 238.929 544.034 l 407.607 544.034 q 487.448 544.034 532.137 506.793 q 576.827 469.551 576.827 406.448 q 576.827 339.465 532.137 303.861 q 487.448 268.258 407.671 268.258 l 342.501 268.258 l 342.501 155.966 m 341.898 345.535 l 401.085 345.535 q 436.157 345.535 455.611 361.559 q 475.065 377.583 475.065 406.426 q 475.065 435.269 455.611 451.013 q 436.157 466.757 401.085 466.757 l 341.898 466.757"},"¯":{"ha":600.0,"x_min":0,"x_max":600.0,"o":"m 115.343 635.241 l 115.343 723.071 l 484.657 723.071 l 484.657 635.241"},"°":{"ha":418.0,"x_min":0,"x_max":418.0,"o":"m 208.622 365.895 q 160.017 365.895 120.045 388.676 q 80.073 411.457 56.674 450.326 q 33.275 489.195 33.275 537.209 q 33.275 585.224 56.674 624.09 q 80.073 662.955 120.005 685.771 q 159.936 708.586 208.515 708.586 q 257.564 708.586 297.36 685.793 q 337.156 663 360.544 624.137 q 383.932 585.273 383.932 537.266 q 383.932 489.258 360.41 450.392 q 336.888 411.526 297.304 388.711 q 257.72 365.895 208.622 365.895 m 208.898 443.346 q 235.417 443.346 256.325 455.883 q 277.233 468.421 289.366 489.417 q 301.499 510.414 301.499 536.873 q 301.499 564.068 289.366 585.323 q 277.233 606.578 256.325 618.857 q 235.417 631.136 208.898 631.136 q 182.38 631.136 161.177 618.826 q 139.974 606.516 127.841 585.511 q 115.708 564.506 115.708 536.985 q 115.708 509.81 127.841 488.814 q 139.974 467.817 161.177 455.581 q 182.38 443.346 208.898 443.346"},"±":{"ha":599.0,"x_min":0,"x_max":599.0,"o":"m 235.085 208.45 l 235.085 653.538 l 364.399 653.538 l 364.399 208.45 m 61.637 0 l 61.637 121.728 l 537.847 121.728 l 537.847 0 m 61.637 371.915 l 61.637 490.073 l 537.847 490.073 l 537.847 371.915"},"²":{"ha":430.0,"x_min":0,"x_max":430.0,"o":"m 41.034 327 l 41.034 393.864 l 213.912 543.742 q 244.153 569.983 253.368 586.103 q 262.584 602.224 262.584 616.448 q 262.584 635.688 245.541 649.119 q 228.499 662.55 190.603 662.55 q 160.363 662.55 136.423 651.645 q 112.484 640.74 98.26 620.326 l 18.465 668.085 q 42.878 705.051 88.258 727.319 q 133.637 749.586 199.776 749.586 q 281.569 749.586 327.544 714.69 q 373.518 679.793 373.518 624.224 q 373.518 594.224 358.622 565.629 q 343.725 537.034 295.329 494.637 l 155.986 373.708 l 133.399 411.433 l 389.535 411.433 l 389.535 327"},"³":{"ha":430.0,"x_min":0,"x_max":430.0,"o":"m 201.793 319.414 q 147.793 319.414 97.707 332.422 q 47.62 345.431 18.051 366.241 l 57.983 445.674 q 85.759 427.467 123.863 416.959 q 161.966 406.45 200.207 406.45 q 243.688 406.45 264.826 419.484 q 285.963 432.518 285.963 454.966 q 285.963 476.827 267.317 489.361 q 248.671 501.895 206.586 501.895 l 148.465 501.895 l 148.465 569.966 l 276.912 696.292 l 291.102 658.757 l 36.224 658.757 l 36.224 742 l 374.312 742 l 374.312 675.136 l 245.467 548.81 l 196.569 578.552 l 228.725 578.552 q 311.312 578.552 354.105 544.156 q 396.898 509.759 396.898 454.966 q 396.898 419.966 375.803 388.88 q 354.708 357.793 311.527 338.603 q 268.346 319.414 201.793 319.414"},"´":{"ha":600.0,"x_min":0,"x_max":600.0,"o":"m 209.482 607 l 343.895 751.312 l 511.83 751.312 l 330.518 607"},"µ":{"ha":690.0,"x_min":0,"x_max":690.0,"o":"m 72.326 -194 l 72.326 537.949 l 228.331 537.949 l 228.331 257.45 q 228.331 189.796 256.986 158.348 q 285.64 126.9 337.346 126.9 q 373.637 126.9 401.697 142.529 q 429.757 158.158 445.885 190.503 q 462.014 222.847 462.014 271.898 l 462.014 537.949 l 618.02 537.949 l 618.02 0 l 477.326 0 l 477.326 145.966 l 500.482 119.898 q 487.654 72.742 461.232 44.768 q 434.81 16.793 401.897 4.603 q 368.983 -7.586 335.776 -7.586 q 288.708 -7.586 252.666 11.241 q 216.623 30.068 195.02 65.326 l 228.331 114.051 l 228.331 -194"},"¶":{"ha":686.0,"x_min":0,"x_max":686.0,"o":"m 227.793 -100 l 227.793 359.55 q 166.793 360.946 118.405 384.438 q 70.017 407.929 42.026 450.737 q 14.034 493.545 14.034 551.013 q 14.034 609.654 43.819 652.659 q 73.603 695.663 127.578 718.832 q 181.552 742 253.518 742 l 603.005 742 l 603.005 -100 l 475.915 -100 l 475.915 629.238 l 354.883 629.238 l 354.883 -100"},"·":{"ha":302.0,"x_min":0,"x_max":302.0,"o":"m 151.484 183.74 q 109.776 183.74 81.827 210.99 q 53.878 238.241 53.878 282.156 q 53.878 326.071 81.827 352.623 q 109.776 379.175 151.484 379.175 q 194.192 379.175 221.34 352.623 q 248.487 326.071 248.487 282.156 q 248.487 238.241 221.34 210.99 q 194.192 183.74 151.484 183.74"},"¸":{"ha":600.0,"x_min":0,"x_max":600.0,"o":"m 267.448 -231.552 q 241.241 -231.552 216.56 -225.854 q 191.878 -220.156 173.671 -210.552 l 198.051 -144.448 q 212.671 -150.861 228.775 -154.861 q 244.878 -158.861 263.482 -158.861 q 291.292 -158.861 303.197 -150.051 q 315.102 -141.241 315.102 -127.017 q 315.102 -113.793 303.49 -105.88 q 291.878 -97.966 265.654 -97.966 l 231.895 -97.966 l 258.292 8.19 l 341.105 8.19 l 327.105 -50.19 q 372.294 -54.983 393.105 -78.681 q 413.915 -102.38 413.915 -132.603 q 413.915 -178.38 373.751 -204.966 q 333.586 -231.552 267.448 -231.552"},"¹":{"ha":430.0,"x_min":0,"x_max":430.0,"o":"m 73.051 327 l 73.051 410.243 l 217.221 410.243 l 176.136 360.02 l 176.136 704.275 l 224.224 658.757 l 81.844 658.757 l 81.844 742 l 288.467 742 l 288.467 360.02 l 247.382 410.243 l 377.552 410.243 l 377.552 327"},"º":{"ha":427.0,"x_min":0,"x_max":427.0,"o":"m 214.069 419.431 q 158.793 419.431 116.139 440.702 q 73.485 461.973 48.966 499.563 q 24.448 537.152 24.448 584.666 q 24.448 633.236 49 670.159 q 73.552 707.082 116.367 728.334 q 159.183 749.586 213.569 749.586 q 269.346 749.586 311.873 728.312 q 354.4 707.038 378.546 670.077 q 402.691 633.116 402.691 584.538 q 402.691 537.017 378.551 499.411 q 354.411 461.804 311.878 440.617 q 269.346 419.431 214.069 419.431 m 213.535 502.277 q 250.654 502.277 273.8 524.72 q 296.946 547.163 296.946 584.901 q 296.946 623.258 273.88 644.999 q 250.813 666.74 213.651 666.74 q 177.088 666.74 153.64 644.858 q 130.192 622.976 130.192 584.862 q 130.192 547.363 153.603 524.82 q 177.015 502.277 213.535 502.277"},"»":{"ha":568.0,"x_min":0,"x_max":568.0,"o":"m 25.258 74 l 162.482 269.173 l 25.258 464.949 l 164.918 464.949 l 305.935 269.173 l 164.918 74 m 251.037 74 l 388.26 269.173 l 251.037 464.949 l 390.696 464.949 l 531.713 269.173 l 390.696 74"},"¼":{"ha":1044.0,"x_min":0,"x_max":1044.0,"o":"m 73.051 285 l 73.051 368.243 l 217.221 368.243 l 176.136 318.02 l 176.136 662.275 l 224.224 616.757 l 81.844 616.757 l 81.844 700 l 288.467 700 l 288.467 318.02 l 247.382 368.243 l 377.552 368.243 l 377.552 285 m 223.706 0 l 701.706 700 l 820.623 700 l 342.623 0 m 626 84.292 l 626 153.552 l 814.878 415 l 934.209 415 l 744.331 153.552 l 693.433 168.725 l 1025.28 168.725 l 1025.28 84.292 m 851.034 0 l 851.034 84.292 l 862.397 168.725 l 862.397 238.81 l 958.382 238.81 l 958.382 0"},"½":{"ha":1044.0,"x_min":0,"x_max":1044.0,"o":"m 73.051 285 l 73.051 368.243 l 217.221 368.243 l 176.136 318.02 l 176.136 662.275 l 224.224 616.757 l 81.844 616.757 l 81.844 700 l 288.467 700 l 288.467 318.02 l 247.382 368.243 l 377.552 368.243 l 377.552 285 m 223.706 0 l 701.706 700 l 820.623 700 l 342.623 0 m 655.363 0 l 655.363 66.864 l 828.241 216.742 q 858.482 242.983 867.697 259.103 q 876.912 275.224 876.912 289.448 q 876.912 308.688 859.87 322.119 q 842.827 335.55 804.932 335.55 q 774.691 335.55 750.752 324.645 q 726.813 313.74 712.589 293.326 l 632.793 341.085 q 657.207 378.051 702.586 400.319 q 747.966 422.586 814.105 422.586 q 895.898 422.586 941.872 387.69 q 987.847 352.793 987.847 297.224 q 987.847 267.224 972.95 238.629 q 958.054 210.034 909.657 167.637 l 770.314 46.708 l 747.728 84.433 l 1003.86 84.433 l 1003.86 0"},"¾":{"ha":1044.0,"x_min":0,"x_max":1044.0,"o":"m 201.793 277.414 q 147.793 277.414 97.707 290.422 q 47.62 303.431 18.051 324.241 l 57.983 403.674 q 85.759 385.467 123.863 374.959 q 161.966 364.45 200.207 364.45 q 243.688 364.45 264.826 377.484 q 285.963 390.518 285.963 412.966 q 285.963 434.827 267.317 447.361 q 248.671 459.895 206.586 459.895 l 148.465 459.895 l 148.465 527.966 l 276.912 654.292 l 291.102 616.757 l 36.224 616.757 l 36.224 700 l 374.312 700 l 374.312 633.136 l 245.467 506.81 l 196.569 536.552 l 228.725 536.552 q 311.312 536.552 354.105 502.156 q 396.898 467.759 396.898 412.966 q 396.898 377.966 375.803 346.88 q 354.708 315.793 311.527 296.603 q 268.346 277.414 201.793 277.414 m 223.706 0 l 701.706 700 l 820.623 700 l 342.623 0 m 626 84.292 l 626 153.552 l 814.878 415 l 934.209 415 l 744.331 153.552 l 693.433 168.725 l 1025.28 168.725 l 1025.28 84.292 m 851.034 0 l 851.034 84.292 l 862.397 168.725 l 862.397 238.81 l 958.382 238.81 l 958.382 0"},"¿":{"ha":589.0,"x_min":0,"x_max":589.0,"o":"m 306.397 -165.38 q 231.414 -165.38 173.939 -143.88 q 116.465 -122.38 84.387 -81.69 q 52.309 -41 52.309 16.569 q 52.309 55.776 64.412 84.776 q 76.516 113.776 95.921 135.578 q 115.326 157.38 136.231 175.983 q 157.136 194.586 176.541 211.897 q 195.946 229.207 208.05 249.129 q 220.153 269.051 220.153 294.688 l 371.243 294.688 q 371.243 260.465 359.933 234.353 q 348.623 208.241 331.106 187.431 q 313.589 166.62 293.469 149.009 q 273.348 131.397 255.831 114.681 q 238.314 97.966 227.004 79.742 q 215.694 61.518 215.694 39.881 q 215.694 7.83 245.15 -13.221 q 274.606 -34.272 323.122 -34.272 q 371.414 -34.272 408.163 -14.565 q 444.912 5.141 468.153 39.762 l 589.433 -31.136 q 549.02 -92.878 478.355 -129.129 q 407.691 -165.38 306.397 -165.38 m 295.397 365.462 q 253.688 365.462 226.645 391.316 q 199.601 417.17 199.601 454.499 q 199.601 492.431 226.645 518.983 q 253.688 545.535 295.397 545.535 q 338.105 545.535 364.649 518.983 q 391.192 492.431 391.192 454.499 q 391.192 417.17 364.649 391.316 q 338.105 365.462 295.397 365.462"},"À":{"ha":766.0,"x_min":0,"x_max":766.0,"o":"m -9.346 0 l 302.688 700 l 462.883 700 l 775.521 0 l 606.343 0 l 349.569 617.567 l 413.813 617.567 l 157.039 0 m 147.312 149.757 l 189.813 272.691 l 550.431 272.691 l 593.535 149.757 m 352.569 757 l 171.258 901.312 l 339.192 901.312 l 473.606 757"},"Á":{"ha":766.0,"x_min":0,"x_max":766.0,"o":"m -9.346 0 l 302.688 700 l 462.883 700 l 775.521 0 l 606.343 0 l 349.569 617.567 l 413.813 617.567 l 157.039 0 m 147.312 149.757 l 189.813 272.691 l 550.431 272.691 l 593.535 149.757 m 292.569 757 l 426.983 901.312 l 594.918 901.312 l 413.606 757"},"Â":{"ha":766.0,"x_min":0,"x_max":766.0,"o":"m -9.346 0 l 302.688 700 l 462.883 700 l 775.521 0 l 606.343 0 l 349.569 617.567 l 413.813 617.567 l 157.039 0 m 147.312 149.757 l 189.813 272.691 l 550.431 272.691 l 593.535 149.757 m 182.017 757 l 314.241 901.312 l 451.935 901.312 l 584.158 757 l 470.105 757 l 331.725 876.742 l 434.45 876.742 l 296.071 757"},"Ã":{"ha":766.0,"x_min":0,"x_max":766.0,"o":"m -9.346 0 l 302.688 700 l 462.883 700 l 775.521 0 l 606.343 0 l 349.569 617.567 l 413.813 617.567 l 157.039 0 m 147.312 149.757 l 189.813 272.691 l 550.431 272.691 l 593.535 149.757 m 462.881 750.62 q 435.484 750.62 414.286 760.827 q 393.088 771.034 376.191 784.043 q 359.294 797.051 344.088 807.258 q 328.881 817.465 313.071 817.465 q 292.26 817.465 279.657 800.543 q 267.054 783.62 265.657 758.207 l 182.19 758.207 q 183.586 825.139 215.664 867.613 q 247.742 910.088 303.294 910.088 q 331.294 910.088 352.493 899.881 q 373.691 889.674 390.588 876.666 q 407.484 863.657 422.889 853.45 q 438.294 843.243 453.708 843.243 q 474.915 843.243 487.217 859.967 q 499.518 876.691 500.518 900.708 l 582.779 900.708 q 581.779 835.569 550.106 793.095 q 518.433 750.62 462.881 750.62"},"Ä":{"ha":766.0,"x_min":0,"x_max":766.0,"o":"m -9.346 0 l 302.688 700 l 462.883 700 l 775.521 0 l 606.343 0 l 349.569 617.567 l 413.813 617.567 l 157.039 0 m 147.312 149.757 l 189.813 272.691 l 550.431 272.691 l 593.535 149.757 m 484.433 762.275 q 455.484 762.275 435.217 781.146 q 414.949 800.017 414.949 830.966 q 414.949 861.915 435.217 880.984 q 455.484 900.054 484.433 900.054 q 513.382 900.054 533.65 880.984 q 553.918 861.915 553.918 830.966 q 553.918 800.017 533.65 781.146 q 513.382 762.275 484.433 762.275 m 281.742 762.275 q 252.793 762.275 232.526 781.146 q 212.258 800.017 212.258 830.966 q 212.258 861.915 232.526 880.984 q 252.793 900.054 281.742 900.054 q 310.691 900.054 330.959 880.984 q 351.226 861.915 351.226 830.966 q 351.226 800.017 330.959 781.146 q 310.691 762.275 281.742 762.275"},"Å":{"ha":766.0,"x_min":0,"x_max":766.0,"o":"m -9.346 0 l 302.688 700 l 462.883 700 l 775.521 0 l 606.343 0 l 349.569 617.567 l 413.813 617.567 l 157.039 0 m 147.312 149.757 l 189.813 272.691 l 550.431 272.691 l 593.535 149.757 m 382.484 739.224 q 347.708 739.224 319.602 755.505 q 291.497 771.786 275.136 798.876 q 258.776 825.966 258.776 859.346 q 258.776 892.879 275.164 920.285 q 291.552 947.691 319.716 964.183 q 347.88 980.674 382.503 980.674 q 418.26 980.674 446.14 964.183 q 474.02 947.691 490.408 920.285 q 506.796 892.879 506.796 859.346 q 506.796 825.966 490.408 798.785 q 474.02 771.603 446.101 755.414 q 418.182 739.224 382.484 739.224 m 382.716 798.708 q 409.105 798.708 426.113 815.82 q 443.122 832.932 443.122 859.059 q 443.122 885.759 425.96 903.173 q 408.799 920.586 382.484 920.586 q 357.467 920.586 339.959 903.474 q 322.45 886.363 322.45 859.365 q 322.45 832.932 339.587 815.82 q 356.725 798.708 382.716 798.708"},"Æ":{"ha":1080.0,"x_min":0,"x_max":1080.0,"o":"m -9.346 0 l 385.601 700 l 547.192 700 l 547.192 569.669 l 407.929 569.669 l 506.484 637.723 l 157.039 0 m 196.674 149.757 l 199.691 272.691 l 547.192 272.691 l 547.192 149.757 m 492.139 0 l 492.139 700 l 1020.71 700 l 1020.71 569.669 l 652.937 569.669 l 652.937 130.331 l 1034.31 130.331 l 1034.31 0 m 640.558 292.326 l 641.161 418.277 l 978.504 418.277 l 978.504 292.326"},"Ç":{"ha":724.0,"x_min":0,"x_max":724.0,"o":"m 418.397 -11.776 q 336.81 -11.776 267.422 14.724 q 198.034 41.224 147.043 89.922 q 96.051 138.62 67.654 204.715 q 39.258 270.81 39.258 350 q 39.258 429.19 67.654 495.285 q 96.051 561.38 147.344 610.078 q 198.637 658.776 268.026 685.276 q 337.414 711.776 419 711.776 q 509.932 711.776 583.7 680.302 q 657.467 648.827 707.054 588.068 l 603.309 491.876 q 567.482 532.686 523.344 553.582 q 479.207 574.479 426.776 574.479 q 377.708 574.479 336.847 558.255 q 295.986 542.031 266.038 512.092 q 236.09 482.153 219.565 440.904 q 203.039 399.654 203.039 350 q 203.039 300.346 219.565 259.096 q 236.09 217.847 266.038 187.908 q 295.986 157.969 336.847 141.745 q 377.708 125.521 426.776 125.521 q 479.207 125.521 523.344 146.418 q 567.482 167.314 603.309 208.728 l 707.054 112.535 q 657.467 52.173 583.7 20.198 q 509.932 -11.776 418.397 -11.776 m 380.637 -231.552 q 354.431 -231.552 329.749 -225.854 q 305.068 -220.156 286.861 -210.552 l 311.241 -144.448 q 325.861 -150.861 341.965 -154.861 q 358.068 -158.861 376.671 -158.861 q 404.482 -158.861 416.387 -150.051 q 428.292 -141.241 428.292 -127.017 q 428.292 -113.793 416.68 -105.88 q 405.068 -97.966 378.844 -97.966 l 345.085 -97.966 l 371.482 8.19 l 454.294 8.19 l 440.294 -50.19 q 485.484 -54.983 506.294 -78.681 q 527.105 -102.38 527.105 -132.603 q 527.105 -178.38 486.94 -204.966 q 446.776 -231.552 380.637 -231.552"},"È":{"ha":671.0,"x_min":0,"x_max":671.0,"o":"m 82.946 0 l 82.946 700 l 611.518 700 l 611.518 569.669 l 243.745 569.669 l 243.745 130.331 l 625.122 130.331 l 625.122 0 m 231.969 292.326 l 231.969 418.277 l 569.312 418.277 l 569.312 292.326 m 316.912 757 l 135.601 901.312 l 303.535 901.312 l 437.949 757"},"É":{"ha":671.0,"x_min":0,"x_max":671.0,"o":"m 82.946 0 l 82.946 700 l 611.518 700 l 611.518 569.669 l 243.745 569.669 l 243.745 130.331 l 625.122 130.331 l 625.122 0 m 231.969 292.326 l 231.969 418.277 l 569.312 418.277 l 569.312 292.326 m 256.912 757 l 391.326 901.312 l 559.26 901.312 l 377.949 757"},"Ê":{"ha":671.0,"x_min":0,"x_max":671.0,"o":"m 82.946 0 l 82.946 700 l 611.518 700 l 611.518 569.669 l 243.745 569.669 l 243.745 130.331 l 625.122 130.331 l 625.122 0 m 231.969 292.326 l 231.969 418.277 l 569.312 418.277 l 569.312 292.326 m 146.36 757 l 278.584 901.312 l 416.277 901.312 l 548.501 757 l 434.448 757 l 296.068 876.742 l 398.793 876.742 l 260.414 757"},"Ë":{"ha":671.0,"x_min":0,"x_max":671.0,"o":"m 82.946 0 l 82.946 700 l 611.518 700 l 611.518 569.669 l 243.745 569.669 l 243.745 130.331 l 625.122 130.331 l 625.122 0 m 231.969 292.326 l 231.969 418.277 l 569.312 418.277 l 569.312 292.326 m 448.776 762.275 q 419.827 762.275 399.56 781.146 q 379.292 800.017 379.292 830.966 q 379.292 861.915 399.56 880.984 q 419.827 900.054 448.776 900.054 q 477.725 900.054 497.993 880.984 q 518.26 861.915 518.26 830.966 q 518.26 800.017 497.993 781.146 q 477.725 762.275 448.776 762.275 m 246.085 762.275 q 217.136 762.275 196.868 781.146 q 176.601 800.017 176.601 830.966 q 176.601 861.915 196.868 880.984 q 217.136 900.054 246.085 900.054 q 275.034 900.054 295.302 880.984 q 315.569 861.915 315.569 830.966 q 315.569 800.017 295.302 781.146 q 275.034 762.275 246.085 762.275"},"Ì":{"ha":328.0,"x_min":0,"x_max":328.0,"o":"m 82.946 0 l 82.946 700 l 245.331 700 l 245.331 0 m 133.62 757 l -47.691 901.312 l 120.243 901.312 l 254.657 757"},"Í":{"ha":328.0,"x_min":0,"x_max":328.0,"o":"m 82.946 0 l 82.946 700 l 245.331 700 l 245.331 0 m 73.62 757 l 208.034 901.312 l 375.969 901.312 l 194.657 757"},"Î":{"ha":328.0,"x_min":0,"x_max":328.0,"o":"m 82.946 0 l 82.946 700 l 245.331 700 l 245.331 0 m -36.932 757 l 95.292 901.312 l 232.986 901.312 l 365.209 757 l 251.156 757 l 112.776 876.742 l 215.501 876.742 l 77.122 757"},"Ï":{"ha":328.0,"x_min":0,"x_max":328.0,"o":"m 82.946 0 l 82.946 700 l 245.331 700 l 245.331 0 m 265.484 762.275 q 236.535 762.275 216.268 781.146 q 196 800.017 196 830.966 q 196 861.915 216.268 880.984 q 236.535 900.054 265.484 900.054 q 294.433 900.054 314.701 880.984 q 334.969 861.915 334.969 830.966 q 334.969 800.017 314.701 781.146 q 294.433 762.275 265.484 762.275 m 62.793 762.275 q 33.844 762.275 13.577 781.146 q -6.691 800.017 -6.691 830.966 q -6.691 861.915 13.577 880.984 q 33.844 900.054 62.793 900.054 q 91.742 900.054 112.01 880.984 q 132.277 861.915 132.277 830.966 q 132.277 800.017 112.01 781.146 q 91.742 762.275 62.793 762.275"},"Ð":{"ha":839.0,"x_min":0,"x_max":839.0,"o":"m 96.309 0 l 96.309 700 l 414.156 700 q 528.742 700 615.63 656.595 q 702.518 613.19 751.312 534.888 q 800.105 456.586 800.105 350 q 800.105 243.81 751.312 165.31 q 702.518 86.81 615.63 43.405 q 528.742 0 414.156 0 m 258.694 132.711 l 406.569 132.711 q 476.482 132.711 527.86 159.253 q 579.238 185.796 607.781 234.76 q 636.323 283.725 636.323 350 q 636.323 417.275 607.781 465.74 q 579.238 514.204 527.86 540.747 q 476.482 567.289 406.569 567.289 l 258.694 567.289 m 1.258 303.292 l 1.258 411.535 l 433.847 411.535 l 433.847 303.292"},"Ñ":{"ha":808.0,"x_min":0,"x_max":808.0,"o":"m 82.946 0 l 82.946 700 l 216.606 700 l 629.929 195.558 l 565.272 195.558 l 565.272 700 l 725.277 700 l 725.277 0 l 591.618 0 l 178.294 504.442 l 242.952 504.442 l 242.952 0 m 483.603 750.62 q 456.207 750.62 435.009 760.827 q 413.81 771.034 396.914 784.043 q 380.017 797.051 364.81 807.258 q 349.603 817.465 333.793 817.465 q 312.983 817.465 300.38 800.543 q 287.776 783.62 286.38 758.207 l 202.912 758.207 q 204.309 825.139 236.387 867.613 q 268.465 910.088 324.017 910.088 q 352.017 910.088 373.215 899.881 q 394.414 889.674 411.31 876.666 q 428.207 863.657 443.612 853.45 q 459.017 843.243 474.431 843.243 q 495.637 843.243 507.939 859.967 q 520.241 876.691 521.241 900.708 l 603.501 900.708 q 602.501 835.569 570.829 793.095 q 539.156 750.62 483.603 750.62"},"Ò":{"ha":844.0,"x_min":0,"x_max":844.0,"o":"m 422.519 -11.776 q 339.866 -11.776 269.648 15.224 q 199.431 42.224 147.939 91.12 q 96.448 140.017 67.853 205.953 q 39.258 271.888 39.258 350.187 q 39.258 428.486 67.854 494.149 q 96.45 559.813 148.017 608.882 q 199.584 657.95 269.565 684.863 q 339.546 711.776 422.19 711.776 q 505.173 711.776 574.811 684.971 q 644.449 658.165 695.887 609.291 q 747.326 560.416 775.922 494.544 q 804.518 428.673 804.518 350.127 q 804.518 271.581 775.923 205.497 q 747.329 139.414 695.889 90.624 q 644.449 41.835 574.811 15.029 q 505.173 -11.776 422.519 -11.776 m 422.172 125.521 q 469.068 125.521 508.776 141.835 q 548.483 158.148 578.085 188.101 q 607.686 218.054 624.211 259.183 q 640.737 300.313 640.737 350.182 q 640.737 400.051 624.279 440.947 q 607.821 481.843 578.191 511.829 q 548.561 541.815 508.832 558.147 q 469.104 574.479 422.208 574.479 q 375.312 574.479 335.425 558.127 q 295.538 541.776 265.804 511.754 q 236.07 481.732 219.555 440.789 q 203.039 399.846 203.039 350.199 q 203.039 300.552 219.527 259.423 q 236.014 218.293 265.698 188.131 q 295.382 157.969 335.329 141.745 q 375.276 125.521 422.172 125.521 m 391.671 757 l 210.36 901.312 l 378.294 901.312 l 512.708 757"},"Ó":{"ha":844.0,"x_min":0,"x_max":844.0,"o":"m 422.519 -11.776 q 339.866 -11.776 269.648 15.224 q 199.431 42.224 147.939 91.12 q 96.448 140.017 67.853 205.953 q 39.258 271.888 39.258 350.187 q 39.258 428.486 67.854 494.149 q 96.45 559.813 148.017 608.882 q 199.584 657.95 269.565 684.863 q 339.546 711.776 422.19 711.776 q 505.173 711.776 574.811 684.971 q 644.449 658.165 695.887 609.291 q 747.326 560.416 775.922 494.544 q 804.518 428.673 804.518 350.127 q 804.518 271.581 775.923 205.497 q 747.329 139.414 695.889 90.624 q 644.449 41.835 574.811 15.029 q 505.173 -11.776 422.519 -11.776 m 422.172 125.521 q 469.068 125.521 508.776 141.835 q 548.483 158.148 578.085 188.101 q 607.686 218.054 624.211 259.183 q 640.737 300.313 640.737 350.182 q 640.737 400.051 624.279 440.947 q 607.821 481.843 578.191 511.829 q 548.561 541.815 508.832 558.147 q 469.104 574.479 422.208 574.479 q 375.312 574.479 335.425 558.127 q 295.538 541.776 265.804 511.754 q 236.07 481.732 219.555 440.789 q 203.039 399.846 203.039 350.199 q 203.039 300.552 219.527 259.423 q 236.014 218.293 265.698 188.131 q 295.382 157.969 335.329 141.745 q 375.276 125.521 422.172 125.521 m 331.671 757 l 466.085 901.312 l 634.02 901.312 l 452.708 757"},"Ô":{"ha":844.0,"x_min":0,"x_max":844.0,"o":"m 422.519 -11.776 q 339.866 -11.776 269.648 15.224 q 199.431 42.224 147.939 91.12 q 96.448 140.017 67.853 205.953 q 39.258 271.888 39.258 350.187 q 39.258 428.486 67.854 494.149 q 96.45 559.813 148.017 608.882 q 199.584 657.95 269.565 684.863 q 339.546 711.776 422.19 711.776 q 505.173 711.776 574.811 684.971 q 644.449 658.165 695.887 609.291 q 747.326 560.416 775.922 494.544 q 804.518 428.673 804.518 350.127 q 804.518 271.581 775.923 205.497 q 747.329 139.414 695.889 90.624 q 644.449 41.835 574.811 15.029 q 505.173 -11.776 422.519 -11.776 m 422.172 125.521 q 469.068 125.521 508.776 141.835 q 548.483 158.148 578.085 188.101 q 607.686 218.054 624.211 259.183 q 640.737 300.313 640.737 350.182 q 640.737 400.051 624.279 440.947 q 607.821 481.843 578.191 511.829 q 548.561 541.815 508.832 558.147 q 469.104 574.479 422.208 574.479 q 375.312 574.479 335.425 558.127 q 295.538 541.776 265.804 511.754 q 236.07 481.732 219.555 440.789 q 203.039 399.846 203.039 350.199 q 203.039 300.552 219.527 259.423 q 236.014 218.293 265.698 188.131 q 295.382 157.969 335.329 141.745 q 375.276 125.521 422.172 125.521 m 221.119 757 l 353.343 901.312 l 491.037 901.312 l 623.26 757 l 509.207 757 l 370.827 876.742 l 473.552 876.742 l 335.173 757"},"Õ":{"ha":844.0,"x_min":0,"x_max":844.0,"o":"m 422.519 -11.776 q 339.866 -11.776 269.648 15.224 q 199.431 42.224 147.939 91.12 q 96.448 140.017 67.853 205.953 q 39.258 271.888 39.258 350.187 q 39.258 428.486 67.854 494.149 q 96.45 559.813 148.017 608.882 q 199.584 657.95 269.565 684.863 q 339.546 711.776 422.19 711.776 q 505.173 711.776 574.811 684.971 q 644.449 658.165 695.887 609.291 q 747.326 560.416 775.922 494.544 q 804.518 428.673 804.518 350.127 q 804.518 271.581 775.923 205.497 q 747.329 139.414 695.889 90.624 q 644.449 41.835 574.811 15.029 q 505.173 -11.776 422.519 -11.776 m 422.172 125.521 q 469.068 125.521 508.776 141.835 q 548.483 158.148 578.085 188.101 q 607.686 218.054 624.211 259.183 q 640.737 300.313 640.737 350.182 q 640.737 400.051 624.279 440.947 q 607.821 481.843 578.191 511.829 q 548.561 541.815 508.832 558.147 q 469.104 574.479 422.208 574.479 q 375.312 574.479 335.425 558.127 q 295.538 541.776 265.804 511.754 q 236.07 481.732 219.555 440.789 q 203.039 399.846 203.039 350.199 q 203.039 300.552 219.527 259.423 q 236.014 218.293 265.698 188.131 q 295.382 157.969 335.329 141.745 q 375.276 125.521 422.172 125.521 m 501.983 750.62 q 474.586 750.62 453.388 760.827 q 432.19 771.034 415.293 784.043 q 398.397 797.051 383.19 807.258 q 367.983 817.465 352.173 817.465 q 331.363 817.465 318.759 800.543 q 306.156 783.62 304.759 758.207 l 221.292 758.207 q 222.688 825.139 254.766 867.613 q 286.844 910.088 342.397 910.088 q 370.397 910.088 391.595 899.881 q 412.793 889.674 429.69 876.666 q 446.586 863.657 461.991 853.45 q 477.397 843.243 492.81 843.243 q 514.017 843.243 526.319 859.967 q 538.62 876.691 539.62 900.708 l 621.881 900.708 q 620.881 835.569 589.208 793.095 q 557.535 750.62 501.983 750.62"},"Ö":{"ha":844.0,"x_min":0,"x_max":844.0,"o":"m 422.519 -11.776 q 339.866 -11.776 269.648 15.224 q 199.431 42.224 147.939 91.12 q 96.448 140.017 67.853 205.953 q 39.258 271.888 39.258 350.187 q 39.258 428.486 67.854 494.149 q 96.45 559.813 148.017 608.882 q 199.584 657.95 269.565 684.863 q 339.546 711.776 422.19 711.776 q 505.173 711.776 574.811 684.971 q 644.449 658.165 695.887 609.291 q 747.326 560.416 775.922 494.544 q 804.518 428.673 804.518 350.127 q 804.518 271.581 775.923 205.497 q 747.329 139.414 695.889 90.624 q 644.449 41.835 574.811 15.029 q 505.173 -11.776 422.519 -11.776 m 422.172 125.521 q 469.068 125.521 508.776 141.835 q 548.483 158.148 578.085 188.101 q 607.686 218.054 624.211 259.183 q 640.737 300.313 640.737 350.182 q 640.737 400.051 624.279 440.947 q 607.821 481.843 578.191 511.829 q 548.561 541.815 508.832 558.147 q 469.104 574.479 422.208 574.479 q 375.312 574.479 335.425 558.127 q 295.538 541.776 265.804 511.754 q 236.07 481.732 219.555 440.789 q 203.039 399.846 203.039 350.199 q 203.039 300.552 219.527 259.423 q 236.014 218.293 265.698 188.131 q 295.382 157.969 335.329 141.745 q 375.276 125.521 422.172 125.521 m 523.535 762.275 q 494.586 762.275 474.319 781.146 q 454.051 800.017 454.051 830.966 q 454.051 861.915 474.319 880.984 q 494.586 900.054 523.535 900.054 q 552.484 900.054 572.752 880.984 q 593.02 861.915 593.02 830.966 q 593.02 800.017 572.752 781.146 q 552.484 762.275 523.535 762.275 m 320.844 762.275 q 291.895 762.275 271.628 781.146 q 251.36 800.017 251.36 830.966 q 251.36 861.915 271.628 880.984 q 291.895 900.054 320.844 900.054 q 349.793 900.054 370.061 880.984 q 390.329 861.915 390.329 830.966 q 390.329 800.017 370.061 781.146 q 349.793 762.275 320.844 762.275"},"×":{"ha":599.0,"x_min":0,"x_max":599.0,"o":"m 425.776 137.153 l 510.175 224.569 l 173.708 562.847 l 89.912 475.431 m 173.708 137.153 l 510.175 475.431 l 425.776 562.847 l 89.912 224.569"},"Ø":{"ha":844.0,"x_min":0,"x_max":844.0,"o":"m 422.519 -11.776 q 339.866 -11.776 269.648 15.224 q 199.431 42.224 147.939 91.12 q 96.448 140.017 67.853 205.953 q 39.258 271.888 39.258 350.187 q 39.258 428.486 67.854 494.149 q 96.45 559.813 148.017 608.882 q 199.584 657.95 269.565 684.863 q 339.546 711.776 422.19 711.776 q 505.173 711.776 574.811 684.971 q 644.449 658.165 695.887 609.291 q 747.326 560.416 775.922 494.544 q 804.518 428.673 804.518 350.127 q 804.518 271.581 775.923 205.497 q 747.329 139.414 695.889 90.624 q 644.449 41.835 574.811 15.029 q 505.173 -11.776 422.519 -11.776 m 422.172 125.521 q 469.068 125.521 508.776 141.835 q 548.483 158.148 578.085 188.101 q 607.686 218.054 624.211 259.183 q 640.737 300.313 640.737 350.182 q 640.737 400.051 624.279 440.947 q 607.821 481.843 578.191 511.829 q 548.561 541.815 508.832 558.147 q 469.104 574.479 422.208 574.479 q 375.312 574.479 335.425 558.127 q 295.538 541.776 265.804 511.754 q 236.07 481.732 219.555 440.789 q 203.039 399.846 203.039 350.199 q 203.039 300.552 219.527 259.423 q 236.014 218.293 265.698 188.131 q 295.382 157.969 335.329 141.745 q 375.276 125.521 422.172 125.521 m 139.431 -70 l 597.844 770 l 705.949 770 l 247.535 -70"},"Ù":{"ha":788.0,"x_min":0,"x_max":788.0,"o":"m 393.81 -11.776 q 244.878 -11.776 160.912 71 q 76.946 153.776 76.946 308.363 l 76.946 700 l 239.331 700 l 239.331 313.552 q 239.331 214.243 280.399 169.882 q 321.467 125.521 395.207 125.521 q 469.343 125.521 510.213 169.882 q 551.082 214.243 551.082 313.552 l 551.082 700 l 710.674 700 l 710.674 308.363 q 710.674 153.776 626.708 71 q 542.742 -11.776 393.81 -11.776 m 364.688 757 l 183.377 901.312 l 351.312 901.312 l 485.725 757"},"Ú":{"ha":788.0,"x_min":0,"x_max":788.0,"o":"m 393.81 -11.776 q 244.878 -11.776 160.912 71 q 76.946 153.776 76.946 308.363 l 76.946 700 l 239.331 700 l 239.331 313.552 q 239.331 214.243 280.399 169.882 q 321.467 125.521 395.207 125.521 q 469.343 125.521 510.213 169.882 q 551.082 214.243 551.082 313.552 l 551.082 700 l 710.674 700 l 710.674 308.363 q 710.674 153.776 626.708 71 q 542.742 -11.776 393.81 -11.776 m 304.688 757 l 439.102 901.312 l 607.037 901.312 l 425.725 757"},"Û":{"ha":788.0,"x_min":0,"x_max":788.0,"o":"m 393.81 -11.776 q 244.878 -11.776 160.912 71 q 76.946 153.776 76.946 308.363 l 76.946 700 l 239.331 700 l 239.331 313.552 q 239.331 214.243 280.399 169.882 q 321.467 125.521 395.207 125.521 q 469.343 125.521 510.213 169.882 q 551.082 214.243 551.082 313.552 l 551.082 700 l 710.674 700 l 710.674 308.363 q 710.674 153.776 626.708 71 q 542.742 -11.776 393.81 -11.776 m 194.136 757 l 326.36 901.312 l 464.054 901.312 l 596.277 757 l 482.224 757 l 343.844 876.742 l 446.569 876.742 l 308.19 757"},"Ü":{"ha":788.0,"x_min":0,"x_max":788.0,"o":"m 393.81 -11.776 q 244.878 -11.776 160.912 71 q 76.946 153.776 76.946 308.363 l 76.946 700 l 239.331 700 l 239.331 313.552 q 239.331 214.243 280.399 169.882 q 321.467 125.521 395.207 125.521 q 469.343 125.521 510.213 169.882 q 551.082 214.243 551.082 313.552 l 551.082 700 l 710.674 700 l 710.674 308.363 q 710.674 153.776 626.708 71 q 542.742 -11.776 393.81 -11.776 m 496.552 762.275 q 467.603 762.275 447.336 781.146 q 427.068 800.017 427.068 830.966 q 427.068 861.915 447.336 880.984 q 467.603 900.054 496.552 900.054 q 525.501 900.054 545.769 880.984 q 566.037 861.915 566.037 830.966 q 566.037 800.017 545.769 781.146 q 525.501 762.275 496.552 762.275 m 293.861 762.275 q 264.912 762.275 244.645 781.146 q 224.377 800.017 224.377 830.966 q 224.377 861.915 244.645 880.984 q 264.912 900.054 293.861 900.054 q 322.81 900.054 343.078 880.984 q 363.346 861.915 363.346 830.966 q 363.346 800.017 343.078 781.146 q 322.81 762.275 293.861 762.275"},"Ý":{"ha":676.0,"x_min":0,"x_max":676.0,"o":"m 256.912 0 l 256.912 285.881 l 294.017 187.723 l -14.329 700 l 158.039 700 l 393.555 307.243 l 295.017 307.243 l 531.929 700 l 690.538 700 l 382.986 187.723 l 419.297 285.881 l 419.297 0 m 247.586 757 l 382 901.312 l 549.935 901.312 l 368.623 757"},"Þ":{"ha":732.0,"x_min":0,"x_max":732.0,"o":"m 210.606 115.258 l 210.606 247.175 l 377.19 247.175 q 451.533 247.175 488.911 279.332 q 526.289 311.489 526.289 369.2 q 526.289 426.912 488.911 458.868 q 451.533 490.825 377.19 490.825 l 210.606 490.825 l 210.606 622.742 l 385.552 622.742 q 480.086 622.742 548.25 592.083 q 616.415 561.425 653.243 504.506 q 690.071 447.586 690.071 369.302 q 690.071 291.017 653.216 233.787 q 616.362 176.558 548.147 145.908 q 479.932 115.258 385.552 115.258 m 82.946 0 l 82.946 700.397 l 245.331 700.397 l 245.331 0"},"ß":{"ha":693.0,"x_min":0,"x_max":693.0,"o":"m 409.484 -7.586 q 379.088 -7.586 346.001 -3.388 q 312.915 0.81 290.501 8.414 l 309.484 132.141 q 327.898 125.538 347.518 122.538 q 367.139 119.538 392.983 119.538 q 426.861 119.538 451.214 130.063 q 475.567 140.589 489.394 161.338 q 503.221 182.088 503.221 211.156 q 503.221 255.258 470.645 278.516 q 438.068 301.774 381.966 301.774 l 327.552 301.774 l 327.552 425.312 q 384.275 426.708 417.041 454.863 q 449.808 483.017 449.808 529.706 q 449.808 571.774 422.153 597.514 q 394.499 623.255 344.983 623.255 q 290.864 623.255 259.597 592.291 q 228.331 561.326 228.331 501.793 l 228.331 0 l 72.326 0 l 72.326 483.465 q 72.326 571.844 108.602 631.026 q 144.878 690.207 206.844 719.897 q 268.81 749.586 344.586 749.586 q 425.329 749.586 482.294 721.897 q 539.26 694.207 569.545 647.12 q 599.83 600.034 599.83 541.448 q 599.83 494.654 580.347 457.965 q 560.864 421.275 528.7 395.783 q 496.535 370.292 457.586 356.697 q 418.637 343.102 379.499 343.102 l 417.431 407.725 q 489.535 407.725 544.191 384.329 q 598.847 360.932 629.933 316.242 q 661.02 271.552 661.02 206.966 q 661.02 139.38 629.123 91.19 q 597.226 43 540.64 17.707 q 484.054 -7.586 409.484 -7.586"},"à":{"ha":617.0,"x_min":0,"x_max":617.0,"o":"m 401.516 0 l 401.516 104.844 l 392.153 128.431 l 392.153 316.051 q 392.153 366.309 361.619 393.946 q 331.085 421.584 267.637 421.584 q 225.207 421.584 183.586 408.274 q 141.966 394.963 112.552 371.946 l 56.844 480.518 q 101.224 512.329 163.095 528.932 q 224.966 545.535 288.966 545.535 q 412.467 545.535 480.313 487.664 q 548.158 429.793 548.158 307.275 l 548.158 0 m 238.068 -7.586 q 175.292 -7.586 130.292 13.603 q 85.292 34.793 61.387 71.785 q 37.482 108.776 37.482 155.173 q 37.482 202.742 60.861 238.837 q 84.241 274.932 135.215 295.44 q 186.19 315.949 268.173 315.949 l 410.533 315.949 l 410.533 225.051 l 285.467 225.051 q 230.158 225.051 209.736 207.215 q 189.314 189.38 189.314 161.552 q 189.314 132.294 212.563 114.666 q 235.813 97.037 276.501 97.037 q 315.793 97.037 347.06 115.269 q 378.326 133.501 392.153 170.156 l 415.723 97.725 q 399.102 46.38 354.085 19.397 q 309.068 -7.586 238.068 -7.586 m 274.19 607 l 92.878 751.312 l 260.813 751.312 l 395.226 607"},"á":{"ha":617.0,"x_min":0,"x_max":617.0,"o":"m 401.516 0 l 401.516 104.844 l 392.153 128.431 l 392.153 316.051 q 392.153 366.309 361.619 393.946 q 331.085 421.584 267.637 421.584 q 225.207 421.584 183.586 408.274 q 141.966 394.963 112.552 371.946 l 56.844 480.518 q 101.224 512.329 163.095 528.932 q 224.966 545.535 288.966 545.535 q 412.467 545.535 480.313 487.664 q 548.158 429.793 548.158 307.275 l 548.158 0 m 238.068 -7.586 q 175.292 -7.586 130.292 13.603 q 85.292 34.793 61.387 71.785 q 37.482 108.776 37.482 155.173 q 37.482 202.742 60.861 238.837 q 84.241 274.932 135.215 295.44 q 186.19 315.949 268.173 315.949 l 410.533 315.949 l 410.533 225.051 l 285.467 225.051 q 230.158 225.051 209.736 207.215 q 189.314 189.38 189.314 161.552 q 189.314 132.294 212.563 114.666 q 235.813 97.037 276.501 97.037 q 315.793 97.037 347.06 115.269 q 378.326 133.501 392.153 170.156 l 415.723 97.725 q 399.102 46.38 354.085 19.397 q 309.068 -7.586 238.068 -7.586 m 214.19 607 l 348.603 751.312 l 516.538 751.312 l 335.226 607"},"â":{"ha":617.0,"x_min":0,"x_max":617.0,"o":"m 401.516 0 l 401.516 104.844 l 392.153 128.431 l 392.153 316.051 q 392.153 366.309 361.619 393.946 q 331.085 421.584 267.637 421.584 q 225.207 421.584 183.586 408.274 q 141.966 394.963 112.552 371.946 l 56.844 480.518 q 101.224 512.329 163.095 528.932 q 224.966 545.535 288.966 545.535 q 412.467 545.535 480.313 487.664 q 548.158 429.793 548.158 307.275 l 548.158 0 m 238.068 -7.586 q 175.292 -7.586 130.292 13.603 q 85.292 34.793 61.387 71.785 q 37.482 108.776 37.482 155.173 q 37.482 202.742 60.861 238.837 q 84.241 274.932 135.215 295.44 q 186.19 315.949 268.173 315.949 l 410.533 315.949 l 410.533 225.051 l 285.467 225.051 q 230.158 225.051 209.736 207.215 q 189.314 189.38 189.314 161.552 q 189.314 132.294 212.563 114.666 q 235.813 97.037 276.501 97.037 q 315.793 97.037 347.06 115.269 q 378.326 133.501 392.153 170.156 l 415.723 97.725 q 399.102 46.38 354.085 19.397 q 309.068 -7.586 238.068 -7.586 m 103.637 607 l 235.861 751.312 l 373.555 751.312 l 505.779 607 l 391.725 607 l 253.346 726.742 l 356.071 726.742 l 217.691 607"},"ã":{"ha":617.0,"x_min":0,"x_max":617.0,"o":"m 401.516 0 l 401.516 104.844 l 392.153 128.431 l 392.153 316.051 q 392.153 366.309 361.619 393.946 q 331.085 421.584 267.637 421.584 q 225.207 421.584 183.586 408.274 q 141.966 394.963 112.552 371.946 l 56.844 480.518 q 101.224 512.329 163.095 528.932 q 224.966 545.535 288.966 545.535 q 412.467 545.535 480.313 487.664 q 548.158 429.793 548.158 307.275 l 548.158 0 m 238.068 -7.586 q 175.292 -7.586 130.292 13.603 q 85.292 34.793 61.387 71.785 q 37.482 108.776 37.482 155.173 q 37.482 202.742 60.861 238.837 q 84.241 274.932 135.215 295.44 q 186.19 315.949 268.173 315.949 l 410.533 315.949 l 410.533 225.051 l 285.467 225.051 q 230.158 225.051 209.736 207.215 q 189.314 189.38 189.314 161.552 q 189.314 132.294 212.563 114.666 q 235.813 97.037 276.501 97.037 q 315.793 97.037 347.06 115.269 q 378.326 133.501 392.153 170.156 l 415.723 97.725 q 399.102 46.38 354.085 19.397 q 309.068 -7.586 238.068 -7.586 m 379.674 603.637 q 354.088 603.637 334.096 613.241 q 314.105 622.844 297.812 635.551 q 281.518 648.258 267.82 657.861 q 254.122 667.465 240.122 667.465 q 219.312 667.465 206.708 652.654 q 194.105 637.844 192.105 611.224 l 112.861 611.224 q 114.861 678.156 145.732 717.613 q 176.603 757.071 229.742 757.071 q 255.329 757.071 275.622 747.467 q 295.915 737.864 312.208 725.157 q 328.501 712.45 342.398 702.847 q 356.294 693.243 369.294 693.243 q 390.501 693.243 403.406 707.554 q 416.312 721.864 417.312 747.088 l 496.555 747.088 q 495.555 683.156 464.184 643.397 q 432.813 603.637 379.674 603.637"},"ä":{"ha":617.0,"x_min":0,"x_max":617.0,"o":"m 401.516 0 l 401.516 104.844 l 392.153 128.431 l 392.153 316.051 q 392.153 366.309 361.619 393.946 q 331.085 421.584 267.637 421.584 q 225.207 421.584 183.586 408.274 q 141.966 394.963 112.552 371.946 l 56.844 480.518 q 101.224 512.329 163.095 528.932 q 224.966 545.535 288.966 545.535 q 412.467 545.535 480.313 487.664 q 548.158 429.793 548.158 307.275 l 548.158 0 m 238.068 -7.586 q 175.292 -7.586 130.292 13.603 q 85.292 34.793 61.387 71.785 q 37.482 108.776 37.482 155.173 q 37.482 202.742 60.861 238.837 q 84.241 274.932 135.215 295.44 q 186.19 315.949 268.173 315.949 l 410.533 315.949 l 410.533 225.051 l 285.467 225.051 q 230.158 225.051 209.736 207.215 q 189.314 189.38 189.314 161.552 q 189.314 132.294 212.563 114.666 q 235.813 97.037 276.501 97.037 q 315.793 97.037 347.06 115.269 q 378.326 133.501 392.153 170.156 l 415.723 97.725 q 399.102 46.38 354.085 19.397 q 309.068 -7.586 238.068 -7.586 m 406.054 612.275 q 377.105 612.275 356.837 631.146 q 336.569 650.017 336.569 680.966 q 336.569 711.915 356.837 730.984 q 377.105 750.054 406.054 750.054 q 435.003 750.054 455.27 730.984 q 475.538 711.915 475.538 680.966 q 475.538 650.017 455.27 631.146 q 435.003 612.275 406.054 612.275 m 203.363 612.275 q 174.414 612.275 154.146 631.146 q 133.878 650.017 133.878 680.966 q 133.878 711.915 154.146 730.984 q 174.414 750.054 203.363 750.054 q 232.312 750.054 252.579 730.984 q 272.847 711.915 272.847 680.966 q 272.847 650.017 252.579 631.146 q 232.312 612.275 203.363 612.275"},"å":{"ha":617.0,"x_min":0,"x_max":617.0,"o":"m 401.516 0 l 401.516 104.844 l 392.153 128.431 l 392.153 316.051 q 392.153 366.309 361.619 393.946 q 331.085 421.584 267.637 421.584 q 225.207 421.584 183.586 408.274 q 141.966 394.963 112.552 371.946 l 56.844 480.518 q 101.224 512.329 163.095 528.932 q 224.966 545.535 288.966 545.535 q 412.467 545.535 480.313 487.664 q 548.158 429.793 548.158 307.275 l 548.158 0 m 238.068 -7.586 q 175.292 -7.586 130.292 13.603 q 85.292 34.793 61.387 71.785 q 37.482 108.776 37.482 155.173 q 37.482 202.742 60.861 238.837 q 84.241 274.932 135.215 295.44 q 186.19 315.949 268.173 315.949 l 410.533 315.949 l 410.533 225.051 l 285.467 225.051 q 230.158 225.051 209.736 207.215 q 189.314 189.38 189.314 161.552 q 189.314 132.294 212.563 114.666 q 235.813 97.037 276.501 97.037 q 315.793 97.037 347.06 115.269 q 378.326 133.501 392.153 170.156 l 415.723 97.725 q 399.102 46.38 354.085 19.397 q 309.068 -7.586 238.068 -7.586 m 304.105 592.414 q 269.329 592.414 241.223 608.695 q 213.117 624.976 196.757 652.066 q 180.397 679.156 180.397 712.535 q 180.397 746.068 196.785 773.475 q 213.173 800.881 241.336 817.372 q 269.5 833.864 304.124 833.864 q 339.881 833.864 367.76 817.372 q 395.64 800.881 412.028 773.475 q 428.416 746.068 428.416 712.535 q 428.416 679.156 412.028 651.974 q 395.64 624.793 367.721 608.603 q 339.802 592.414 304.105 592.414 m 304.337 651.898 q 330.725 651.898 347.734 669.01 q 364.742 686.122 364.742 712.249 q 364.742 738.949 347.581 756.363 q 330.419 773.776 304.105 773.776 q 279.088 773.776 261.579 756.664 q 244.071 739.552 244.071 712.555 q 244.071 686.122 261.208 669.01 q 278.345 651.898 304.337 651.898"},"æ":{"ha":996.0,"x_min":0,"x_max":996.0,"o":"m 262.759 -7.586 q 157.017 -7.586 97.249 39 q 37.482 85.586 37.482 160.759 q 37.482 205.329 60.861 240.225 q 84.241 275.122 135.215 295.829 q 186.19 316.535 268.173 316.535 l 408.153 316.535 l 408.153 225.637 l 285.467 225.637 q 230.365 225.637 209.84 207.707 q 189.314 189.776 189.314 163.949 q 189.314 132.691 212.667 114.864 q 236.02 97.037 278.501 97.037 q 332.62 97.037 362.387 125.484 q 392.153 153.932 392.153 200.603 l 392.153 316.051 q 392.153 365.516 361.619 393.55 q 331.085 421.584 268.637 421.584 q 225.414 421.584 183.69 408.274 q 141.966 394.963 112.552 371.946 l 56.844 480.518 q 101.224 512.329 162.698 528.932 q 224.173 545.535 287.966 545.535 q 375.207 545.535 433.285 514.001 q 491.363 482.467 515.105 419.623 l 447.62 422.64 q 483.19 479.881 545.181 512.708 q 607.173 545.535 683.793 545.535 q 741.793 545.535 792.38 526.13 q 842.966 506.725 881.346 470.923 q 919.725 435.122 941.51 384.432 q 963.294 333.742 963.294 271.173 q 963.294 258.19 962.596 246.707 q 961.898 235.224 959.898 225.637 l 528.935 225.637 l 528.935 316.535 l 858.272 316.535 l 813.859 288.932 q 814.462 334.81 795.92 365.456 q 777.377 396.102 747.016 412.223 q 716.654 428.343 681.603 428.343 q 647.156 428.343 616.398 412.223 q 585.64 396.102 566.597 364.853 q 547.555 333.603 547.555 287.122 l 547.555 262.776 q 547.555 218.725 566.787 185.579 q 586.02 152.433 621.372 134.503 q 656.725 116.572 705.19 116.572 q 746.034 116.572 778.766 129.589 q 811.499 142.606 840.706 169.243 l 924.312 79.207 q 885.725 36.207 829.044 14.31 q 772.363 -7.586 701.586 -7.586 q 639.983 -7.586 585.19 10.12 q 530.397 27.827 488.112 65.939 q 445.827 104.051 420.448 165.258 l 504.139 164.654 q 487.173 97.844 450.069 60.034 q 412.966 22.224 364.156 7.319 q 315.346 -7.586 262.759 -7.586"},"ç":{"ha":591.0,"x_min":0,"x_max":591.0,"o":"m 331.932 -7.586 q 245.173 -7.586 177.302 27.81 q 109.431 63.207 70.948 125.897 q 32.465 188.586 32.465 269.173 q 32.465 350.363 70.948 412.552 q 109.431 474.742 177.302 510.139 q 245.173 545.535 331.932 545.535 q 416.847 545.535 480.003 510.38 q 543.158 475.224 572.572 409.482 l 452.482 343.997 q 430.654 381.997 399.215 399.903 q 367.776 417.808 330.932 417.808 q 291.45 417.808 259.391 400.075 q 227.331 382.343 208.797 349.188 q 190.263 316.034 190.263 269.173 q 190.263 222.312 208.797 188.959 q 227.331 155.606 259.391 137.874 q 291.45 120.141 330.932 120.141 q 367.776 120.141 399.215 137.745 q 430.654 155.348 452.482 193.952 l 572.572 128.467 q 543.158 63.329 480.003 27.871 q 416.847 -7.586 331.932 -7.586 m 285.569 -231.552 q 259.363 -231.552 234.681 -225.854 q 210 -220.156 191.793 -210.552 l 216.173 -144.448 q 230.793 -150.861 246.897 -154.861 q 263 -158.861 281.603 -158.861 q 309.414 -158.861 321.319 -150.051 q 333.224 -141.241 333.224 -127.017 q 333.224 -113.793 321.612 -105.88 q 310 -97.966 283.776 -97.966 l 250.017 -97.966 l 276.414 8.19 l 359.226 8.19 l 345.226 -50.19 q 390.416 -54.983 411.226 -78.681 q 432.037 -102.38 432.037 -132.603 q 432.037 -178.38 391.872 -204.966 q 351.708 -231.552 285.569 -231.552"},"è":{"ha":631.0,"x_min":0,"x_max":631.0,"o":"m 338.725 -7.586 q 246.569 -7.586 177.5 28.207 q 108.431 64 70.448 126.69 q 32.465 189.38 32.465 269.173 q 32.465 349.759 69.646 412.251 q 106.827 474.742 171.897 510.139 q 236.966 545.535 318.932 545.535 q 398.122 545.535 461.493 512.027 q 524.864 478.518 561.838 416.122 q 598.813 353.725 598.813 266.759 q 598.813 257.776 598.115 246.293 q 597.416 234.81 596.416 225.224 l 159.124 225.224 l 159.124 316.122 l 513.827 316.122 l 453.567 288.932 q 454.17 330.586 436.938 361.836 q 419.706 393.085 389.749 410.714 q 359.793 428.343 319.725 428.343 q 279.657 428.343 249.201 410.714 q 218.745 393.085 202.012 361.534 q 185.28 329.983 185.28 287.122 l 185.28 262.776 q 185.28 218.725 204.711 185.579 q 224.141 152.433 259.796 134.503 q 295.45 116.572 343.312 116.572 q 386.139 116.572 418.483 129.589 q 450.827 142.606 478.431 169.243 l 561.433 79.207 q 523.847 36.81 468.062 14.612 q 412.277 -7.586 338.725 -7.586 m 285.62 607 l 104.309 751.312 l 272.243 751.312 l 406.657 607"},"é":{"ha":631.0,"x_min":0,"x_max":631.0,"o":"m 338.725 -7.586 q 246.569 -7.586 177.5 28.207 q 108.431 64 70.448 126.69 q 32.465 189.38 32.465 269.173 q 32.465 349.759 69.646 412.251 q 106.827 474.742 171.897 510.139 q 236.966 545.535 318.932 545.535 q 398.122 545.535 461.493 512.027 q 524.864 478.518 561.838 416.122 q 598.813 353.725 598.813 266.759 q 598.813 257.776 598.115 246.293 q 597.416 234.81 596.416 225.224 l 159.124 225.224 l 159.124 316.122 l 513.827 316.122 l 453.567 288.932 q 454.17 330.586 436.938 361.836 q 419.706 393.085 389.749 410.714 q 359.793 428.343 319.725 428.343 q 279.657 428.343 249.201 410.714 q 218.745 393.085 202.012 361.534 q 185.28 329.983 185.28 287.122 l 185.28 262.776 q 185.28 218.725 204.711 185.579 q 224.141 152.433 259.796 134.503 q 295.45 116.572 343.312 116.572 q 386.139 116.572 418.483 129.589 q 450.827 142.606 478.431 169.243 l 561.433 79.207 q 523.847 36.81 468.062 14.612 q 412.277 -7.586 338.725 -7.586 m 225.62 607 l 360.034 751.312 l 527.969 751.312 l 346.657 607"},"ê":{"ha":631.0,"x_min":0,"x_max":631.0,"o":"m 338.725 -7.586 q 246.569 -7.586 177.5 28.207 q 108.431 64 70.448 126.69 q 32.465 189.38 32.465 269.173 q 32.465 349.759 69.646 412.251 q 106.827 474.742 171.897 510.139 q 236.966 545.535 318.932 545.535 q 398.122 545.535 461.493 512.027 q 524.864 478.518 561.838 416.122 q 598.813 353.725 598.813 266.759 q 598.813 257.776 598.115 246.293 q 597.416 234.81 596.416 225.224 l 159.124 225.224 l 159.124 316.122 l 513.827 316.122 l 453.567 288.932 q 454.17 330.586 436.938 361.836 q 419.706 393.085 389.749 410.714 q 359.793 428.343 319.725 428.343 q 279.657 428.343 249.201 410.714 q 218.745 393.085 202.012 361.534 q 185.28 329.983 185.28 287.122 l 185.28 262.776 q 185.28 218.725 204.711 185.579 q 224.141 152.433 259.796 134.503 q 295.45 116.572 343.312 116.572 q 386.139 116.572 418.483 129.589 q 450.827 142.606 478.431 169.243 l 561.433 79.207 q 523.847 36.81 468.062 14.612 q 412.277 -7.586 338.725 -7.586 m 115.068 607 l 247.292 751.312 l 384.986 751.312 l 517.209 607 l 403.156 607 l 264.776 726.742 l 367.501 726.742 l 229.122 607"},"ë":{"ha":631.0,"x_min":0,"x_max":631.0,"o":"m 338.725 -7.586 q 246.569 -7.586 177.5 28.207 q 108.431 64 70.448 126.69 q 32.465 189.38 32.465 269.173 q 32.465 349.759 69.646 412.251 q 106.827 474.742 171.897 510.139 q 236.966 545.535 318.932 545.535 q 398.122 545.535 461.493 512.027 q 524.864 478.518 561.838 416.122 q 598.813 353.725 598.813 266.759 q 598.813 257.776 598.115 246.293 q 597.416 234.81 596.416 225.224 l 159.124 225.224 l 159.124 316.122 l 513.827 316.122 l 453.567 288.932 q 454.17 330.586 436.938 361.836 q 419.706 393.085 389.749 410.714 q 359.793 428.343 319.725 428.343 q 279.657 428.343 249.201 410.714 q 218.745 393.085 202.012 361.534 q 185.28 329.983 185.28 287.122 l 185.28 262.776 q 185.28 218.725 204.711 185.579 q 224.141 152.433 259.796 134.503 q 295.45 116.572 343.312 116.572 q 386.139 116.572 418.483 129.589 q 450.827 142.606 478.431 169.243 l 561.433 79.207 q 523.847 36.81 468.062 14.612 q 412.277 -7.586 338.725 -7.586 m 417.484 612.275 q 388.535 612.275 368.268 631.146 q 348 650.017 348 680.966 q 348 711.915 368.268 730.984 q 388.535 750.054 417.484 750.054 q 446.433 750.054 466.701 730.984 q 486.969 711.915 486.969 680.966 q 486.969 650.017 466.701 631.146 q 446.433 612.275 417.484 612.275 m 214.793 612.275 q 185.844 612.275 165.577 631.146 q 145.309 650.017 145.309 680.966 q 145.309 711.915 165.577 730.984 q 185.844 750.054 214.793 750.054 q 243.742 750.054 264.01 730.984 q 284.277 711.915 284.277 680.966 q 284.277 650.017 264.01 631.146 q 243.742 612.275 214.793 612.275"},"ì":{"ha":301.0,"x_min":0,"x_max":301.0,"o":"m 72.326 0 l 72.326 537.949 l 228.331 537.949 l 228.331 0 m 119.81 607 l -61.501 751.312 l 106.433 751.312 l 240.847 607"},"í":{"ha":301.0,"x_min":0,"x_max":301.0,"o":"m 72.326 0 l 72.326 537.949 l 228.331 537.949 l 228.331 0 m 59.81 607 l 194.224 751.312 l 362.158 751.312 l 180.847 607"},"î":{"ha":301.0,"x_min":0,"x_max":301.0,"o":"m 72.326 0 l 72.326 537.949 l 228.331 537.949 l 228.331 0 m -25.742 607 l 82.878 751.312 l 217.779 751.312 l 326.399 607 l 215.363 607 l 103.38 726.742 l 197.277 726.742 l 85.294 607"},"ï":{"ha":301.0,"x_min":0,"x_max":301.0,"o":"m 72.326 0 l 72.326 537.949 l 228.331 537.949 l 228.331 0 m 232.26 612.878 q 204.501 612.878 185.63 632.051 q 166.759 651.224 166.759 680.966 q 166.759 710.708 185.63 730.079 q 204.501 749.45 232.26 749.45 q 260.02 749.45 278.692 730.381 q 297.365 711.312 297.365 680.966 q 297.365 650.62 278.692 631.749 q 260.02 612.878 232.26 612.878 m 68.793 612.878 q 41.034 612.878 22.163 632.051 q 3.292 651.224 3.292 680.966 q 3.292 710.708 22.163 730.079 q 41.034 749.45 68.793 749.45 q 96.552 749.45 115.225 730.381 q 133.898 711.312 133.898 680.966 q 133.898 650.62 115.225 631.749 q 96.552 612.878 68.793 612.878"},"ð":{"ha":614.0,"x_min":0,"x_max":614.0,"o":"m 282.793 -7.38 q 205.224 -7.38 147.146 21.517 q 89.068 50.414 57.18 102.707 q 25.292 155 25.292 225.19 q 25.292 292.19 53.292 341.388 q 81.292 390.586 132.292 417.785 q 183.292 444.983 252.292 444.983 q 303.343 444.983 348.274 426.94 q 393.204 408.898 417.204 378.226 q 410.567 438.881 367.351 495.535 q 324.136 552.19 256.533 600.637 q 188.929 649.085 107.533 682.912 l 213.277 748.983 q 322.467 704.139 403.76 630.708 q 485.054 557.277 529.649 466.666 q 574.243 376.054 574.243 278.26 q 574.243 191.708 538.062 127.544 q 501.881 63.38 436.613 28 q 371.346 -7.38 282.793 -7.38 m 288.207 113.555 q 343.102 113.555 376.058 144.408 q 409.014 175.26 409.014 225.552 q 409.014 275.258 377.446 305.128 q 345.878 334.997 293.363 334.997 q 239.467 334.997 206.615 304.748 q 173.762 274.499 173.762 223.603 q 173.762 173.691 205.33 143.623 q 236.898 113.555 288.207 113.555 m 126.482 482.448 l 94.912 547.586 l 497.881 731.881 l 529.45 665.949"},"ñ":{"ha":691.0,"x_min":0,"x_max":691.0,"o":"m 72.326 0 l 72.326 537.949 l 220.952 537.949 l 220.952 388.81 l 193.037 433.603 q 222.02 488.363 275.916 516.949 q 329.813 545.535 398.623 545.535 q 462.83 545.535 513.226 520.337 q 563.623 495.139 592.821 442.647 q 622.02 390.156 622.02 307.776 l 622.02 0 l 466.014 0 l 466.014 284.465 q 466.014 349.343 437.455 380.196 q 408.895 411.048 357.38 411.048 q 319.898 411.048 290.442 395.42 q 260.986 379.791 244.658 347.946 q 228.331 316.102 228.331 266.051 l 228.331 0 m 423.329 603.637 q 397.742 603.637 377.751 613.241 q 357.759 622.844 341.466 635.551 q 325.173 648.258 311.474 657.861 q 297.776 667.465 283.776 667.465 q 262.966 667.465 250.363 652.654 q 237.759 637.844 235.759 611.224 l 156.516 611.224 q 158.516 678.156 189.387 717.613 q 220.258 757.071 273.397 757.071 q 298.983 757.071 319.276 747.467 q 339.569 737.864 355.863 725.157 q 372.156 712.45 386.052 702.847 q 399.949 693.243 412.949 693.243 q 434.156 693.243 447.061 707.554 q 459.966 721.864 460.966 747.088 l 540.209 747.088 q 539.209 683.156 507.838 643.397 q 476.467 603.637 423.329 603.637"},"ò":{"ha":655.0,"x_min":0,"x_max":655.0,"o":"m 327.535 -7.586 q 242.04 -7.586 175.537 28.009 q 109.034 63.603 70.749 126.208 q 32.465 188.813 32.465 269.275 q 32.465 350.363 70.862 412.579 q 109.26 474.795 175.518 510.165 q 241.776 545.535 327.535 545.535 q 413.294 545.535 480.086 510.204 q 546.878 474.873 584.742 412.725 q 622.606 350.577 622.606 269.268 q 622.606 188.586 584.821 126.095 q 547.037 63.603 480.02 28.009 q 413.003 -7.586 327.535 -7.586 m 327.535 120.141 q 367.017 120.141 397.878 137.874 q 428.74 155.606 446.774 189.459 q 464.808 223.312 464.808 269.249 q 464.808 316.034 446.774 349.188 q 428.74 382.343 397.878 400.075 q 367.017 417.808 327.837 417.808 q 288.657 417.808 257.796 400.075 q 226.935 382.343 208.599 349.188 q 190.263 316.034 190.263 269.249 q 190.263 223.312 208.599 189.459 q 226.935 155.606 257.753 137.874 q 288.572 120.141 327.535 120.141 m 295.224 607 l 113.912 751.312 l 281.847 751.312 l 416.26 607"},"ó":{"ha":655.0,"x_min":0,"x_max":655.0,"o":"m 327.535 -7.586 q 242.04 -7.586 175.537 28.009 q 109.034 63.603 70.749 126.208 q 32.465 188.813 32.465 269.275 q 32.465 350.363 70.862 412.579 q 109.26 474.795 175.518 510.165 q 241.776 545.535 327.535 545.535 q 413.294 545.535 480.086 510.204 q 546.878 474.873 584.742 412.725 q 622.606 350.577 622.606 269.268 q 622.606 188.586 584.821 126.095 q 547.037 63.603 480.02 28.009 q 413.003 -7.586 327.535 -7.586 m 327.535 120.141 q 367.017 120.141 397.878 137.874 q 428.74 155.606 446.774 189.459 q 464.808 223.312 464.808 269.249 q 464.808 316.034 446.774 349.188 q 428.74 382.343 397.878 400.075 q 367.017 417.808 327.837 417.808 q 288.657 417.808 257.796 400.075 q 226.935 382.343 208.599 349.188 q 190.263 316.034 190.263 269.249 q 190.263 223.312 208.599 189.459 q 226.935 155.606 257.753 137.874 q 288.572 120.141 327.535 120.141 m 235.224 607 l 369.637 751.312 l 537.572 751.312 l 356.26 607"},"ô":{"ha":655.0,"x_min":0,"x_max":655.0,"o":"m 327.535 -7.586 q 242.04 -7.586 175.537 28.009 q 109.034 63.603 70.749 126.208 q 32.465 188.813 32.465 269.275 q 32.465 350.363 70.862 412.579 q 109.26 474.795 175.518 510.165 q 241.776 545.535 327.535 545.535 q 413.294 545.535 480.086 510.204 q 546.878 474.873 584.742 412.725 q 622.606 350.577 622.606 269.268 q 622.606 188.586 584.821 126.095 q 547.037 63.603 480.02 28.009 q 413.003 -7.586 327.535 -7.586 m 327.535 120.141 q 367.017 120.141 397.878 137.874 q 428.74 155.606 446.774 189.459 q 464.808 223.312 464.808 269.249 q 464.808 316.034 446.774 349.188 q 428.74 382.343 397.878 400.075 q 367.017 417.808 327.837 417.808 q 288.657 417.808 257.796 400.075 q 226.935 382.343 208.599 349.188 q 190.263 316.034 190.263 269.249 q 190.263 223.312 208.599 189.459 q 226.935 155.606 257.753 137.874 q 288.572 120.141 327.535 120.141 m 124.671 607 l 256.895 751.312 l 394.589 751.312 l 526.813 607 l 412.759 607 l 274.38 726.742 l 377.105 726.742 l 238.725 607"},"õ":{"ha":655.0,"x_min":0,"x_max":655.0,"o":"m 327.535 -7.586 q 242.04 -7.586 175.537 28.009 q 109.034 63.603 70.749 126.208 q 32.465 188.813 32.465 269.275 q 32.465 350.363 70.862 412.579 q 109.26 474.795 175.518 510.165 q 241.776 545.535 327.535 545.535 q 413.294 545.535 480.086 510.204 q 546.878 474.873 584.742 412.725 q 622.606 350.577 622.606 269.268 q 622.606 188.586 584.821 126.095 q 547.037 63.603 480.02 28.009 q 413.003 -7.586 327.535 -7.586 m 327.535 120.141 q 367.017 120.141 397.878 137.874 q 428.74 155.606 446.774 189.459 q 464.808 223.312 464.808 269.249 q 464.808 316.034 446.774 349.188 q 428.74 382.343 397.878 400.075 q 367.017 417.808 327.837 417.808 q 288.657 417.808 257.796 400.075 q 226.935 382.343 208.599 349.188 q 190.263 316.034 190.263 269.249 q 190.263 223.312 208.599 189.459 q 226.935 155.606 257.753 137.874 q 288.572 120.141 327.535 120.141 m 400.708 603.637 q 375.122 603.637 355.13 613.241 q 335.139 622.844 318.846 635.551 q 302.552 648.258 288.854 657.861 q 275.156 667.465 261.156 667.465 q 240.346 667.465 227.742 652.654 q 215.139 637.844 213.139 611.224 l 133.895 611.224 q 135.895 678.156 166.766 717.613 q 197.637 757.071 250.776 757.071 q 276.363 757.071 296.656 747.467 q 316.949 737.864 333.242 725.157 q 349.535 712.45 363.432 702.847 q 377.329 693.243 390.329 693.243 q 411.535 693.243 424.44 707.554 q 437.346 721.864 438.346 747.088 l 517.589 747.088 q 516.589 683.156 485.218 643.397 q 453.847 603.637 400.708 603.637"},"ö":{"ha":655.0,"x_min":0,"x_max":655.0,"o":"m 327.535 -7.586 q 242.04 -7.586 175.537 28.009 q 109.034 63.603 70.749 126.208 q 32.465 188.813 32.465 269.275 q 32.465 350.363 70.862 412.579 q 109.26 474.795 175.518 510.165 q 241.776 545.535 327.535 545.535 q 413.294 545.535 480.086 510.204 q 546.878 474.873 584.742 412.725 q 622.606 350.577 622.606 269.268 q 622.606 188.586 584.821 126.095 q 547.037 63.603 480.02 28.009 q 413.003 -7.586 327.535 -7.586 m 327.535 120.141 q 367.017 120.141 397.878 137.874 q 428.74 155.606 446.774 189.459 q 464.808 223.312 464.808 269.249 q 464.808 316.034 446.774 349.188 q 428.74 382.343 397.878 400.075 q 367.017 417.808 327.837 417.808 q 288.657 417.808 257.796 400.075 q 226.935 382.343 208.599 349.188 q 190.263 316.034 190.263 269.249 q 190.263 223.312 208.599 189.459 q 226.935 155.606 257.753 137.874 q 288.572 120.141 327.535 120.141 m 427.088 612.275 q 398.139 612.275 377.871 631.146 q 357.603 650.017 357.603 680.966 q 357.603 711.915 377.871 730.984 q 398.139 750.054 427.088 750.054 q 456.037 750.054 476.304 730.984 q 496.572 711.915 496.572 680.966 q 496.572 650.017 476.304 631.146 q 456.037 612.275 427.088 612.275 m 224.397 612.275 q 195.448 612.275 175.18 631.146 q 154.912 650.017 154.912 680.966 q 154.912 711.915 175.18 730.984 q 195.448 750.054 224.397 750.054 q 253.346 750.054 273.613 730.984 q 293.881 711.915 293.881 680.966 q 293.881 650.017 273.613 631.146 q 253.346 612.275 224.397 612.275"},"÷":{"ha":599.0,"x_min":0,"x_max":599.0,"o":"m 61.637 289.136 l 61.637 410.864 l 537.847 410.864 l 537.847 289.136 m 299.742 58.618 q 265.414 58.618 241.361 82.377 q 217.309 106.136 217.309 142.671 q 217.309 179.603 241.361 202.164 q 265.414 224.725 299.742 224.725 q 334.674 224.725 358.726 202.164 q 382.779 179.603 382.779 142.671 q 382.779 106.136 358.726 82.377 q 334.674 58.618 299.742 58.618 m 299.742 475.275 q 265.414 475.275 241.361 499.034 q 217.309 522.793 217.309 558.725 q 217.309 595.657 241.361 618.52 q 265.414 641.382 299.742 641.382 q 334.674 641.382 358.726 618.52 q 382.779 595.657 382.779 558.725 q 382.779 522.793 358.726 499.034 q 334.674 475.275 299.742 475.275"},"ø":{"ha":655.0,"x_min":0,"x_max":655.0,"o":"m 327.535 -7.586 q 242.04 -7.586 175.537 28.009 q 109.034 63.603 70.749 126.208 q 32.465 188.813 32.465 269.275 q 32.465 350.363 70.862 412.579 q 109.26 474.795 175.518 510.165 q 241.776 545.535 327.535 545.535 q 413.294 545.535 480.086 510.204 q 546.878 474.873 584.742 412.725 q 622.606 350.577 622.606 269.268 q 622.606 188.586 584.821 126.095 q 547.037 63.603 480.02 28.009 q 413.003 -7.586 327.535 -7.586 m 327.535 120.141 q 367.017 120.141 397.878 137.874 q 428.74 155.606 446.774 189.459 q 464.808 223.312 464.808 269.249 q 464.808 316.034 446.774 349.188 q 428.74 382.343 397.878 400.075 q 367.017 417.808 327.837 417.808 q 288.657 417.808 257.796 400.075 q 226.935 382.343 208.599 349.188 q 190.263 316.034 190.263 269.249 q 190.263 223.312 208.599 189.459 q 226.935 155.606 257.753 137.874 q 288.572 120.141 327.535 120.141 m 105.346 -76.034 l 454.949 599.139 l 538.518 599.139 l 188.915 -76.034"},"ù":{"ha":687.0,"x_min":0,"x_max":687.0,"o":"m 299.119 -7.586 q 231.706 -7.586 179.507 18.009 q 127.309 43.603 97.912 97.388 q 68.516 151.173 68.516 234.139 l 68.516 537.949 l 224.521 537.949 l 224.521 257.45 q 224.521 189.796 253.175 158.348 q 281.83 126.9 333.535 126.9 q 369.827 126.9 397.887 142.529 q 425.946 158.158 442.075 190.503 q 458.204 222.847 458.204 271.898 l 458.204 537.949 l 614.209 537.949 l 614.209 0 l 465.584 0 l 465.584 148.346 l 493.499 104.742 q 465.706 49.19 413.412 20.802 q 361.119 -7.586 299.119 -7.586 m 310.844 607 l 129.533 751.312 l 297.467 751.312 l 431.881 607"},"ú":{"ha":687.0,"x_min":0,"x_max":687.0,"o":"m 299.119 -7.586 q 231.706 -7.586 179.507 18.009 q 127.309 43.603 97.912 97.388 q 68.516 151.173 68.516 234.139 l 68.516 537.949 l 224.521 537.949 l 224.521 257.45 q 224.521 189.796 253.175 158.348 q 281.83 126.9 333.535 126.9 q 369.827 126.9 397.887 142.529 q 425.946 158.158 442.075 190.503 q 458.204 222.847 458.204 271.898 l 458.204 537.949 l 614.209 537.949 l 614.209 0 l 465.584 0 l 465.584 148.346 l 493.499 104.742 q 465.706 49.19 413.412 20.802 q 361.119 -7.586 299.119 -7.586 m 250.844 607 l 385.258 751.312 l 553.192 751.312 l 371.881 607"},"û":{"ha":687.0,"x_min":0,"x_max":687.0,"o":"m 299.119 -7.586 q 231.706 -7.586 179.507 18.009 q 127.309 43.603 97.912 97.388 q 68.516 151.173 68.516 234.139 l 68.516 537.949 l 224.521 537.949 l 224.521 257.45 q 224.521 189.796 253.175 158.348 q 281.83 126.9 333.535 126.9 q 369.827 126.9 397.887 142.529 q 425.946 158.158 442.075 190.503 q 458.204 222.847 458.204 271.898 l 458.204 537.949 l 614.209 537.949 l 614.209 0 l 465.584 0 l 465.584 148.346 l 493.499 104.742 q 465.706 49.19 413.412 20.802 q 361.119 -7.586 299.119 -7.586 m 140.292 607 l 272.516 751.312 l 410.209 751.312 l 542.433 607 l 428.38 607 l 290 726.742 l 392.725 726.742 l 254.346 607"},"ü":{"ha":687.0,"x_min":0,"x_max":687.0,"o":"m 299.119 -7.586 q 231.706 -7.586 179.507 18.009 q 127.309 43.603 97.912 97.388 q 68.516 151.173 68.516 234.139 l 68.516 537.949 l 224.521 537.949 l 224.521 257.45 q 224.521 189.796 253.175 158.348 q 281.83 126.9 333.535 126.9 q 369.827 126.9 397.887 142.529 q 425.946 158.158 442.075 190.503 q 458.204 222.847 458.204 271.898 l 458.204 537.949 l 614.209 537.949 l 614.209 0 l 465.584 0 l 465.584 148.346 l 493.499 104.742 q 465.706 49.19 413.412 20.802 q 361.119 -7.586 299.119 -7.586 m 442.708 612.275 q 413.759 612.275 393.491 631.146 q 373.224 650.017 373.224 680.966 q 373.224 711.915 393.491 730.984 q 413.759 750.054 442.708 750.054 q 471.657 750.054 491.925 730.984 q 512.192 711.915 512.192 680.966 q 512.192 650.017 491.925 631.146 q 471.657 612.275 442.708 612.275 m 240.017 612.275 q 211.068 612.275 190.8 631.146 q 170.533 650.017 170.533 680.966 q 170.533 711.915 190.8 730.984 q 211.068 750.054 240.017 750.054 q 268.966 750.054 289.234 730.984 q 309.501 711.915 309.501 680.966 q 309.501 650.017 289.234 631.146 q 268.966 612.275 240.017 612.275"},"ý":{"ha":598.0,"x_min":0,"x_max":598.0,"o":"m 139.83 -201.586 q 98.45 -201.586 57.381 -188.69 q 16.312 -175.793 -10.482 -152.586 l 47.02 -41.635 q 65.226 -57.652 88.537 -66.859 q 111.847 -76.065 135.467 -76.065 q 167.881 -76.065 187.501 -60.548 q 207.122 -45.031 222.552 -9.17 l 250.983 56.674 l 263.363 73.847 l 456.465 537.949 l 605.9 537.949 l 363.402 -33.326 q 337.022 -98.068 303.556 -134.939 q 270.09 -171.81 229.435 -186.698 q 188.779 -201.586 139.83 -201.586 m 232.051 -20.776 l -7.759 537.949 l 153.039 537.949 l 339.365 87.813 m 197.139 607 l 331.552 751.312 l 499.487 751.312 l 318.175 607"},"þ":{"ha":690.0,"x_min":0,"x_max":690.0,"o":"m 389.855 -7.586 q 322.277 -7.586 270.95 22.31 q 219.623 52.207 191.287 113.5 q 162.952 174.793 162.952 268.919 q 162.952 364.156 190.089 425.147 q 217.226 486.139 268.355 515.837 q 319.484 545.535 389.657 545.535 q 465.881 545.535 526.484 511.337 q 587.088 477.139 622.484 415.147 q 657.881 353.156 657.881 268.776 q 657.881 184.397 622.484 122.405 q 587.088 60.414 526.484 26.414 q 465.881 -7.586 389.855 -7.586 m 72.326 -194 l 72.326 742 l 228.331 742 l 228.331 427.745 l 218.331 268.173 l 228.331 108.601 l 228.331 -194 m 362.785 120.141 q 401.688 120.141 432.55 137.874 q 463.411 155.606 481.747 189.26 q 500.082 222.915 500.082 268.876 q 500.082 315.637 481.747 348.99 q 463.411 382.343 432.575 400.075 q 401.739 417.808 362.835 417.808 q 323.932 417.808 293.071 400.075 q 262.209 382.343 243.874 348.99 q 225.538 315.637 225.538 268.876 q 225.538 222.915 243.874 189.26 q 262.209 155.606 293.046 137.874 q 323.882 120.141 362.785 120.141"},"ÿ":{"ha":598.0,"x_min":0,"x_max":598.0,"o":"m 139.83 -201.586 q 98.45 -201.586 57.381 -188.69 q 16.312 -175.793 -10.482 -152.586 l 47.02 -41.635 q 65.226 -57.652 88.537 -66.859 q 111.847 -76.065 135.467 -76.065 q 167.881 -76.065 187.501 -60.548 q 207.122 -45.031 222.552 -9.17 l 250.983 56.674 l 263.363 73.847 l 456.465 537.949 l 605.9 537.949 l 363.402 -33.326 q 337.022 -98.068 303.556 -134.939 q 270.09 -171.81 229.435 -186.698 q 188.779 -201.586 139.83 -201.586 m 232.051 -20.776 l -7.759 537.949 l 153.039 537.949 l 339.365 87.813 m 389.003 612.275 q 360.054 612.275 339.786 631.146 q 319.518 650.017 319.518 680.966 q 319.518 711.915 339.786 730.984 q 360.054 750.054 389.003 750.054 q 417.952 750.054 438.219 730.984 q 458.487 711.915 458.487 680.966 q 458.487 650.017 438.219 631.146 q 417.952 612.275 389.003 612.275 m 186.312 612.275 q 157.363 612.275 137.095 631.146 q 116.827 650.017 116.827 680.966 q 116.827 711.915 137.095 730.984 q 157.363 750.054 186.312 750.054 q 215.26 750.054 235.528 730.984 q 255.796 711.915 255.796 680.966 q 255.796 650.017 235.528 631.146 q 215.26 612.275 186.312 612.275"},"Ā":{"ha":766.0,"x_min":0,"x_max":766.0,"o":"m -9.346 0 l 302.688 700 l 462.883 700 l 775.521 0 l 606.343 0 l 349.569 617.567 l 413.813 617.567 l 157.039 0 m 147.312 149.757 l 189.813 272.691 l 550.431 272.691 l 593.535 149.757 m 198.431 785.241 l 198.431 873.071 l 567.745 873.071 l 567.745 785.241"},"ā":{"ha":617.0,"x_min":0,"x_max":617.0,"o":"m 401.516 0 l 401.516 104.844 l 392.153 128.431 l 392.153 316.051 q 392.153 366.309 361.619 393.946 q 331.085 421.584 267.637 421.584 q 225.207 421.584 183.586 408.274 q 141.966 394.963 112.552 371.946 l 56.844 480.518 q 101.224 512.329 163.095 528.932 q 224.966 545.535 288.966 545.535 q 412.467 545.535 480.313 487.664 q 548.158 429.793 548.158 307.275 l 548.158 0 m 238.068 -7.586 q 175.292 -7.586 130.292 13.603 q 85.292 34.793 61.387 71.785 q 37.482 108.776 37.482 155.173 q 37.482 202.742 60.861 238.837 q 84.241 274.932 135.215 295.44 q 186.19 315.949 268.173 315.949 l 410.533 315.949 l 410.533 225.051 l 285.467 225.051 q 230.158 225.051 209.736 207.215 q 189.314 189.38 189.314 161.552 q 189.314 132.294 212.563 114.666 q 235.813 97.037 276.501 97.037 q 315.793 97.037 347.06 115.269 q 378.326 133.501 392.153 170.156 l 415.723 97.725 q 399.102 46.38 354.085 19.397 q 309.068 -7.586 238.068 -7.586 m 120.051 635.241 l 120.051 723.071 l 489.365 723.071 l 489.365 635.241"},"Ă":{"ha":766.0,"x_min":0,"x_max":766.0,"o":"m -9.346 0 l 302.688 700 l 462.883 700 l 775.521 0 l 606.343 0 l 349.569 617.567 l 413.813 617.567 l 157.039 0 m 147.312 149.757 l 189.813 272.691 l 550.431 272.691 l 593.535 149.757 m 383.088 759.414 q 305.156 759.414 253.69 800.086 q 202.224 840.759 198.827 911.312 l 297.02 911.312 q 299.02 878.484 323.442 859.269 q 347.864 840.054 383.088 840.054 q 418.312 840.054 443.035 859.269 q 467.759 878.484 469.156 911.312 l 567.348 911.312 q 563.952 840.759 512.486 800.086 q 461.02 759.414 383.088 759.414"},"ă":{"ha":617.0,"x_min":0,"x_max":617.0,"o":"m 401.516 0 l 401.516 104.844 l 392.153 128.431 l 392.153 316.051 q 392.153 366.309 361.619 393.946 q 331.085 421.584 267.637 421.584 q 225.207 421.584 183.586 408.274 q 141.966 394.963 112.552 371.946 l 56.844 480.518 q 101.224 512.329 163.095 528.932 q 224.966 545.535 288.966 545.535 q 412.467 545.535 480.313 487.664 q 548.158 429.793 548.158 307.275 l 548.158 0 m 238.068 -7.586 q 175.292 -7.586 130.292 13.603 q 85.292 34.793 61.387 71.785 q 37.482 108.776 37.482 155.173 q 37.482 202.742 60.861 238.837 q 84.241 274.932 135.215 295.44 q 186.19 315.949 268.173 315.949 l 410.533 315.949 l 410.533 225.051 l 285.467 225.051 q 230.158 225.051 209.736 207.215 q 189.314 189.38 189.314 161.552 q 189.314 132.294 212.563 114.666 q 235.813 97.037 276.501 97.037 q 315.793 97.037 347.06 115.269 q 378.326 133.501 392.153 170.156 l 415.723 97.725 q 399.102 46.38 354.085 19.397 q 309.068 -7.586 238.068 -7.586 m 304.708 599.414 q 226.776 599.414 175.31 640.086 q 123.844 680.759 120.448 751.312 l 218.64 751.312 q 220.64 718.484 245.062 699.269 q 269.484 680.054 304.708 680.054 q 339.932 680.054 364.656 699.269 q 389.38 718.484 390.776 751.312 l 488.969 751.312 q 485.572 680.759 434.106 640.086 q 382.64 599.414 304.708 599.414"},"Ą":{"ha":766.0,"x_min":0,"x_max":766.0,"o":"m -9.346 0 l 302.688 700 l 462.883 700 l 775.521 0 l 606.343 0 l 349.569 617.567 l 413.813 617.567 l 157.039 0 m 147.312 149.757 l 189.813 272.691 l 550.431 272.691 l 593.535 149.757 m 698.382 -231.552 q 633.037 -231.552 596.666 -200.768 q 560.294 -169.983 560.294 -120.017 q 560.294 -88.448 576.476 -59.06 q 592.657 -29.671 626.838 -4.068 q 661.02 21.535 713.416 40.552 l 775.521 0 q 733.124 -19 707.521 -36.509 q 681.918 -54.017 670.512 -71.129 q 659.107 -88.241 659.107 -106.654 q 659.107 -127.878 674.323 -140.482 q 689.538 -153.085 716.331 -153.085 q 732.728 -153.085 748.831 -148.585 q 764.935 -144.085 776.538 -137.878 l 799.314 -208.552 q 780.711 -218.552 753.736 -225.052 q 726.762 -231.552 698.382 -231.552"},"ą":{"ha":617.0,"x_min":0,"x_max":617.0,"o":"m 401.516 0 l 401.516 104.844 l 392.153 128.431 l 392.153 316.051 q 392.153 366.309 361.619 393.946 q 331.085 421.584 267.637 421.584 q 225.207 421.584 183.586 408.274 q 141.966 394.963 112.552 371.946 l 56.844 480.518 q 101.224 512.329 163.095 528.932 q 224.966 545.535 288.966 545.535 q 412.467 545.535 480.313 487.664 q 548.158 429.793 548.158 307.275 l 548.158 0 m 238.068 -7.586 q 175.292 -7.586 130.292 13.603 q 85.292 34.793 61.387 71.785 q 37.482 108.776 37.482 155.173 q 37.482 202.742 60.861 238.837 q 84.241 274.932 135.215 295.44 q 186.19 315.949 268.173 315.949 l 410.533 315.949 l 410.533 225.051 l 285.467 225.051 q 230.158 225.051 209.736 207.215 q 189.314 189.38 189.314 161.552 q 189.314 132.294 212.563 114.666 q 235.813 97.037 276.501 97.037 q 315.793 97.037 347.06 115.269 q 378.326 133.501 392.153 170.156 l 415.723 97.725 q 399.102 46.38 354.085 19.397 q 309.068 -7.586 238.068 -7.586 m 471.02 -231.552 q 405.674 -231.552 369.303 -200.768 q 332.932 -169.983 332.932 -120.017 q 332.932 -88.448 349.113 -59.06 q 365.294 -29.671 399.476 -4.068 q 433.657 21.535 486.054 40.552 l 548.158 0 q 505.762 -19 480.158 -36.509 q 454.555 -54.017 443.15 -71.129 q 431.745 -88.241 431.745 -106.654 q 431.745 -127.878 446.96 -140.482 q 462.175 -153.085 488.969 -153.085 q 505.365 -153.085 521.469 -148.585 q 537.572 -144.085 549.175 -137.878 l 571.952 -208.552 q 553.348 -218.552 526.374 -225.052 q 499.399 -231.552 471.02 -231.552"},"Ć":{"ha":724.0,"x_min":0,"x_max":724.0,"o":"m 418.397 -11.776 q 336.81 -11.776 267.422 14.724 q 198.034 41.224 147.043 89.922 q 96.051 138.62 67.654 204.715 q 39.258 270.81 39.258 350 q 39.258 429.19 67.654 495.285 q 96.051 561.38 147.344 610.078 q 198.637 658.776 268.026 685.276 q 337.414 711.776 419 711.776 q 509.932 711.776 583.7 680.302 q 657.467 648.827 707.054 588.068 l 603.309 491.876 q 567.482 532.686 523.344 553.582 q 479.207 574.479 426.776 574.479 q 377.708 574.479 336.847 558.255 q 295.986 542.031 266.038 512.092 q 236.09 482.153 219.565 440.904 q 203.039 399.654 203.039 350 q 203.039 300.346 219.565 259.096 q 236.09 217.847 266.038 187.908 q 295.986 157.969 336.847 141.745 q 377.708 125.521 426.776 125.521 q 479.207 125.521 523.344 146.418 q 567.482 167.314 603.309 208.728 l 707.054 112.535 q 657.467 52.173 583.7 20.198 q 509.932 -11.776 418.397 -11.776 m 322.671 757 l 457.085 901.312 l 625.02 901.312 l 443.708 757"},"ć":{"ha":591.0,"x_min":0,"x_max":591.0,"o":"m 331.932 -7.586 q 245.173 -7.586 177.302 27.81 q 109.431 63.207 70.948 125.897 q 32.465 188.586 32.465 269.173 q 32.465 350.363 70.948 412.552 q 109.431 474.742 177.302 510.139 q 245.173 545.535 331.932 545.535 q 416.847 545.535 480.003 510.38 q 543.158 475.224 572.572 409.482 l 452.482 343.997 q 430.654 381.997 399.215 399.903 q 367.776 417.808 330.932 417.808 q 291.45 417.808 259.391 400.075 q 227.331 382.343 208.797 349.188 q 190.263 316.034 190.263 269.173 q 190.263 222.312 208.797 188.959 q 227.331 155.606 259.391 137.874 q 291.45 120.141 330.932 120.141 q 367.776 120.141 399.215 137.745 q 430.654 155.348 452.482 193.952 l 572.572 128.467 q 543.158 63.329 480.003 27.871 q 416.847 -7.586 331.932 -7.586 m 227.603 607 l 362.017 751.312 l 529.952 751.312 l 348.64 607"},"Ĉ":{"ha":724.0,"x_min":0,"x_max":724.0,"o":"m 418.397 -11.776 q 336.81 -11.776 267.422 14.724 q 198.034 41.224 147.043 89.922 q 96.051 138.62 67.654 204.715 q 39.258 270.81 39.258 350 q 39.258 429.19 67.654 495.285 q 96.051 561.38 147.344 610.078 q 198.637 658.776 268.026 685.276 q 337.414 711.776 419 711.776 q 509.932 711.776 583.7 680.302 q 657.467 648.827 707.054 588.068 l 603.309 491.876 q 567.482 532.686 523.344 553.582 q 479.207 574.479 426.776 574.479 q 377.708 574.479 336.847 558.255 q 295.986 542.031 266.038 512.092 q 236.09 482.153 219.565 440.904 q 203.039 399.654 203.039 350 q 203.039 300.346 219.565 259.096 q 236.09 217.847 266.038 187.908 q 295.986 157.969 336.847 141.745 q 377.708 125.521 426.776 125.521 q 479.207 125.521 523.344 146.418 q 567.482 167.314 603.309 208.728 l 707.054 112.535 q 657.467 52.173 583.7 20.198 q 509.932 -11.776 418.397 -11.776 m 212.119 757 l 344.343 901.312 l 482.037 901.312 l 614.26 757 l 500.207 757 l 361.827 876.742 l 464.552 876.742 l 326.173 757"},"ĉ":{"ha":591.0,"x_min":0,"x_max":591.0,"o":"m 331.932 -7.586 q 245.173 -7.586 177.302 27.81 q 109.431 63.207 70.948 125.897 q 32.465 188.586 32.465 269.173 q 32.465 350.363 70.948 412.552 q 109.431 474.742 177.302 510.139 q 245.173 545.535 331.932 545.535 q 416.847 545.535 480.003 510.38 q 543.158 475.224 572.572 409.482 l 452.482 343.997 q 430.654 381.997 399.215 399.903 q 367.776 417.808 330.932 417.808 q 291.45 417.808 259.391 400.075 q 227.331 382.343 208.797 349.188 q 190.263 316.034 190.263 269.173 q 190.263 222.312 208.797 188.959 q 227.331 155.606 259.391 137.874 q 291.45 120.141 330.932 120.141 q 367.776 120.141 399.215 137.745 q 430.654 155.348 452.482 193.952 l 572.572 128.467 q 543.158 63.329 480.003 27.871 q 416.847 -7.586 331.932 -7.586 m 117.051 607 l 249.275 751.312 l 386.969 751.312 l 519.192 607 l 405.139 607 l 266.759 726.742 l 369.484 726.742 l 231.105 607"},"Ċ":{"ha":724.0,"x_min":0,"x_max":724.0,"o":"m 418.397 -11.776 q 336.81 -11.776 267.422 14.724 q 198.034 41.224 147.043 89.922 q 96.051 138.62 67.654 204.715 q 39.258 270.81 39.258 350 q 39.258 429.19 67.654 495.285 q 96.051 561.38 147.344 610.078 q 198.637 658.776 268.026 685.276 q 337.414 711.776 419 711.776 q 509.932 711.776 583.7 680.302 q 657.467 648.827 707.054 588.068 l 603.309 491.876 q 567.482 532.686 523.344 553.582 q 479.207 574.479 426.776 574.479 q 377.708 574.479 336.847 558.255 q 295.986 542.031 266.038 512.092 q 236.09 482.153 219.565 440.904 q 203.039 399.654 203.039 350 q 203.039 300.346 219.565 259.096 q 236.09 217.847 266.038 187.908 q 295.986 157.969 336.847 141.745 q 377.708 125.521 426.776 125.521 q 479.207 125.521 523.344 146.418 q 567.482 167.314 603.309 208.728 l 707.054 112.535 q 657.467 52.173 583.7 20.198 q 509.932 -11.776 418.397 -11.776 m 413.19 762.085 q 376.465 762.085 352.611 785.939 q 328.757 809.793 328.757 846.518 q 328.757 882.942 352.611 906.947 q 376.465 930.952 413.19 930.952 q 449.613 930.952 473.618 906.947 q 497.623 882.942 497.623 846.518 q 497.623 809.793 473.618 785.939 q 449.613 762.085 413.19 762.085"},"ċ":{"ha":591.0,"x_min":0,"x_max":591.0,"o":"m 331.932 -7.586 q 245.173 -7.586 177.302 27.81 q 109.431 63.207 70.948 125.897 q 32.465 188.586 32.465 269.173 q 32.465 350.363 70.948 412.552 q 109.431 474.742 177.302 510.139 q 245.173 545.535 331.932 545.535 q 416.847 545.535 480.003 510.38 q 543.158 475.224 572.572 409.482 l 452.482 343.997 q 430.654 381.997 399.215 399.903 q 367.776 417.808 330.932 417.808 q 291.45 417.808 259.391 400.075 q 227.331 382.343 208.797 349.188 q 190.263 316.034 190.263 269.173 q 190.263 222.312 208.797 188.959 q 227.331 155.606 259.391 137.874 q 291.45 120.141 330.932 120.141 q 367.776 120.141 399.215 137.745 q 430.654 155.348 452.482 193.952 l 572.572 128.467 q 543.158 63.329 480.003 27.871 q 416.847 -7.586 331.932 -7.586 m 318.122 612.085 q 281.397 612.085 257.543 635.939 q 233.688 659.793 233.688 696.518 q 233.688 732.942 257.543 756.947 q 281.397 780.952 318.122 780.952 q 354.545 780.952 378.55 756.947 q 402.555 732.942 402.555 696.518 q 402.555 659.793 378.55 635.939 q 354.545 612.085 318.122 612.085"},"Č":{"ha":724.0,"x_min":0,"x_max":724.0,"o":"m 418.397 -11.776 q 336.81 -11.776 267.422 14.724 q 198.034 41.224 147.043 89.922 q 96.051 138.62 67.654 204.715 q 39.258 270.81 39.258 350 q 39.258 429.19 67.654 495.285 q 96.051 561.38 147.344 610.078 q 198.637 658.776 268.026 685.276 q 337.414 711.776 419 711.776 q 509.932 711.776 583.7 680.302 q 657.467 648.827 707.054 588.068 l 603.309 491.876 q 567.482 532.686 523.344 553.582 q 479.207 574.479 426.776 574.479 q 377.708 574.479 336.847 558.255 q 295.986 542.031 266.038 512.092 q 236.09 482.153 219.565 440.904 q 203.039 399.654 203.039 350 q 203.039 300.346 219.565 259.096 q 236.09 217.847 266.038 187.908 q 295.986 157.969 336.847 141.745 q 377.708 125.521 426.776 125.521 q 479.207 125.521 523.344 146.418 q 567.482 167.314 603.309 208.728 l 707.054 112.535 q 657.467 52.173 583.7 20.198 q 509.932 -11.776 418.397 -11.776 m 344.343 757 l 212.119 901.312 l 326.173 901.312 l 464.552 782.173 l 361.827 782.173 l 500.207 901.312 l 614.26 901.312 l 482.037 757"},"č":{"ha":591.0,"x_min":0,"x_max":591.0,"o":"m 331.932 -7.586 q 245.173 -7.586 177.302 27.81 q 109.431 63.207 70.948 125.897 q 32.465 188.586 32.465 269.173 q 32.465 350.363 70.948 412.552 q 109.431 474.742 177.302 510.139 q 245.173 545.535 331.932 545.535 q 416.847 545.535 480.003 510.38 q 543.158 475.224 572.572 409.482 l 452.482 343.997 q 430.654 381.997 399.215 399.903 q 367.776 417.808 330.932 417.808 q 291.45 417.808 259.391 400.075 q 227.331 382.343 208.797 349.188 q 190.263 316.034 190.263 269.173 q 190.263 222.312 208.797 188.959 q 227.331 155.606 259.391 137.874 q 291.45 120.141 330.932 120.141 q 367.776 120.141 399.215 137.745 q 430.654 155.348 452.482 193.952 l 572.572 128.467 q 543.158 63.329 480.003 27.871 q 416.847 -7.586 331.932 -7.586 m 249.275 607 l 117.051 751.312 l 231.105 751.312 l 369.484 632.173 l 266.759 632.173 l 405.139 751.312 l 519.192 751.312 l 386.969 607"},"Ď":{"ha":826.0,"x_min":0,"x_max":826.0,"o":"m 82.946 0 l 82.946 700 l 400.793 700 q 515.38 700 602.268 656.595 q 689.156 613.19 737.949 534.888 q 786.742 456.586 786.742 350 q 786.742 243.81 737.949 165.31 q 689.156 86.81 602.268 43.405 q 515.38 0 400.793 0 m 245.331 132.711 l 393.207 132.711 q 463.119 132.711 514.497 159.253 q 565.876 185.796 594.418 234.76 q 622.961 283.725 622.961 350 q 622.961 417.275 594.418 465.74 q 565.876 514.204 514.497 540.747 q 463.119 567.289 393.207 567.289 l 245.331 567.289 m 301.014 757 l 168.791 901.312 l 282.844 901.312 l 421.224 782.173 l 318.499 782.173 l 456.878 901.312 l 570.932 901.312 l 438.708 757"},"ď":{"ha":692.0,"x_min":0,"x_max":692.0,"o":"m 302.671 -7.586 q 227.448 -7.586 166.344 26.612 q 105.241 60.81 69.844 122.802 q 34.448 184.793 34.448 269.173 q 34.448 353.552 69.844 415.544 q 105.241 477.535 166.344 511.535 q 227.448 545.535 302.671 545.535 q 371.051 545.535 421.878 515.639 q 472.706 485.742 501.041 424.751 q 529.377 363.759 529.377 269.173 q 529.377 174.793 502.24 113.302 q 475.102 51.81 424.473 22.112 q 373.844 -7.586 302.671 -7.586 m 329.518 120.141 q 368.397 120.141 399.258 137.874 q 430.119 155.606 448.455 189.459 q 466.791 223.312 466.791 269.173 q 466.791 316.034 448.455 349.188 q 430.119 382.343 399.258 400.075 q 368.397 417.808 329.518 417.808 q 290.64 417.808 259.779 400.075 q 228.918 382.343 210.582 349.188 q 192.246 316.034 192.246 269.173 q 192.246 223.312 210.582 189.459 q 228.918 155.606 259.779 137.874 q 290.64 120.141 329.518 120.141 m 471.377 0 l 471.377 110.204 l 473.997 269.776 l 463.997 429.348 l 463.997 742 l 620.003 742 l 620.003 0 m 702.054 582 l 702.054 782.949 l 819.022 782.949 l 798.677 582"},"Đ":{"ha":839.0,"x_min":0,"x_max":839.0,"o":"m 96.309 0 l 96.309 700 l 414.156 700 q 528.742 700 615.63 656.595 q 702.518 613.19 751.312 534.888 q 800.105 456.586 800.105 350 q 800.105 243.81 751.312 165.31 q 702.518 86.81 615.63 43.405 q 528.742 0 414.156 0 m 258.694 132.711 l 406.569 132.711 q 476.482 132.711 527.86 159.253 q 579.238 185.796 607.781 234.76 q 636.323 283.725 636.323 350 q 636.323 417.275 607.781 465.74 q 579.238 514.204 527.86 540.747 q 476.482 567.289 406.569 567.289 l 258.694 567.289 m 1.258 303.292 l 1.258 411.535 l 433.847 411.535 l 433.847 303.292"},"đ":{"ha":692.0,"x_min":0,"x_max":692.0,"o":"m 302.671 -7.586 q 227.448 -7.586 166.344 26.612 q 105.241 60.81 69.844 122.802 q 34.448 184.793 34.448 269.173 q 34.448 353.552 69.844 415.544 q 105.241 477.535 166.344 511.535 q 227.448 545.535 302.671 545.535 q 371.051 545.535 421.878 515.639 q 472.706 485.742 501.041 424.751 q 529.377 363.759 529.377 269.173 q 529.377 174.793 502.24 113.302 q 475.102 51.81 424.473 22.112 q 373.844 -7.586 302.671 -7.586 m 329.518 120.141 q 368.397 120.141 399.258 137.874 q 430.119 155.606 448.455 189.459 q 466.791 223.312 466.791 269.173 q 466.791 316.034 448.455 349.188 q 430.119 382.343 399.258 400.075 q 368.397 417.808 329.518 417.808 q 290.64 417.808 259.779 400.075 q 228.918 382.343 210.582 349.188 q 192.246 316.034 192.246 269.173 q 192.246 223.312 210.582 189.459 q 228.918 155.606 259.779 137.874 q 290.64 120.141 329.518 120.141 m 471.377 0 l 471.377 110.204 l 473.997 269.776 l 463.997 429.348 l 463.997 742 l 620.003 742 l 620.003 0 m 281.62 592.241 l 281.62 682.329 l 692.725 682.329 l 692.725 592.241"},"Ē":{"ha":671.0,"x_min":0,"x_max":671.0,"o":"m 82.946 0 l 82.946 700 l 611.518 700 l 611.518 569.669 l 243.745 569.669 l 243.745 130.331 l 625.122 130.331 l 625.122 0 m 231.969 292.326 l 231.969 418.277 l 569.312 418.277 l 569.312 292.326 m 162.774 785.241 l 162.774 873.071 l 532.088 873.071 l 532.088 785.241"},"ē":{"ha":631.0,"x_min":0,"x_max":631.0,"o":"m 338.725 -7.586 q 246.569 -7.586 177.5 28.207 q 108.431 64 70.448 126.69 q 32.465 189.38 32.465 269.173 q 32.465 349.759 69.646 412.251 q 106.827 474.742 171.897 510.139 q 236.966 545.535 318.932 545.535 q 398.122 545.535 461.493 512.027 q 524.864 478.518 561.838 416.122 q 598.813 353.725 598.813 266.759 q 598.813 257.776 598.115 246.293 q 597.416 234.81 596.416 225.224 l 159.124 225.224 l 159.124 316.122 l 513.827 316.122 l 453.567 288.932 q 454.17 330.586 436.938 361.836 q 419.706 393.085 389.749 410.714 q 359.793 428.343 319.725 428.343 q 279.657 428.343 249.201 410.714 q 218.745 393.085 202.012 361.534 q 185.28 329.983 185.28 287.122 l 185.28 262.776 q 185.28 218.725 204.711 185.579 q 224.141 152.433 259.796 134.503 q 295.45 116.572 343.312 116.572 q 386.139 116.572 418.483 129.589 q 450.827 142.606 478.431 169.243 l 561.433 79.207 q 523.847 36.81 468.062 14.612 q 412.277 -7.586 338.725 -7.586 m 131.482 635.241 l 131.482 723.071 l 500.796 723.071 l 500.796 635.241"},"Ĕ":{"ha":671.0,"x_min":0,"x_max":671.0,"o":"m 82.946 0 l 82.946 700 l 611.518 700 l 611.518 569.669 l 243.745 569.669 l 243.745 130.331 l 625.122 130.331 l 625.122 0 m 231.969 292.326 l 231.969 418.277 l 569.312 418.277 l 569.312 292.326 m 347.431 759.414 q 269.499 759.414 218.033 800.086 q 166.567 840.759 163.17 911.312 l 261.363 911.312 q 263.363 878.484 287.785 859.269 q 312.207 840.054 347.431 840.054 q 382.654 840.054 407.378 859.269 q 432.102 878.484 433.499 911.312 l 531.691 911.312 q 528.294 840.759 476.829 800.086 q 425.363 759.414 347.431 759.414"},"ĕ":{"ha":631.0,"x_min":0,"x_max":631.0,"o":"m 338.725 -7.586 q 246.569 -7.586 177.5 28.207 q 108.431 64 70.448 126.69 q 32.465 189.38 32.465 269.173 q 32.465 349.759 69.646 412.251 q 106.827 474.742 171.897 510.139 q 236.966 545.535 318.932 545.535 q 398.122 545.535 461.493 512.027 q 524.864 478.518 561.838 416.122 q 598.813 353.725 598.813 266.759 q 598.813 257.776 598.115 246.293 q 597.416 234.81 596.416 225.224 l 159.124 225.224 l 159.124 316.122 l 513.827 316.122 l 453.567 288.932 q 454.17 330.586 436.938 361.836 q 419.706 393.085 389.749 410.714 q 359.793 428.343 319.725 428.343 q 279.657 428.343 249.201 410.714 q 218.745 393.085 202.012 361.534 q 185.28 329.983 185.28 287.122 l 185.28 262.776 q 185.28 218.725 204.711 185.579 q 224.141 152.433 259.796 134.503 q 295.45 116.572 343.312 116.572 q 386.139 116.572 418.483 129.589 q 450.827 142.606 478.431 169.243 l 561.433 79.207 q 523.847 36.81 468.062 14.612 q 412.277 -7.586 338.725 -7.586 m 316.139 599.414 q 238.207 599.414 186.741 640.086 q 135.275 680.759 131.878 751.312 l 230.071 751.312 q 232.071 718.484 256.493 699.269 q 280.915 680.054 316.139 680.054 q 351.363 680.054 376.086 699.269 q 400.81 718.484 402.207 751.312 l 500.399 751.312 q 497.003 680.759 445.537 640.086 q 394.071 599.414 316.139 599.414"},"Ė":{"ha":671.0,"x_min":0,"x_max":671.0,"o":"m 82.946 0 l 82.946 700 l 611.518 700 l 611.518 569.669 l 243.745 569.669 l 243.745 130.331 l 625.122 130.331 l 625.122 0 m 231.969 292.326 l 231.969 418.277 l 569.312 418.277 l 569.312 292.326 m 347.431 762.085 q 310.706 762.085 286.851 785.939 q 262.997 809.793 262.997 846.518 q 262.997 882.942 286.851 906.947 q 310.706 930.952 347.431 930.952 q 383.854 930.952 407.859 906.947 q 431.864 882.942 431.864 846.518 q 431.864 809.793 407.859 785.939 q 383.854 762.085 347.431 762.085"},"ė":{"ha":631.0,"x_min":0,"x_max":631.0,"o":"m 338.725 -7.586 q 246.569 -7.586 177.5 28.207 q 108.431 64 70.448 126.69 q 32.465 189.38 32.465 269.173 q 32.465 349.759 69.646 412.251 q 106.827 474.742 171.897 510.139 q 236.966 545.535 318.932 545.535 q 398.122 545.535 461.493 512.027 q 524.864 478.518 561.838 416.122 q 598.813 353.725 598.813 266.759 q 598.813 257.776 598.115 246.293 q 597.416 234.81 596.416 225.224 l 159.124 225.224 l 159.124 316.122 l 513.827 316.122 l 453.567 288.932 q 454.17 330.586 436.938 361.836 q 419.706 393.085 389.749 410.714 q 359.793 428.343 319.725 428.343 q 279.657 428.343 249.201 410.714 q 218.745 393.085 202.012 361.534 q 185.28 329.983 185.28 287.122 l 185.28 262.776 q 185.28 218.725 204.711 185.579 q 224.141 152.433 259.796 134.503 q 295.45 116.572 343.312 116.572 q 386.139 116.572 418.483 129.589 q 450.827 142.606 478.431 169.243 l 561.433 79.207 q 523.847 36.81 468.062 14.612 q 412.277 -7.586 338.725 -7.586 m 316.139 612.085 q 279.414 612.085 255.56 635.939 q 231.706 659.793 231.706 696.518 q 231.706 732.942 255.56 756.947 q 279.414 780.952 316.139 780.952 q 352.562 780.952 376.567 756.947 q 400.572 732.942 400.572 696.518 q 400.572 659.793 376.567 635.939 q 352.562 612.085 316.139 612.085"},"Ę":{"ha":671.0,"x_min":0,"x_max":671.0,"o":"m 82.946 0 l 82.946 700 l 611.518 700 l 611.518 569.669 l 243.745 569.669 l 243.745 130.331 l 625.122 130.331 l 625.122 0 m 231.969 292.326 l 231.969 418.277 l 569.312 418.277 l 569.312 292.326 m 547.983 -231.552 q 482.637 -231.552 446.266 -200.768 q 409.895 -169.983 409.895 -120.017 q 409.895 -88.448 426.077 -59.06 q 442.258 -29.671 476.439 -4.068 q 510.62 21.535 563.017 40.552 l 625.122 0 q 582.725 -19 557.122 -36.509 q 531.518 -54.017 520.113 -71.129 q 508.708 -88.241 508.708 -106.654 q 508.708 -127.878 523.923 -140.482 q 539.139 -153.085 565.932 -153.085 q 582.329 -153.085 598.432 -148.585 q 614.535 -144.085 626.139 -137.878 l 648.915 -208.552 q 630.312 -218.552 603.337 -225.052 q 576.363 -231.552 547.983 -231.552"},"ę":{"ha":631.0,"x_min":0,"x_max":631.0,"o":"m 448.915 -231.552 q 384.173 -231.552 347.5 -199.966 q 310.827 -168.38 310.827 -115.81 q 310.827 -77.241 334.586 -38.543 q 358.346 0.156 402.518 24.603 l 435.38 4.637 q 413.569 -1.173 389.354 -4.38 q 365.139 -7.586 338.725 -7.586 q 246.569 -7.586 177.5 28.207 q 108.431 64 70.448 126.69 q 32.465 189.38 32.465 269.173 q 32.465 349.759 69.646 412.251 q 106.827 474.742 171.897 510.139 q 236.966 545.535 318.932 545.535 q 398.122 545.535 461.493 512.027 q 524.864 478.518 561.838 416.122 q 598.813 353.725 598.813 266.759 q 598.813 257.776 598.115 246.293 q 597.416 234.81 596.416 225.224 l 159.124 225.224 l 159.124 316.122 l 513.827 316.122 l 453.567 288.932 q 454.17 330.586 436.938 361.836 q 419.706 393.085 389.749 410.714 q 359.793 428.343 319.725 428.343 q 279.657 428.343 249.201 410.714 q 218.745 393.085 202.012 361.534 q 185.28 329.983 185.28 287.122 l 185.28 262.776 q 185.28 218.725 204.711 185.579 q 224.141 152.433 259.796 134.503 q 295.45 116.572 343.312 116.572 q 386.139 116.572 418.483 129.589 q 450.827 142.606 478.431 169.243 l 561.83 79.207 q 553.037 69.207 542.838 60.31 q 532.64 51.414 521.243 42.81 q 476.657 10.19 452.355 -15.526 q 428.054 -41.241 418.847 -61.853 q 409.64 -82.465 409.64 -101.671 q 409.64 -126.292 425.649 -139.688 q 441.657 -153.085 467.657 -153.085 q 483.26 -153.085 499.364 -148.585 q 515.467 -144.085 527.071 -137.878 l 549.847 -208.552 q 531.243 -218.552 504.269 -225.052 q 477.294 -231.552 448.915 -231.552"},"Ě":{"ha":671.0,"x_min":0,"x_max":671.0,"o":"m 82.946 0 l 82.946 700 l 611.518 700 l 611.518 569.669 l 243.745 569.669 l 243.745 130.331 l 625.122 130.331 l 625.122 0 m 231.969 292.326 l 231.969 418.277 l 569.312 418.277 l 569.312 292.326 m 278.584 757 l 146.36 901.312 l 260.414 901.312 l 398.793 782.173 l 296.068 782.173 l 434.448 901.312 l 548.501 901.312 l 416.277 757"},"ě":{"ha":631.0,"x_min":0,"x_max":631.0,"o":"m 338.725 -7.586 q 246.569 -7.586 177.5 28.207 q 108.431 64 70.448 126.69 q 32.465 189.38 32.465 269.173 q 32.465 349.759 69.646 412.251 q 106.827 474.742 171.897 510.139 q 236.966 545.535 318.932 545.535 q 398.122 545.535 461.493 512.027 q 524.864 478.518 561.838 416.122 q 598.813 353.725 598.813 266.759 q 598.813 257.776 598.115 246.293 q 597.416 234.81 596.416 225.224 l 159.124 225.224 l 159.124 316.122 l 513.827 316.122 l 453.567 288.932 q 454.17 330.586 436.938 361.836 q 419.706 393.085 389.749 410.714 q 359.793 428.343 319.725 428.343 q 279.657 428.343 249.201 410.714 q 218.745 393.085 202.012 361.534 q 185.28 329.983 185.28 287.122 l 185.28 262.776 q 185.28 218.725 204.711 185.579 q 224.141 152.433 259.796 134.503 q 295.45 116.572 343.312 116.572 q 386.139 116.572 418.483 129.589 q 450.827 142.606 478.431 169.243 l 561.433 79.207 q 523.847 36.81 468.062 14.612 q 412.277 -7.586 338.725 -7.586 m 247.292 607 l 115.068 751.312 l 229.122 751.312 l 367.501 632.173 l 264.776 632.173 l 403.156 751.312 l 517.209 751.312 l 384.986 607"},"Ĝ":{"ha":771.0,"x_min":0,"x_max":771.0,"o":"m 420.603 -11.776 q 338.017 -11.776 268.327 14.724 q 198.637 41.224 147.344 89.922 q 96.051 138.62 67.654 204.715 q 39.258 270.81 39.258 350 q 39.258 429.19 67.654 495.285 q 96.051 561.38 147.844 610.078 q 199.637 658.776 269.724 685.276 q 339.81 711.776 423.793 711.776 q 516.932 711.776 591.493 681 q 666.054 650.224 716.64 591.258 l 613.309 495.065 q 574.878 535.479 530.043 554.979 q 485.207 574.479 431.569 574.479 q 381.105 574.479 339.045 558.255 q 296.986 542.031 266.538 512.092 q 236.09 482.153 219.565 441.102 q 203.039 400.051 203.039 350 q 203.039 301.346 219.565 260.096 q 236.09 218.847 266.538 188.606 q 296.986 158.365 338.347 141.943 q 379.708 125.521 429.776 125.521 q 478.224 125.521 523.465 141.133 q 568.706 156.745 612.309 193.969 l 703.881 77.224 q 646.518 33.62 571.156 10.922 q 495.793 -11.776 420.603 -11.776 m 703.881 77.224 l 556.204 98.173 l 556.204 361.156 l 703.881 361.156 m 215.688 757 l 347.912 901.312 l 485.606 901.312 l 617.83 757 l 503.776 757 l 365.397 876.742 l 468.122 876.742 l 329.742 757"},"ĝ":{"ha":700.0,"x_min":0,"x_max":700.0,"o":"m 324.983 -201.586 q 248.81 -201.586 178.414 -183.078 q 108.017 -164.569 60.637 -128.156 l 122.759 -15.791 q 157.173 -43.808 209.388 -60.42 q 261.603 -77.031 313.448 -77.031 q 396.119 -77.031 433.662 -39.989 q 471.204 -2.946 471.204 70.156 l 471.204 150.55 l 481.204 286.156 l 478.584 422.365 l 478.584 537.949 l 627.209 537.949 l 627.209 89.691 q 627.209 -59.654 548.864 -130.62 q 470.518 -201.586 324.983 -201.586 m 300.895 25.776 q 226.465 25.776 165.56 58.276 q 104.654 90.776 68.56 149.173 q 32.465 207.569 32.465 286.156 q 32.465 364.742 68.56 423.139 q 104.654 481.535 165.56 513.535 q 226.465 545.535 300.895 545.535 q 369.482 545.535 421.016 518.139 q 472.55 490.742 501.791 433.147 q 531.031 375.552 531.031 286.156 q 531.031 196.759 501.791 139.164 q 472.55 81.569 421.016 53.673 q 369.482 25.776 300.895 25.776 m 331.932 153.504 q 373.414 153.504 405.275 170.236 q 437.136 186.969 455.17 216.925 q 473.204 246.881 473.204 286.156 q 473.204 325.827 455.17 355.585 q 437.136 385.343 405.275 401.575 q 373.414 417.808 331.932 417.808 q 291.45 417.808 259.089 401.575 q 226.728 385.343 208.495 355.585 q 190.263 325.827 190.263 286.156 q 190.263 246.881 208.495 216.925 q 226.728 186.969 259.089 170.236 q 291.45 153.504 331.932 153.504 m 140.051 607 l 272.275 751.312 l 409.969 751.312 l 542.192 607 l 428.139 607 l 289.759 726.742 l 392.484 726.742 l 254.105 607"},"Ğ":{"ha":771.0,"x_min":0,"x_max":771.0,"o":"m 420.603 -11.776 q 338.017 -11.776 268.327 14.724 q 198.637 41.224 147.344 89.922 q 96.051 138.62 67.654 204.715 q 39.258 270.81 39.258 350 q 39.258 429.19 67.654 495.285 q 96.051 561.38 147.844 610.078 q 199.637 658.776 269.724 685.276 q 339.81 711.776 423.793 711.776 q 516.932 711.776 591.493 681 q 666.054 650.224 716.64 591.258 l 613.309 495.065 q 574.878 535.479 530.043 554.979 q 485.207 574.479 431.569 574.479 q 381.105 574.479 339.045 558.255 q 296.986 542.031 266.538 512.092 q 236.09 482.153 219.565 441.102 q 203.039 400.051 203.039 350 q 203.039 301.346 219.565 260.096 q 236.09 218.847 266.538 188.606 q 296.986 158.365 338.347 141.943 q 379.708 125.521 429.776 125.521 q 478.224 125.521 523.465 141.133 q 568.706 156.745 612.309 193.969 l 703.881 77.224 q 646.518 33.62 571.156 10.922 q 495.793 -11.776 420.603 -11.776 m 703.881 77.224 l 556.204 98.173 l 556.204 361.156 l 703.881 361.156 m 416.759 759.414 q 338.827 759.414 287.361 800.086 q 235.895 840.759 232.499 911.312 l 330.691 911.312 q 332.691 878.484 357.113 859.269 q 381.535 840.054 416.759 840.054 q 451.983 840.054 476.707 859.269 q 501.431 878.484 502.827 911.312 l 601.02 911.312 q 597.623 840.759 546.157 800.086 q 494.691 759.414 416.759 759.414"},"ğ":{"ha":700.0,"x_min":0,"x_max":700.0,"o":"m 324.983 -201.586 q 248.81 -201.586 178.414 -183.078 q 108.017 -164.569 60.637 -128.156 l 122.759 -15.791 q 157.173 -43.808 209.388 -60.42 q 261.603 -77.031 313.448 -77.031 q 396.119 -77.031 433.662 -39.989 q 471.204 -2.946 471.204 70.156 l 471.204 150.55 l 481.204 286.156 l 478.584 422.365 l 478.584 537.949 l 627.209 537.949 l 627.209 89.691 q 627.209 -59.654 548.864 -130.62 q 470.518 -201.586 324.983 -201.586 m 300.895 25.776 q 226.465 25.776 165.56 58.276 q 104.654 90.776 68.56 149.173 q 32.465 207.569 32.465 286.156 q 32.465 364.742 68.56 423.139 q 104.654 481.535 165.56 513.535 q 226.465 545.535 300.895 545.535 q 369.482 545.535 421.016 518.139 q 472.55 490.742 501.791 433.147 q 531.031 375.552 531.031 286.156 q 531.031 196.759 501.791 139.164 q 472.55 81.569 421.016 53.673 q 369.482 25.776 300.895 25.776 m 331.932 153.504 q 373.414 153.504 405.275 170.236 q 437.136 186.969 455.17 216.925 q 473.204 246.881 473.204 286.156 q 473.204 325.827 455.17 355.585 q 437.136 385.343 405.275 401.575 q 373.414 417.808 331.932 417.808 q 291.45 417.808 259.089 401.575 q 226.728 385.343 208.495 355.585 q 190.263 325.827 190.263 286.156 q 190.263 246.881 208.495 216.925 q 226.728 186.969 259.089 170.236 q 291.45 153.504 331.932 153.504 m 341.122 599.414 q 263.19 599.414 211.724 640.086 q 160.258 680.759 156.861 751.312 l 255.054 751.312 q 257.054 718.484 281.476 699.269 q 305.898 680.054 341.122 680.054 q 376.346 680.054 401.069 699.269 q 425.793 718.484 427.19 751.312 l 525.382 751.312 q 521.986 680.759 470.52 640.086 q 419.054 599.414 341.122 599.414"},"Ġ":{"ha":771.0,"x_min":0,"x_max":771.0,"o":"m 420.603 -11.776 q 338.017 -11.776 268.327 14.724 q 198.637 41.224 147.344 89.922 q 96.051 138.62 67.654 204.715 q 39.258 270.81 39.258 350 q 39.258 429.19 67.654 495.285 q 96.051 561.38 147.844 610.078 q 199.637 658.776 269.724 685.276 q 339.81 711.776 423.793 711.776 q 516.932 711.776 591.493 681 q 666.054 650.224 716.64 591.258 l 613.309 495.065 q 574.878 535.479 530.043 554.979 q 485.207 574.479 431.569 574.479 q 381.105 574.479 339.045 558.255 q 296.986 542.031 266.538 512.092 q 236.09 482.153 219.565 441.102 q 203.039 400.051 203.039 350 q 203.039 301.346 219.565 260.096 q 236.09 218.847 266.538 188.606 q 296.986 158.365 338.347 141.943 q 379.708 125.521 429.776 125.521 q 478.224 125.521 523.465 141.133 q 568.706 156.745 612.309 193.969 l 703.881 77.224 q 646.518 33.62 571.156 10.922 q 495.793 -11.776 420.603 -11.776 m 703.881 77.224 l 556.204 98.173 l 556.204 361.156 l 703.881 361.156 m 416.759 762.085 q 380.034 762.085 356.18 785.939 q 332.326 809.793 332.326 846.518 q 332.326 882.942 356.18 906.947 q 380.034 930.952 416.759 930.952 q 453.183 930.952 477.187 906.947 q 501.192 882.942 501.192 846.518 q 501.192 809.793 477.187 785.939 q 453.183 762.085 416.759 762.085"},"ġ":{"ha":700.0,"x_min":0,"x_max":700.0,"o":"m 324.983 -201.586 q 248.81 -201.586 178.414 -183.078 q 108.017 -164.569 60.637 -128.156 l 122.759 -15.791 q 157.173 -43.808 209.388 -60.42 q 261.603 -77.031 313.448 -77.031 q 396.119 -77.031 433.662 -39.989 q 471.204 -2.946 471.204 70.156 l 471.204 150.55 l 481.204 286.156 l 478.584 422.365 l 478.584 537.949 l 627.209 537.949 l 627.209 89.691 q 627.209 -59.654 548.864 -130.62 q 470.518 -201.586 324.983 -201.586 m 300.895 25.776 q 226.465 25.776 165.56 58.276 q 104.654 90.776 68.56 149.173 q 32.465 207.569 32.465 286.156 q 32.465 364.742 68.56 423.139 q 104.654 481.535 165.56 513.535 q 226.465 545.535 300.895 545.535 q 369.482 545.535 421.016 518.139 q 472.55 490.742 501.791 433.147 q 531.031 375.552 531.031 286.156 q 531.031 196.759 501.791 139.164 q 472.55 81.569 421.016 53.673 q 369.482 25.776 300.895 25.776 m 331.932 153.504 q 373.414 153.504 405.275 170.236 q 437.136 186.969 455.17 216.925 q 473.204 246.881 473.204 286.156 q 473.204 325.827 455.17 355.585 q 437.136 385.343 405.275 401.575 q 373.414 417.808 331.932 417.808 q 291.45 417.808 259.089 401.575 q 226.728 385.343 208.495 355.585 q 190.263 325.827 190.263 286.156 q 190.263 246.881 208.495 216.925 q 226.728 186.969 259.089 170.236 q 291.45 153.504 331.932 153.504 m 341.122 612.085 q 304.397 612.085 280.543 635.939 q 256.688 659.793 256.688 696.518 q 256.688 732.942 280.543 756.947 q 304.397 780.952 341.122 780.952 q 377.545 780.952 401.55 756.947 q 425.555 732.942 425.555 696.518 q 425.555 659.793 401.55 635.939 q 377.545 612.085 341.122 612.085"},"Ģ":{"ha":771.0,"x_min":0,"x_max":771.0,"o":"m 420.603 -11.776 q 338.017 -11.776 268.327 14.724 q 198.637 41.224 147.344 89.922 q 96.051 138.62 67.654 204.715 q 39.258 270.81 39.258 350 q 39.258 429.19 67.654 495.285 q 96.051 561.38 147.844 610.078 q 199.637 658.776 269.724 685.276 q 339.81 711.776 423.793 711.776 q 516.932 711.776 591.493 681 q 666.054 650.224 716.64 591.258 l 613.309 495.065 q 574.878 535.479 530.043 554.979 q 485.207 574.479 431.569 574.479 q 381.105 574.479 339.045 558.255 q 296.986 542.031 266.538 512.092 q 236.09 482.153 219.565 441.102 q 203.039 400.051 203.039 350 q 203.039 301.346 219.565 260.096 q 236.09 218.847 266.538 188.606 q 296.986 158.365 338.347 141.943 q 379.708 125.521 429.776 125.521 q 478.224 125.521 523.465 141.133 q 568.706 156.745 612.309 193.969 l 703.881 77.224 q 646.518 33.62 571.156 10.922 q 495.793 -11.776 420.603 -11.776 m 703.881 77.224 l 556.204 98.173 l 556.204 361.156 l 703.881 361.156 m 350.275 -260.346 l 390.431 -131.637 l 406.983 -185.329 q 373.448 -185.329 355.473 -169.449 q 337.499 -153.569 337.499 -126.81 q 337.499 -100.051 356.37 -83.473 q 375.241 -66.895 406.983 -66.895 q 439.329 -66.895 457.898 -83.775 q 476.467 -100.654 476.467 -126.81 q 476.467 -139 472.872 -154.88 q 469.277 -170.759 457.501 -191.725 l 423.329 -260.346"},"ģ":{"ha":700.0,"x_min":0,"x_max":700.0,"o":"m 324.983 -201.586 q 248.81 -201.586 178.414 -183.078 q 108.017 -164.569 60.637 -128.156 l 122.759 -15.791 q 157.173 -43.808 209.388 -60.42 q 261.603 -77.031 313.448 -77.031 q 396.119 -77.031 433.662 -39.989 q 471.204 -2.946 471.204 70.156 l 471.204 150.55 l 481.204 286.156 l 478.584 422.365 l 478.584 537.949 l 627.209 537.949 l 627.209 89.691 q 627.209 -59.654 548.864 -130.62 q 470.518 -201.586 324.983 -201.586 m 300.895 25.776 q 226.465 25.776 165.56 58.276 q 104.654 90.776 68.56 149.173 q 32.465 207.569 32.465 286.156 q 32.465 364.742 68.56 423.139 q 104.654 481.535 165.56 513.535 q 226.465 545.535 300.895 545.535 q 369.482 545.535 421.016 518.139 q 472.55 490.742 501.791 433.147 q 531.031 375.552 531.031 286.156 q 531.031 196.759 501.791 139.164 q 472.55 81.569 421.016 53.673 q 369.482 25.776 300.895 25.776 m 331.932 153.504 q 373.414 153.504 405.275 170.236 q 437.136 186.969 455.17 216.925 q 473.204 246.881 473.204 286.156 q 473.204 325.827 455.17 355.585 q 437.136 385.343 405.275 401.575 q 373.414 417.808 331.932 417.808 q 291.45 417.808 259.089 401.575 q 226.728 385.343 208.495 355.585 q 190.263 325.827 190.263 286.156 q 190.263 246.881 208.495 216.925 q 226.728 186.969 259.089 170.236 q 291.45 153.504 331.932 153.504 m 341.122 599.414 q 301.603 599.414 281.741 615.991 q 261.878 632.569 261.878 658.725 q 261.878 670.915 266.671 685.691 q 271.465 700.467 283.431 723.037 l 328.38 812.864 l 412.589 812.864 l 361.467 663.552 l 341.122 717.243 q 379.64 717.243 400.003 701.864 q 420.365 686.484 420.365 658.725 q 420.365 631.966 400.503 615.69 q 380.64 599.414 341.122 599.414"},"Ĥ":{"ha":808.0,"x_min":0,"x_max":808.0,"o":"m 562.893 0 l 562.893 700 l 725.277 700 l 725.277 0 m 82.946 0 l 82.946 700 l 245.331 700 l 245.331 0 m 232.952 286.963 l 232.952 423.64 l 574.669 423.64 l 574.669 286.963 m 202.74 757 l 334.963 901.312 l 472.657 901.312 l 604.881 757 l 490.827 757 l 352.448 876.742 l 455.173 876.742 l 316.793 757"},"ĥ":{"ha":691.0,"x_min":0,"x_max":691.0,"o":"m 72.326 0 l 72.326 742 l 228.331 742 l 228.331 388.81 l 193.037 433.603 q 222.02 488.363 275.916 516.949 q 329.813 545.535 398.623 545.535 q 462.83 545.535 513.226 520.337 q 563.623 495.139 592.821 442.647 q 622.02 390.156 622.02 307.776 l 622.02 0 l 466.014 0 l 466.014 284.465 q 466.014 349.343 437.455 380.196 q 408.895 411.048 357.38 411.048 q 319.898 411.048 290.442 395.42 q 260.986 379.791 244.658 347.946 q 228.331 316.102 228.331 266.051 l 228.331 0 m -50.742 785.983 l 81.482 930.294 l 219.175 930.294 l 351.399 785.983 l 237.346 785.983 l 98.966 905.725 l 201.691 905.725 l 63.312 785.983"},"Ħ":{"ha":835.0,"x_min":0,"x_max":835.0,"o":"m 576.255 0 l 576.255 700 l 738.64 700 l 738.64 0 m 96.309 0 l 96.309 700 l 258.694 700 l 258.694 0 m 246.314 282.997 l 246.314 415.708 l 588.031 415.708 l 588.031 282.997 m 8.207 499.414 l 8.207 607.657 l 826.742 607.657 l 826.742 499.414"},"ħ":{"ha":702.0,"x_min":0,"x_max":702.0,"o":"m 84.136 0 l 84.136 742 l 240.141 742 l 240.141 388.81 l 204.847 433.603 q 233.83 488.363 287.726 516.949 q 341.623 545.535 410.433 545.535 q 474.64 545.535 525.037 520.337 q 575.433 495.139 604.632 442.647 q 633.83 390.156 633.83 307.776 l 633.83 0 l 477.825 0 l 477.825 284.465 q 477.825 349.343 449.265 380.196 q 420.706 411.048 369.19 411.048 q 331.708 411.048 302.252 395.42 q 272.796 379.791 256.469 347.946 q 240.141 316.102 240.141 266.051 l 240.141 0 m 1.034 594.224 l 1.034 684.312 l 407.209 684.312 l 407.209 594.224"},"Ĩ":{"ha":328.0,"x_min":0,"x_max":328.0,"o":"m 82.946 0 l 82.946 700 l 245.331 700 l 245.331 0 m 230.501 750.62 q 203.312 750.62 184.915 760.827 q 166.518 771.034 153.82 784.646 q 141.122 798.258 129.725 808.465 q 118.329 818.671 104.535 818.671 q 88.742 818.671 81.139 802.654 q 73.535 786.637 72.742 758.207 l -9.518 758.207 q -8.725 827.552 18.051 868.82 q 44.827 910.088 96.569 910.088 q 124.363 910.088 142.759 899.881 q 161.156 889.674 174.457 876.062 q 187.759 862.45 199.457 852.243 q 211.156 842.037 224.346 842.037 q 239.535 842.037 247.337 857.554 q 255.139 873.071 255.535 900.105 l 337.192 900.105 q 336.796 833.156 309.821 791.888 q 282.847 750.62 230.501 750.62"},"ĩ":{"ha":301.0,"x_min":0,"x_max":301.0,"o":"m 72.326 0 l 72.326 537.949 l 228.331 537.949 l 228.331 0 m 216.088 603.637 q 192.501 603.637 174.312 613.439 q 156.122 623.241 142.027 636.543 q 127.932 649.844 116.535 659.646 q 105.139 669.448 94.329 669.448 q 79.122 669.448 71.217 654.241 q 63.312 639.034 63.312 611.224 l -14.535 611.224 q -14.535 682.742 11.344 719.906 q 37.224 757.071 84.569 757.071 q 108.759 757.071 126.647 747.269 q 144.535 737.467 158.63 724.467 q 172.725 711.467 184.122 701.666 q 195.518 691.864 206.329 691.864 q 221.535 691.864 229.44 706.372 q 237.346 720.881 237.346 747.088 l 315.192 747.088 q 315.192 677.569 289.313 640.603 q 263.433 603.637 216.088 603.637"},"Ī":{"ha":328.0,"x_min":0,"x_max":328.0,"o":"m 82.946 0 l 82.946 700 l 245.331 700 l 245.331 0 m 14.051 785.241 l 14.051 873.071 l 314.226 873.071 l 314.226 785.241"},"ī":{"ha":301.0,"x_min":0,"x_max":301.0,"o":"m 72.326 0 l 72.326 537.949 l 228.331 537.949 l 228.331 0 m 0.241 635.241 l 0.241 723.071 l 300.416 723.071 l 300.416 635.241"},"Ĭ":{"ha":328.0,"x_min":0,"x_max":328.0,"o":"m 82.946 0 l 82.946 700 l 245.331 700 l 245.331 0 m 164.139 759.414 q 86.207 759.414 34.741 800.086 q -16.725 840.759 -20.122 911.312 l 78.071 911.312 q 80.071 878.484 104.493 859.269 q 128.915 840.054 164.139 840.054 q 199.363 840.054 224.086 859.269 q 248.81 878.484 250.207 911.312 l 348.399 911.312 q 345.003 840.759 293.537 800.086 q 242.071 759.414 164.139 759.414"},"ĭ":{"ha":301.0,"x_min":0,"x_max":301.0,"o":"m 72.326 0 l 72.326 537.949 l 228.331 537.949 l 228.331 0 m 150.238 599.414 q 82.19 599.414 37.327 640.086 q -7.535 680.759 -8.932 751.312 l 84.864 751.312 q 84.864 718.484 102.183 698.872 q 119.501 679.26 150.329 679.26 q 181.156 679.26 198.474 698.872 q 215.793 718.484 215.793 751.312 l 309.589 751.312 q 308.589 680.759 263.777 640.086 q 218.965 599.414 150.238 599.414"},"Į":{"ha":328.0,"x_min":0,"x_max":328.0,"o":"m 82.946 0 l 82.946 700 l 245.331 700 l 245.331 0 m 202.83 -231.552 q 148.691 -231.552 115.527 -201.474 q 82.363 -171.397 82.363 -121.034 q 82.363 -74.085 111.208 -32.395 q 140.054 9.294 197.399 40.742 l 245.331 0 q 207.141 -30.431 194.055 -56.051 q 180.969 -81.671 180.969 -105.861 q 180.969 -127.275 193.175 -140.18 q 205.382 -153.085 222.589 -153.085 q 239.986 -153.085 255.192 -142.688 l 276.365 -210.966 q 247.796 -231.552 202.83 -231.552"},"į":{"ha":301.0,"x_min":0,"x_max":301.0,"o":"m 72.326 0 l 72.326 537.949 l 228.331 537.949 l 228.331 0 m 150.329 612.723 q 107.034 612.723 79.99 637.878 q 52.946 663.034 52.946 699.966 q 52.946 736.898 79.99 762.054 q 107.034 787.209 150.329 787.209 q 193.623 787.209 220.667 763.45 q 247.711 739.691 247.711 702.759 q 247.711 664.034 220.969 638.378 q 194.226 612.723 150.329 612.723 m 185.83 -231.552 q 131.691 -231.552 98.527 -201.474 q 65.363 -171.397 65.363 -121.034 q 65.363 -74.085 94.208 -32.395 q 123.054 9.294 180.399 40.742 l 228.331 0 q 190.141 -30.431 177.055 -56.051 q 163.969 -81.671 163.969 -105.861 q 163.969 -127.275 176.175 -140.18 q 188.382 -153.085 205.589 -153.085 q 222.986 -153.085 238.192 -142.688 l 259.365 -210.966 q 230.796 -231.552 185.83 -231.552"},"İ":{"ha":328.0,"x_min":0,"x_max":328.0,"o":"m 82.946 0 l 82.946 700 l 245.331 700 l 245.331 0 m 164.139 762.085 q 127.414 762.085 103.56 785.939 q 79.706 809.793 79.706 846.518 q 79.706 882.942 103.56 906.947 q 127.414 930.952 164.139 930.952 q 200.562 930.952 224.567 906.947 q 248.572 882.942 248.572 846.518 q 248.572 809.793 224.567 785.939 q 200.562 762.085 164.139 762.085"},"ı":{"ha":301.0,"x_min":0,"x_max":301.0,"o":"m 72.326 0 l 72.326 537.949 l 228.331 537.949 l 228.331 0"},"Ĳ":{"ha":724.0,"x_min":0,"x_max":724.0,"o":"m 327.397 -11.776 q 247.654 -11.776 179.499 9.414 q 111.343 30.603 61.17 65.38 l 121.827 187.124 q 168.207 156.728 220.905 140.529 q 273.603 124.331 324.241 124.331 q 403.723 124.331 444.282 168.692 q 484.842 213.054 484.842 306.569 l 484.842 700 l 647.226 700 l 647.226 315.346 q 647.226 208.966 607.347 135.983 q 567.467 63 495.708 25.612 q 423.949 -11.776 327.397 -11.776 m 76.946 321.518 l 76.946 700 l 239.331 700 l 239.331 321.518"},"ĳ":{"ha":608.0,"x_min":0,"x_max":608.0,"o":"m 72.326 0 l 72.326 537.949 l 228.331 537.949 l 228.331 0 m 150.329 612.723 q 107.034 612.723 79.99 637.878 q 52.946 663.034 52.946 699.966 q 52.946 736.898 79.99 762.054 q 107.034 787.209 150.329 787.209 q 193.623 787.209 220.667 763.45 q 247.711 739.691 247.711 702.759 q 247.711 664.034 220.969 638.378 q 194.226 612.723 150.329 612.723 m 332.986 -201.586 q 296.606 -201.586 263.425 -194.285 q 230.243 -186.983 207.26 -172.173 l 249.192 -59.221 q 276.209 -78.255 315.277 -78.255 q 344.932 -78.255 362.052 -58.73 q 379.173 -39.204 379.173 0.433 l 379.173 537.949 l 535.178 537.949 l 535.178 1.45 q 535.178 -91.878 482.436 -146.732 q 429.694 -201.586 332.986 -201.586 m 457.175 612.723 q 413.881 612.723 386.837 637.878 q 359.793 663.034 359.793 699.966 q 359.793 736.898 386.837 762.054 q 413.881 787.209 457.175 787.209 q 500.47 787.209 527.514 763.45 q 554.558 739.691 554.558 702.759 q 554.558 664.034 527.815 638.378 q 501.073 612.723 457.175 612.723"},"Ĵ":{"ha":541.0,"x_min":0,"x_max":541.0,"o":"m 212.277 -11.776 q 141.139 -11.776 81.776 14.422 q 22.414 40.62 -16.156 90.414 l 74.037 197.572 q 102.64 159.952 134.769 140.641 q 166.898 121.331 204.346 121.331 q 303.275 121.331 303.275 237.294 l 303.275 569.669 l 57.431 569.669 l 57.431 700 l 464.47 700 l 464.47 246.467 q 464.47 116.346 400.124 52.285 q 335.779 -11.776 212.277 -11.776 m 60.38 757 l 192.603 901.312 l 330.297 901.312 l 462.521 757 l 348.467 757 l 210.088 876.742 l 312.813 876.742 l 174.433 757"},"ĵ":{"ha":307.0,"x_min":0,"x_max":307.0,"o":"m 32.329 -201.586 q -4.051 -201.586 -37.232 -194.285 q -70.414 -186.983 -93.397 -172.173 l -51.465 -59.221 q -24.448 -78.255 14.62 -78.255 q 44.275 -78.255 61.395 -58.73 q 78.516 -39.204 78.516 0.433 l 78.516 537.949 l 234.521 537.949 l 234.521 1.45 q 234.521 -91.878 181.779 -146.732 q 129.037 -201.586 32.329 -201.586 m -19.552 607 l 89.068 751.312 l 223.969 751.312 l 332.589 607 l 221.552 607 l 109.569 726.742 l 203.467 726.742 l 91.484 607"},"Ķ":{"ha":740.0,"x_min":0,"x_max":740.0,"o":"m 227.572 160.258 l 218.796 346.849 l 553.997 700 l 734.365 700 l 432.331 375.207 l 341.759 279.221 m 82.946 0 l 82.946 700 l 243.745 700 l 243.745 0 m 562.255 0 l 312.81 304.584 l 419.348 420.122 l 751.382 0 m 322.465 -260.346 l 362.62 -131.637 l 379.173 -185.329 q 345.637 -185.329 327.663 -169.449 q 309.688 -153.569 309.688 -126.81 q 309.688 -100.051 328.56 -83.473 q 347.431 -66.895 379.173 -66.895 q 411.518 -66.895 430.088 -83.775 q 448.657 -100.654 448.657 -126.81 q 448.657 -139 445.062 -154.88 q 441.467 -170.759 429.691 -191.725 l 395.518 -260.346"},"ķ":{"ha":655.0,"x_min":0,"x_max":655.0,"o":"m 200.986 109.912 l 204.779 300.487 l 455.929 537.949 l 642.073 537.949 l 400.521 292.844 l 320.105 226.584 m 72.326 0 l 72.326 742 l 228.331 742 l 228.331 0 m 472.757 0 l 291.38 225.601 l 388.745 347.122 l 661.883 0 m 260.861 -260.346 l 301.017 -131.637 l 317.569 -185.329 q 284.034 -185.329 266.06 -169.449 q 248.085 -153.569 248.085 -126.81 q 248.085 -100.051 266.956 -83.473 q 285.827 -66.895 317.569 -66.895 q 349.915 -66.895 368.484 -83.775 q 387.054 -100.654 387.054 -126.81 q 387.054 -139 383.459 -154.88 q 379.864 -170.759 368.088 -191.725 l 333.915 -260.346"},"ĸ":{"ha":655.0,"x_min":0,"x_max":655.0,"o":"m 200.986 109.912 l 204.779 300.487 l 455.929 537.949 l 642.073 537.949 l 400.521 292.844 l 320.105 226.584 m 72.326 0 l 72.326 537.949 l 228.331 537.949 l 228.331 0 m 472.757 0 l 291.38 225.601 l 388.745 347.122 l 661.883 0"},"Ĺ":{"ha":604.0,"x_min":0,"x_max":604.0,"o":"m 82.946 0 l 82.946 700 l 245.331 700 l 245.331 132.314 l 595.725 132.314 l 595.725 0 m 73.62 757 l 208.034 901.312 l 375.969 901.312 l 194.657 757"},"ĺ":{"ha":301.0,"x_min":0,"x_max":301.0,"o":"m 72.326 0 l 72.326 742 l 228.331 742 l 228.331 0 m 59.81 798.034 l 194.224 942.346 l 362.158 942.346 l 180.847 798.034"},"Ļ":{"ha":604.0,"x_min":0,"x_max":604.0,"o":"m 82.946 0 l 82.946 700 l 245.331 700 l 245.331 132.314 l 595.725 132.314 l 595.725 0 m 282.929 -260.346 l 323.085 -131.637 l 339.637 -185.329 q 306.102 -185.329 288.128 -169.449 q 270.153 -153.569 270.153 -126.81 q 270.153 -100.051 289.024 -83.473 q 307.895 -66.895 339.637 -66.895 q 371.983 -66.895 390.552 -83.775 q 409.122 -100.654 409.122 -126.81 q 409.122 -139 405.527 -154.88 q 401.932 -170.759 390.156 -191.725 l 355.983 -260.346"},"ļ":{"ha":301.0,"x_min":0,"x_max":301.0,"o":"m 72.326 0 l 72.326 742 l 228.331 742 l 228.331 0 m 93.62 -260.346 l 133.776 -131.637 l 150.329 -185.329 q 116.793 -185.329 98.819 -169.449 q 80.844 -153.569 80.844 -126.81 q 80.844 -100.051 99.715 -83.473 q 118.586 -66.895 150.329 -66.895 q 182.674 -66.895 201.243 -83.775 q 219.813 -100.654 219.813 -126.81 q 219.813 -139 216.218 -154.88 q 212.623 -170.759 200.847 -191.725 l 166.674 -260.346"},"Ľ":{"ha":604.0,"x_min":0,"x_max":604.0,"o":"m 82.946 0 l 82.946 700 l 245.331 700 l 245.331 132.314 l 595.725 132.314 l 595.725 0 m 430.844 540 l 430.844 740.949 l 547.813 740.949 l 527.467 540"},"ľ":{"ha":301.0,"x_min":0,"x_max":301.0,"o":"m 72.326 0 l 72.326 742 l 228.331 742 l 228.331 0 m 307.986 582 l 307.986 782.949 l 424.954 782.949 l 404.609 582"},"Ŀ":{"ha":604.0,"x_min":0,"x_max":604.0,"o":"m 82.946 0 l 82.946 700 l 245.331 700 l 245.331 132.314 l 595.725 132.314 l 595.725 0 m 476.501 331.861 q 439.776 331.861 415.319 356.319 q 390.861 380.776 390.861 418.708 q 390.861 456.64 415.319 481.097 q 439.776 505.555 476.501 505.555 q 513.226 505.555 537.382 481.097 q 561.538 456.64 561.538 418.708 q 561.538 380.776 537.382 356.319 q 513.226 331.861 476.501 331.861"},"ŀ":{"ha":455.0,"x_min":0,"x_max":455.0,"o":"m 72.326 0 l 72.326 742 l 228.331 742 l 228.331 0 m 376.124 284.499 q 341.986 284.499 319.821 306.965 q 297.657 329.431 297.657 363.363 q 297.657 396.898 319.821 419.364 q 341.986 441.83 376.124 441.83 q 410.66 441.83 432.824 419.364 q 454.988 396.898 454.988 363.363 q 454.988 329.431 432.824 306.965 q 410.66 284.499 376.124 284.499"},"Ł":{"ha":618.0,"x_min":0,"x_max":618.0,"o":"m 96.309 0 l 96.309 700 l 258.694 700 l 258.694 132.314 l 609.088 132.314 l 609.088 0 m 44.861 203.74 l -13.071 282.017 l 362.538 564.348 l 420.47 486.071"},"ł":{"ha":327.0,"x_min":0,"x_max":327.0,"o":"m 85.688 0 l 85.688 742 l 241.694 742 l 241.694 0 m 30.448 192.36 l -26.881 271.241 l 296.935 514.779 l 354.263 435.294"},"Ń":{"ha":808.0,"x_min":0,"x_max":808.0,"o":"m 82.946 0 l 82.946 700 l 216.606 700 l 629.929 195.558 l 565.272 195.558 l 565.272 700 l 725.277 700 l 725.277 0 l 591.618 0 l 178.294 504.442 l 242.952 504.442 l 242.952 0 m 313.292 757 l 447.706 901.312 l 615.64 901.312 l 434.329 757"},"ń":{"ha":691.0,"x_min":0,"x_max":691.0,"o":"m 72.326 0 l 72.326 537.949 l 220.952 537.949 l 220.952 388.81 l 193.037 433.603 q 222.02 488.363 275.916 516.949 q 329.813 545.535 398.623 545.535 q 462.83 545.535 513.226 520.337 q 563.623 495.139 592.821 442.647 q 622.02 390.156 622.02 307.776 l 622.02 0 l 466.014 0 l 466.014 284.465 q 466.014 349.343 437.455 380.196 q 408.895 411.048 357.38 411.048 q 319.898 411.048 290.442 395.42 q 260.986 379.791 244.658 347.946 q 228.331 316.102 228.331 266.051 l 228.331 0 m 257.844 607 l 392.258 751.312 l 560.192 751.312 l 378.881 607"},"Ņ":{"ha":808.0,"x_min":0,"x_max":808.0,"o":"m 82.946 0 l 82.946 700 l 216.606 700 l 629.929 195.558 l 565.272 195.558 l 565.272 700 l 725.277 700 l 725.277 0 l 591.618 0 l 178.294 504.442 l 242.952 504.442 l 242.952 0 m 347.102 -260.346 l 387.258 -131.637 l 403.81 -185.329 q 370.275 -185.329 352.3 -169.449 q 334.326 -153.569 334.326 -126.81 q 334.326 -100.051 353.197 -83.473 q 372.068 -66.895 403.81 -66.895 q 436.156 -66.895 454.725 -83.775 q 473.294 -100.654 473.294 -126.81 q 473.294 -139 469.7 -154.88 q 466.105 -170.759 454.329 -191.725 l 420.156 -260.346"},"ņ":{"ha":691.0,"x_min":0,"x_max":691.0,"o":"m 72.326 0 l 72.326 537.949 l 220.952 537.949 l 220.952 388.81 l 193.037 433.603 q 222.02 488.363 275.916 516.949 q 329.813 545.535 398.623 545.535 q 462.83 545.535 513.226 520.337 q 563.623 495.139 592.821 442.647 q 622.02 390.156 622.02 307.776 l 622.02 0 l 466.014 0 l 466.014 284.465 q 466.014 349.343 437.455 380.196 q 408.895 411.048 357.38 411.048 q 319.898 411.048 290.442 395.42 q 260.986 379.791 244.658 347.946 q 228.331 316.102 228.331 266.051 l 228.331 0 m 291.654 -260.346 l 331.81 -131.637 l 348.363 -185.329 q 314.827 -185.329 296.853 -169.449 q 278.878 -153.569 278.878 -126.81 q 278.878 -100.051 297.749 -83.473 q 316.62 -66.895 348.363 -66.895 q 380.708 -66.895 399.277 -83.775 q 417.847 -100.654 417.847 -126.81 q 417.847 -139 414.252 -154.88 q 410.657 -170.759 398.881 -191.725 l 364.708 -260.346"},"Ň":{"ha":808.0,"x_min":0,"x_max":808.0,"o":"m 82.946 0 l 82.946 700 l 216.606 700 l 629.929 195.558 l 565.272 195.558 l 565.272 700 l 725.277 700 l 725.277 0 l 591.618 0 l 178.294 504.442 l 242.952 504.442 l 242.952 0 m 334.963 757 l 202.74 901.312 l 316.793 901.312 l 455.173 782.173 l 352.448 782.173 l 490.827 901.312 l 604.881 901.312 l 472.657 757"},"ň":{"ha":691.0,"x_min":0,"x_max":691.0,"o":"m 72.326 0 l 72.326 537.949 l 220.952 537.949 l 220.952 388.81 l 193.037 433.603 q 222.02 488.363 275.916 516.949 q 329.813 545.535 398.623 545.535 q 462.83 545.535 513.226 520.337 q 563.623 495.139 592.821 442.647 q 622.02 390.156 622.02 307.776 l 622.02 0 l 466.014 0 l 466.014 284.465 q 466.014 349.343 437.455 380.196 q 408.895 411.048 357.38 411.048 q 319.898 411.048 290.442 395.42 q 260.986 379.791 244.658 347.946 q 228.331 316.102 228.331 266.051 l 228.331 0 m 279.516 607 l 147.292 751.312 l 261.346 751.312 l 399.725 632.173 l 297 632.173 l 435.38 751.312 l 549.433 751.312 l 417.209 607"},"ŉ":{"ha":792.0,"x_min":0,"x_max":792.0,"o":"m -8.363 409.771 l 57.535 649.74 l 79.674 559.34 q 37.363 559.34 9.715 584.694 q -17.932 610.048 -17.932 653.567 q -17.932 697.482 9.914 723.534 q 37.759 749.586 79.071 749.586 q 120.986 749.586 148.228 723.232 q 175.47 696.878 175.47 653.567 q 175.47 641.187 173.573 628.506 q 171.677 615.825 166.09 598.755 q 160.504 581.686 148.538 553.944 l 90.606 409.771 m 174.073 0 l 174.073 537.949 l 322.699 537.949 l 322.699 388.81 l 294.784 433.603 q 323.767 488.363 377.664 516.949 q 431.56 545.535 500.37 545.535 q 564.577 545.535 614.974 520.337 q 665.37 495.139 694.569 442.647 q 723.767 390.156 723.767 307.776 l 723.767 0 l 567.762 0 l 567.762 284.465 q 567.762 349.343 539.202 380.196 q 510.643 411.048 459.127 411.048 q 421.645 411.048 392.189 395.42 q 362.733 379.791 346.406 347.946 q 330.078 316.102 330.078 266.051 l 330.078 0"},"Ŋ":{"ha":808.0,"x_min":0,"x_max":808.0,"o":"m 82.946 0 l 82.946 700 l 216.606 700 l 629.929 195.558 l 591.618 0 l 178.294 504.442 l 242.952 504.442 l 242.952 0 m 478.861 -201.983 q 423.878 -201.983 374.102 -184.569 q 324.326 -167.156 289.929 -134.915 l 364.759 -23.36 q 386.38 -45.411 412.922 -57.643 q 439.465 -69.876 469.343 -69.876 q 515.428 -69.876 540.35 -40.635 q 565.272 -11.394 565.272 47.088 l 565.272 700 l 725.277 700 l 725.277 63.484 q 725.277 -7.654 707.01 -58.026 q 688.742 -108.397 655.983 -140.388 q 623.224 -172.38 578.249 -187.181 q 533.275 -201.983 478.861 -201.983"},"ŋ":{"ha":691.0,"x_min":0,"x_max":691.0,"o":"m 419.827 -201.586 q 383.448 -201.586 350.266 -194.285 q 317.085 -186.983 294.102 -172.173 l 336.034 -59.221 q 363.051 -78.255 402.119 -78.255 q 431.774 -78.255 448.894 -58.73 q 466.014 -39.204 466.014 0.433 l 466.014 284.465 q 466.014 349.343 437.455 380.196 q 408.895 411.048 357.38 411.048 q 319.898 411.048 290.442 395.42 q 260.986 379.791 244.658 347.946 q 228.331 316.102 228.331 266.051 l 228.331 0 l 72.326 0 l 72.326 537.949 l 220.952 537.949 l 220.952 388.81 l 193.037 433.603 q 222.02 488.363 275.916 516.949 q 329.813 545.535 398.623 545.535 q 462.83 545.535 513.226 520.337 q 563.623 495.139 592.821 442.647 q 622.02 390.156 622.02 307.776 l 622.02 1.45 q 622.02 -91.878 569.277 -146.732 q 516.535 -201.586 419.827 -201.586"},"Ō":{"ha":844.0,"x_min":0,"x_max":844.0,"o":"m 422.519 -11.776 q 339.866 -11.776 269.648 15.224 q 199.431 42.224 147.939 91.12 q 96.448 140.017 67.853 205.953 q 39.258 271.888 39.258 350.187 q 39.258 428.486 67.854 494.149 q 96.45 559.813 148.017 608.882 q 199.584 657.95 269.565 684.863 q 339.546 711.776 422.19 711.776 q 505.173 711.776 574.811 684.971 q 644.449 658.165 695.887 609.291 q 747.326 560.416 775.922 494.544 q 804.518 428.673 804.518 350.127 q 804.518 271.581 775.923 205.497 q 747.329 139.414 695.889 90.624 q 644.449 41.835 574.811 15.029 q 505.173 -11.776 422.519 -11.776 m 422.172 125.521 q 469.068 125.521 508.776 141.835 q 548.483 158.148 578.085 188.101 q 607.686 218.054 624.211 259.183 q 640.737 300.313 640.737 350.182 q 640.737 400.051 624.279 440.947 q 607.821 481.843 578.191 511.829 q 548.561 541.815 508.832 558.147 q 469.104 574.479 422.208 574.479 q 375.312 574.479 335.425 558.127 q 295.538 541.776 265.804 511.754 q 236.07 481.732 219.555 440.789 q 203.039 399.846 203.039 350.199 q 203.039 300.552 219.527 259.423 q 236.014 218.293 265.698 188.131 q 295.382 157.969 335.329 141.745 q 375.276 125.521 422.172 125.521 m 237.533 785.241 l 237.533 873.071 l 606.847 873.071 l 606.847 785.241"},"ō":{"ha":655.0,"x_min":0,"x_max":655.0,"o":"m 327.535 -7.586 q 242.04 -7.586 175.537 28.009 q 109.034 63.603 70.749 126.208 q 32.465 188.813 32.465 269.275 q 32.465 350.363 70.862 412.579 q 109.26 474.795 175.518 510.165 q 241.776 545.535 327.535 545.535 q 413.294 545.535 480.086 510.204 q 546.878 474.873 584.742 412.725 q 622.606 350.577 622.606 269.268 q 622.606 188.586 584.821 126.095 q 547.037 63.603 480.02 28.009 q 413.003 -7.586 327.535 -7.586 m 327.535 120.141 q 367.017 120.141 397.878 137.874 q 428.74 155.606 446.774 189.459 q 464.808 223.312 464.808 269.249 q 464.808 316.034 446.774 349.188 q 428.74 382.343 397.878 400.075 q 367.017 417.808 327.837 417.808 q 288.657 417.808 257.796 400.075 q 226.935 382.343 208.599 349.188 q 190.263 316.034 190.263 269.249 q 190.263 223.312 208.599 189.459 q 226.935 155.606 257.753 137.874 q 288.572 120.141 327.535 120.141 m 141.085 635.241 l 141.085 723.071 l 510.399 723.071 l 510.399 635.241"},"Ŏ":{"ha":844.0,"x_min":0,"x_max":844.0,"o":"m 422.519 -11.776 q 339.866 -11.776 269.648 15.224 q 199.431 42.224 147.939 91.12 q 96.448 140.017 67.853 205.953 q 39.258 271.888 39.258 350.187 q 39.258 428.486 67.854 494.149 q 96.45 559.813 148.017 608.882 q 199.584 657.95 269.565 684.863 q 339.546 711.776 422.19 711.776 q 505.173 711.776 574.811 684.971 q 644.449 658.165 695.887 609.291 q 747.326 560.416 775.922 494.544 q 804.518 428.673 804.518 350.127 q 804.518 271.581 775.923 205.497 q 747.329 139.414 695.889 90.624 q 644.449 41.835 574.811 15.029 q 505.173 -11.776 422.519 -11.776 m 422.172 125.521 q 469.068 125.521 508.776 141.835 q 548.483 158.148 578.085 188.101 q 607.686 218.054 624.211 259.183 q 640.737 300.313 640.737 350.182 q 640.737 400.051 624.279 440.947 q 607.821 481.843 578.191 511.829 q 548.561 541.815 508.832 558.147 q 469.104 574.479 422.208 574.479 q 375.312 574.479 335.425 558.127 q 295.538 541.776 265.804 511.754 q 236.07 481.732 219.555 440.789 q 203.039 399.846 203.039 350.199 q 203.039 300.552 219.527 259.423 q 236.014 218.293 265.698 188.131 q 295.382 157.969 335.329 141.745 q 375.276 125.521 422.172 125.521 m 422.19 759.414 q 344.258 759.414 292.792 800.086 q 241.326 840.759 237.929 911.312 l 336.122 911.312 q 338.122 878.484 362.544 859.269 q 386.966 840.054 422.19 840.054 q 457.414 840.054 482.137 859.269 q 506.861 878.484 508.258 911.312 l 606.45 911.312 q 603.054 840.759 551.588 800.086 q 500.122 759.414 422.19 759.414"},"ŏ":{"ha":655.0,"x_min":0,"x_max":655.0,"o":"m 327.535 -7.586 q 242.04 -7.586 175.537 28.009 q 109.034 63.603 70.749 126.208 q 32.465 188.813 32.465 269.275 q 32.465 350.363 70.862 412.579 q 109.26 474.795 175.518 510.165 q 241.776 545.535 327.535 545.535 q 413.294 545.535 480.086 510.204 q 546.878 474.873 584.742 412.725 q 622.606 350.577 622.606 269.268 q 622.606 188.586 584.821 126.095 q 547.037 63.603 480.02 28.009 q 413.003 -7.586 327.535 -7.586 m 327.535 120.141 q 367.017 120.141 397.878 137.874 q 428.74 155.606 446.774 189.459 q 464.808 223.312 464.808 269.249 q 464.808 316.034 446.774 349.188 q 428.74 382.343 397.878 400.075 q 367.017 417.808 327.837 417.808 q 288.657 417.808 257.796 400.075 q 226.935 382.343 208.599 349.188 q 190.263 316.034 190.263 269.249 q 190.263 223.312 208.599 189.459 q 226.935 155.606 257.753 137.874 q 288.572 120.141 327.535 120.141 m 325.742 599.414 q 247.81 599.414 196.344 640.086 q 144.878 680.759 141.482 751.312 l 239.674 751.312 q 241.674 718.484 266.096 699.269 q 290.518 680.054 325.742 680.054 q 360.966 680.054 385.69 699.269 q 410.414 718.484 411.81 751.312 l 510.003 751.312 q 506.606 680.759 455.14 640.086 q 403.674 599.414 325.742 599.414"},"Ő":{"ha":844.0,"x_min":0,"x_max":844.0,"o":"m 422.519 -11.776 q 339.866 -11.776 269.648 15.224 q 199.431 42.224 147.939 91.12 q 96.448 140.017 67.853 205.953 q 39.258 271.888 39.258 350.187 q 39.258 428.486 67.854 494.149 q 96.45 559.813 148.017 608.882 q 199.584 657.95 269.565 684.863 q 339.546 711.776 422.19 711.776 q 505.173 711.776 574.811 684.971 q 644.449 658.165 695.887 609.291 q 747.326 560.416 775.922 494.544 q 804.518 428.673 804.518 350.127 q 804.518 271.581 775.923 205.497 q 747.329 139.414 695.889 90.624 q 644.449 41.835 574.811 15.029 q 505.173 -11.776 422.519 -11.776 m 422.172 125.521 q 469.068 125.521 508.776 141.835 q 548.483 158.148 578.085 188.101 q 607.686 218.054 624.211 259.183 q 640.737 300.313 640.737 350.182 q 640.737 400.051 624.279 440.947 q 607.821 481.843 578.191 511.829 q 548.561 541.815 508.832 558.147 q 469.104 574.479 422.208 574.479 q 375.312 574.479 335.425 558.127 q 295.538 541.776 265.804 511.754 q 236.07 481.732 219.555 440.789 q 203.039 399.846 203.039 350.199 q 203.039 300.552 219.527 259.423 q 236.014 218.293 265.698 188.131 q 295.382 157.969 335.329 141.745 q 375.276 125.521 422.172 125.521 m 466 757 l 537.912 901.312 l 684.037 901.312 l 580.399 757 m 263.98 757 l 336.496 901.312 l 482.62 901.312 l 378.38 757"},"ő":{"ha":655.0,"x_min":0,"x_max":655.0,"o":"m 327.535 -7.586 q 242.04 -7.586 175.537 28.009 q 109.034 63.603 70.749 126.208 q 32.465 188.813 32.465 269.275 q 32.465 350.363 70.862 412.579 q 109.26 474.795 175.518 510.165 q 241.776 545.535 327.535 545.535 q 413.294 545.535 480.086 510.204 q 546.878 474.873 584.742 412.725 q 622.606 350.577 622.606 269.268 q 622.606 188.586 584.821 126.095 q 547.037 63.603 480.02 28.009 q 413.003 -7.586 327.535 -7.586 m 327.535 120.141 q 367.017 120.141 397.878 137.874 q 428.74 155.606 446.774 189.459 q 464.808 223.312 464.808 269.249 q 464.808 316.034 446.774 349.188 q 428.74 382.343 397.878 400.075 q 367.017 417.808 327.837 417.808 q 288.657 417.808 257.796 400.075 q 226.935 382.343 208.599 349.188 q 190.263 316.034 190.263 269.249 q 190.263 223.312 208.599 189.459 q 226.935 155.606 257.753 137.874 q 288.572 120.141 327.535 120.141 m 369.552 607 l 441.465 751.312 l 587.589 751.312 l 483.952 607 m 167.533 607 l 240.048 751.312 l 386.173 751.312 l 281.932 607"},"Œ":{"ha":1136.0,"x_min":0,"x_max":1136.0,"o":"m 425.207 0 q 310.62 0 223.732 43.405 q 136.844 86.81 88.051 165.31 q 39.258 243.81 39.258 349.397 q 39.258 455.983 88.051 534.586 q 136.844 613.19 223.732 656.595 q 310.62 700 425.207 700 l 589.38 700 l 589.38 567.289 l 432.793 567.289 q 363.881 567.289 312.003 540.747 q 260.124 514.204 231.582 465.438 q 203.039 416.671 203.039 349.397 q 203.039 283.122 231.582 234.459 q 260.124 185.796 312.003 159.253 q 363.881 132.711 432.793 132.711 l 589.38 132.711 l 589.38 0 m 548.085 0 l 548.085 700 l 1076.66 700 l 1076.66 569.669 l 708.883 569.669 l 708.883 130.331 l 1090.26 130.331 l 1090.26 0 m 697.107 292.326 l 697.107 418.277 l 1034.45 418.277 l 1034.45 292.326"},"œ":{"ha":1064.0,"x_min":0,"x_max":1064.0,"o":"m 325.949 -7.586 q 241.38 -7.586 175.207 28.009 q 109.034 63.603 70.749 126.095 q 32.465 188.586 32.465 269.173 q 32.465 350.363 70.749 412.552 q 109.034 474.742 175.207 510.139 q 241.38 545.535 325.949 545.535 q 410.518 545.535 472.803 510.139 q 535.088 474.742 569.183 412.552 q 603.277 350.363 603.277 269.173 q 603.277 188.586 569.183 126.095 q 535.088 63.603 472.803 28.009 q 410.518 -7.586 325.949 -7.586 m 327.535 120.141 q 367.017 120.141 397.878 137.874 q 428.74 155.606 446.774 189.459 q 464.808 223.312 464.808 269.173 q 464.808 316.034 446.774 349.188 q 428.74 382.343 397.878 400.075 q 367.017 417.808 327.535 417.808 q 288.657 417.808 257.796 400.075 q 226.935 382.343 208.599 349.188 q 190.263 316.034 190.263 269.173 q 190.263 223.312 208.599 189.459 q 226.935 155.606 257.796 137.874 q 288.657 120.141 327.535 120.141 m 771.465 -7.586 q 680.102 -7.586 614.024 28.207 q 547.946 64 512.455 126.69 q 476.963 189.38 476.963 269.173 q 476.963 349.759 511.653 412.251 q 546.343 474.742 608.421 510.139 q 670.499 545.535 751.671 545.535 q 830.465 545.535 893.836 512.027 q 957.207 478.518 994.578 416.32 q 1031.95 354.122 1031.95 267.949 q 1031.95 257.38 1031.25 246.095 q 1030.55 234.81 1029.16 225.224 l 599.796 225.224 l 599.796 316.122 l 927.53 316.122 l 885.117 288.932 q 885.72 330.586 868.884 361.836 q 852.048 393.085 822.092 410.714 q 792.136 428.343 751.671 428.343 q 711.603 428.343 681.251 410.714 q 650.898 393.085 633.864 361.534 q 616.83 329.983 616.83 287.122 l 616.83 262.776 q 616.83 218.725 636.062 185.579 q 655.294 152.433 691.346 134.503 q 727.397 116.572 775.654 116.572 q 816.499 116.572 849.24 129.589 q 881.98 142.606 909.98 169.243 l 994.173 79.207 q 956.19 36.81 899.017 14.612 q 841.844 -7.586 771.465 -7.586"},"Ŕ":{"ha":735.0,"x_min":0,"x_max":735.0,"o":"m 82.946 0 l 82.946 700 l 381.586 700 q 528.105 700 609.088 632.319 q 690.071 564.637 690.071 446.258 q 690.071 368.275 653.183 311.887 q 616.294 255.499 548.113 225.404 q 479.932 195.309 385.552 195.309 l 172.915 195.309 l 245.331 265.759 l 245.331 0 m 528.496 0 l 352.876 254.397 l 526.243 254.397 l 703.26 0 m 245.331 248.207 l 172.915 324.433 l 377.19 324.433 q 451.533 324.433 488.911 356.691 q 526.289 388.949 526.289 446.258 q 526.289 504.17 488.911 536.126 q 451.533 568.082 377.19 568.082 l 172.915 568.082 l 245.331 644.912 m 275.688 757 l 410.102 901.312 l 578.037 901.312 l 396.725 757"},"ŕ":{"ha":431.0,"x_min":0,"x_max":431.0,"o":"m 72.326 0 l 72.326 537.949 l 220.952 537.949 l 220.952 385.62 l 200.433 429.603 q 224.226 486.966 277.115 516.251 q 330.003 545.535 406.399 545.535 l 406.399 401.652 q 396.226 403.048 388.045 403.747 q 379.864 404.445 371.484 404.445 q 306.606 404.445 267.469 367.687 q 228.331 330.929 228.331 253.861 l 228.331 0 m 148.448 607 l 282.861 751.312 l 450.796 751.312 l 269.484 607"},"Ŗ":{"ha":735.0,"x_min":0,"x_max":735.0,"o":"m 82.946 0 l 82.946 700 l 381.586 700 q 528.105 700 609.088 632.319 q 690.071 564.637 690.071 446.258 q 690.071 368.275 653.183 311.887 q 616.294 255.499 548.113 225.404 q 479.932 195.309 385.552 195.309 l 172.915 195.309 l 245.331 265.759 l 245.331 0 m 528.496 0 l 352.876 254.397 l 526.243 254.397 l 703.26 0 m 245.331 248.207 l 172.915 324.433 l 377.19 324.433 q 451.533 324.433 488.911 356.691 q 526.289 388.949 526.289 446.258 q 526.289 504.17 488.911 536.126 q 451.533 568.082 377.19 568.082 l 172.915 568.082 l 245.331 644.912 m 309.499 -260.346 l 349.654 -131.637 l 366.207 -185.329 q 332.671 -185.329 314.697 -169.449 q 296.723 -153.569 296.723 -126.81 q 296.723 -100.051 315.594 -83.473 q 334.465 -66.895 366.207 -66.895 q 398.552 -66.895 417.122 -83.775 q 435.691 -100.654 435.691 -126.81 q 435.691 -139 432.096 -154.88 q 428.501 -170.759 416.725 -191.725 l 382.552 -260.346"},"ŗ":{"ha":431.0,"x_min":0,"x_max":431.0,"o":"m 72.326 0 l 72.326 537.949 l 220.952 537.949 l 220.952 385.62 l 200.433 429.603 q 224.226 486.966 277.115 516.251 q 330.003 545.535 406.399 545.535 l 406.399 401.652 q 396.226 403.048 388.045 403.747 q 379.864 404.445 371.484 404.445 q 306.606 404.445 267.469 367.687 q 228.331 330.929 228.331 253.861 l 228.331 0 m 98.62 -260.346 l 138.776 -131.637 l 155.329 -185.329 q 121.793 -185.329 103.819 -169.449 q 85.844 -153.569 85.844 -126.81 q 85.844 -100.051 104.715 -83.473 q 123.586 -66.895 155.329 -66.895 q 187.674 -66.895 206.243 -83.775 q 224.813 -100.654 224.813 -126.81 q 224.813 -139 221.218 -154.88 q 217.623 -170.759 205.847 -191.725 l 171.674 -260.346"},"Ř":{"ha":735.0,"x_min":0,"x_max":735.0,"o":"m 82.946 0 l 82.946 700 l 381.586 700 q 528.105 700 609.088 632.319 q 690.071 564.637 690.071 446.258 q 690.071 368.275 653.183 311.887 q 616.294 255.499 548.113 225.404 q 479.932 195.309 385.552 195.309 l 172.915 195.309 l 245.331 265.759 l 245.331 0 m 528.496 0 l 352.876 254.397 l 526.243 254.397 l 703.26 0 m 245.331 248.207 l 172.915 324.433 l 377.19 324.433 q 451.533 324.433 488.911 356.691 q 526.289 388.949 526.289 446.258 q 526.289 504.17 488.911 536.126 q 451.533 568.082 377.19 568.082 l 172.915 568.082 l 245.331 644.912 m 297.36 757 l 165.136 901.312 l 279.19 901.312 l 417.569 782.173 l 314.844 782.173 l 453.224 901.312 l 567.277 901.312 l 435.054 757"},"ř":{"ha":431.0,"x_min":0,"x_max":431.0,"o":"m 72.326 0 l 72.326 537.949 l 220.952 537.949 l 220.952 385.62 l 200.433 429.603 q 224.226 486.966 277.115 516.251 q 330.003 545.535 406.399 545.535 l 406.399 401.652 q 396.226 403.048 388.045 403.747 q 379.864 404.445 371.484 404.445 q 306.606 404.445 267.469 367.687 q 228.331 330.929 228.331 253.861 l 228.331 0 m 170.119 607 l 37.895 751.312 l 151.949 751.312 l 290.329 632.173 l 187.603 632.173 l 325.983 751.312 l 440.037 751.312 l 307.813 607"},"Ś":{"ha":638.0,"x_min":0,"x_max":638.0,"o":"m 313.173 -11.776 q 229.397 -11.776 152.224 10.637 q 75.051 33.051 28.085 68.671 l 82.966 191.192 q 127.535 159.175 189.337 138.658 q 251.139 118.141 313.966 118.141 q 362.448 118.141 391.904 127.77 q 421.36 137.399 435.187 154.347 q 449.014 171.294 449.014 192.949 q 449.014 221 426.808 237.732 q 404.601 254.465 368.592 264.982 q 332.584 275.499 289.17 284.904 q 245.757 294.309 202.145 308.007 q 158.533 321.706 122.524 343.8 q 86.516 365.895 64.309 402.188 q 42.102 438.482 42.102 494.482 q 42.102 554.051 74.378 603.327 q 106.654 652.603 172.215 682.19 q 237.776 711.776 337.329 711.776 q 402.898 711.776 467.071 696.173 q 531.243 680.569 580.209 650.173 l 529.725 527.445 q 481.346 555.255 431.94 568.557 q 382.535 581.859 335.932 581.859 q 288.657 581.859 259.003 571.031 q 229.348 560.204 216.021 542.36 q 202.694 524.516 202.694 502.258 q 202.694 474.603 224.9 458.069 q 247.107 441.535 283.116 431.518 q 319.124 421.501 362.736 411.993 q 406.348 402.484 449.762 389.088 q 493.175 375.691 529.184 353.898 q 565.192 332.105 587.399 296.01 q 609.606 259.915 609.606 204.915 q 609.606 146.346 577.028 97.069 q 544.45 47.793 478.786 18.009 q 413.122 -11.776 313.173 -11.776 m 234.861 757 l 369.275 901.312 l 537.209 901.312 l 355.898 757"},"ś":{"ha":531.0,"x_min":0,"x_max":531.0,"o":"m 252.535 -7.586 q 184.346 -7.586 120.871 8.922 q 57.397 25.431 19.62 50.034 l 71.966 161.623 q 108.552 138.623 159.147 124.416 q 209.742 110.209 259.346 110.209 q 313.017 110.209 335.663 123.243 q 358.309 136.277 358.309 159.139 q 358.309 177.776 340.706 187.5 q 323.102 197.224 294.197 202.336 q 265.292 207.448 230.585 212.249 q 195.878 217.051 160.973 225.749 q 126.068 234.448 97.163 251.241 q 68.258 268.034 50.654 297.026 q 33.051 326.017 33.051 372.414 q 33.051 423.207 62.741 462.19 q 92.431 501.173 147.991 523.354 q 203.552 545.535 281.674 545.535 q 337.45 545.535 394.132 533.63 q 450.813 521.725 488.986 499.329 l 436.64 387.74 q 397.657 410.74 358.364 419.24 q 319.071 427.74 282.26 427.74 q 229.606 427.74 205.658 413.706 q 181.711 399.671 181.711 378.207 q 181.711 358.363 199.314 348.139 q 216.918 337.915 245.823 332.2 q 274.728 326.484 309.435 321.683 q 344.141 316.881 378.848 307.984 q 413.555 299.088 442.46 282.596 q 471.365 266.105 488.969 237.415 q 506.572 208.725 506.572 162.932 q 506.572 113.329 476.779 74.751 q 446.986 36.173 390.321 14.293 q 333.657 -7.586 252.535 -7.586 m 170.397 607 l 304.81 751.312 l 472.745 751.312 l 291.433 607"},"Ŝ":{"ha":638.0,"x_min":0,"x_max":638.0,"o":"m 313.173 -11.776 q 229.397 -11.776 152.224 10.637 q 75.051 33.051 28.085 68.671 l 82.966 191.192 q 127.535 159.175 189.337 138.658 q 251.139 118.141 313.966 118.141 q 362.448 118.141 391.904 127.77 q 421.36 137.399 435.187 154.347 q 449.014 171.294 449.014 192.949 q 449.014 221 426.808 237.732 q 404.601 254.465 368.592 264.982 q 332.584 275.499 289.17 284.904 q 245.757 294.309 202.145 308.007 q 158.533 321.706 122.524 343.8 q 86.516 365.895 64.309 402.188 q 42.102 438.482 42.102 494.482 q 42.102 554.051 74.378 603.327 q 106.654 652.603 172.215 682.19 q 237.776 711.776 337.329 711.776 q 402.898 711.776 467.071 696.173 q 531.243 680.569 580.209 650.173 l 529.725 527.445 q 481.346 555.255 431.94 568.557 q 382.535 581.859 335.932 581.859 q 288.657 581.859 259.003 571.031 q 229.348 560.204 216.021 542.36 q 202.694 524.516 202.694 502.258 q 202.694 474.603 224.9 458.069 q 247.107 441.535 283.116 431.518 q 319.124 421.501 362.736 411.993 q 406.348 402.484 449.762 389.088 q 493.175 375.691 529.184 353.898 q 565.192 332.105 587.399 296.01 q 609.606 259.915 609.606 204.915 q 609.606 146.346 577.028 97.069 q 544.45 47.793 478.786 18.009 q 413.122 -11.776 313.173 -11.776 m 124.309 757 l 256.533 901.312 l 394.226 901.312 l 526.45 757 l 412.397 757 l 274.017 876.742 l 376.742 876.742 l 238.363 757"}}}
